<svg width="2118" height="921" xmlns="http://www.w3.org/2000/svg" xmlns:xlink="http://www.w3.org/1999/xlink" xml:space="preserve" overflow="hidden"><g transform="translate(-192 -1072)"><g><path d="M1574.5 1771C1574.5 1735.38 1603.38 1706.5 1639 1706.5 1674.62 1706.5 1703.5 1735.38 1703.5 1771 1703.5 1806.62 1674.62 1835.5 1639 1835.5 1603.38 1835.5 1574.5 1806.62 1574.5 1771Z" stroke="#000000" stroke-width="6.875" stroke-linecap="butt" stroke-linejoin="miter" stroke-miterlimit="8" stroke-opacity="1" fill="#FFFFFF" fill-rule="evenodd" fill-opacity="1"/><text fill="#000000" fill-opacity="1" font-family="DengXian,DengXian_MSFontService,sans-serif" font-style="normal" font-variant="normal" font-weight="400" font-stretch="normal" font-size="83" text-anchor="start" direction="ltr" writing-mode="lr-tb" unicode-bidi="normal" text-decoration="none" transform="matrix(1 0 0 1 1616.69 1798)">1</text><path d="M1761.5 1771C1761.5 1735.38 1790.6 1706.5 1826.5 1706.5 1862.4 1706.5 1891.5 1735.38 1891.5 1771 1891.5 1806.62 1862.4 1835.5 1826.5 1835.5 1790.6 1835.5 1761.5 1806.62 1761.5 1771Z" stroke="#000000" stroke-width="6.875" stroke-linecap="butt" stroke-linejoin="miter" stroke-miterlimit="8" stroke-opacity="1" fill="#FFFFFF" fill-rule="evenodd" fill-opacity="1"/><text fill="#000000" fill-opacity="1" font-family="DengXian,DengXian_MSFontService,sans-serif" font-style="normal" font-variant="normal" font-weight="400" font-stretch="normal" font-size="83" text-anchor="start" direction="ltr" writing-mode="lr-tb" unicode-bidi="normal" text-decoration="none" transform="matrix(1 0 0 1 1804.32 1798)">2</text><path d="M1949.5 1771C1949.5 1735.38 1978.6 1706.5 2014.5 1706.5 2050.4 1706.5 2079.5 1735.38 2079.5 1771 2079.5 1806.62 2050.4 1835.5 2014.5 1835.5 1978.6 1835.5 1949.5 1806.62 1949.5 1771Z" stroke="#000000" stroke-width="6.875" stroke-linecap="butt" stroke-linejoin="miter" stroke-miterlimit="8" stroke-opacity="1" fill="#FFFFFF" fill-rule="evenodd" fill-opacity="1"/><text fill="#000000" fill-opacity="1" font-family="DengXian,DengXian_MSFontService,sans-serif" font-style="normal" font-variant="normal" font-weight="400" font-stretch="normal" font-size="83" text-anchor="start" direction="ltr" writing-mode="lr-tb" unicode-bidi="normal" text-decoration="none" transform="matrix(1 0 0 1 1991.95 1798)">3</text><path d="M2136.5 1771C2136.5 1735.38 2165.6 1706.5 2201.5 1706.5 2237.4 1706.5 2266.5 1735.38 2266.5 1771 2266.5 1806.62 2237.4 1835.5 2201.5 1835.5 2165.6 1835.5 2136.5 1806.62 2136.5 1771Z" stroke="#000000" stroke-width="6.875" stroke-linecap="butt" stroke-linejoin="miter" stroke-miterlimit="8" stroke-opacity="1" fill="#FFFFFF" fill-rule="evenodd" fill-opacity="1"/><text fill="#000000" fill-opacity="1" font-family="DengXian,DengXian_MSFontService,sans-serif" font-style="normal" font-variant="normal" font-weight="400" font-stretch="normal" font-size="83" text-anchor="start" direction="ltr" writing-mode="lr-tb" unicode-bidi="normal" text-decoration="none" transform="matrix(1 0 0 1 2179.57 1798)">4</text><path d="M1574.5 1272.5C1574.5 1236.6 1603.38 1207.5 1639 1207.5 1674.62 1207.5 1703.5 1236.6 1703.5 1272.5 1703.5 1308.4 1674.62 1337.5 1639 1337.5 1603.38 1337.5 1574.5 1308.4 1574.5 1272.5Z" stroke="#000000" stroke-width="6.875" stroke-linecap="butt" stroke-linejoin="miter" stroke-miterlimit="8" stroke-opacity="1" fill="#FFFFFF" fill-rule="evenodd" fill-opacity="1"/><text fill="#000000" fill-opacity="1" font-family="DengXian,DengXian_MSFontService,sans-serif" font-style="normal" font-variant="normal" font-weight="400" font-stretch="normal" font-size="83" text-anchor="start" direction="ltr" writing-mode="lr-tb" unicode-bidi="normal" text-decoration="none" transform="matrix(1 0 0 1 1616.69 1300)">5</text><path d="M1761.5 1272.5C1761.5 1236.6 1790.6 1207.5 1826.5 1207.5 1862.4 1207.5 1891.5 1236.6 1891.5 1272.5 1891.5 1308.4 1862.4 1337.5 1826.5 1337.5 1790.6 1337.5 1761.5 1308.4 1761.5 1272.5Z" stroke="#000000" stroke-width="6.875" stroke-linecap="butt" stroke-linejoin="miter" stroke-miterlimit="8" stroke-opacity="1" fill="#FFFFFF" fill-rule="evenodd" fill-opacity="1"/><text fill="#000000" fill-opacity="1" font-family="DengXian,DengXian_MSFontService,sans-serif" font-style="normal" font-variant="normal" font-weight="400" font-stretch="normal" font-size="83" text-anchor="start" direction="ltr" writing-mode="lr-tb" unicode-bidi="normal" text-decoration="none" transform="matrix(1 0 0 1 1804.32 1300)">6</text><path d="M1949.5 1272.5C1949.5 1236.6 1978.6 1207.5 2014.5 1207.5 2050.4 1207.5 2079.5 1236.6 2079.5 1272.5 2079.5 1308.4 2050.4 1337.5 2014.5 1337.5 1978.6 1337.5 1949.5 1308.4 1949.5 1272.5Z" stroke="#000000" stroke-width="6.875" stroke-linecap="butt" stroke-linejoin="miter" stroke-miterlimit="8" stroke-opacity="1" fill="#FFFFFF" fill-rule="evenodd" fill-opacity="1"/><text fill="#000000" fill-opacity="1" font-family="DengXian,DengXian_MSFontService,sans-serif" font-style="normal" font-variant="normal" font-weight="400" font-stretch="normal" font-size="83" text-anchor="start" direction="ltr" writing-mode="lr-tb" unicode-bidi="normal" text-decoration="none" transform="matrix(1 0 0 1 1991.95 1300)">7</text><path d="M2136.5 1272.5C2136.5 1236.6 2165.6 1207.5 2201.5 1207.5 2237.4 1207.5 2266.5 1236.6 2266.5 1272.5 2266.5 1308.4 2237.4 1337.5 2201.5 1337.5 2165.6 1337.5 2136.5 1308.4 2136.5 1272.5Z" stroke="#000000" stroke-width="6.875" stroke-linecap="butt" stroke-linejoin="miter" stroke-miterlimit="8" stroke-opacity="1" fill="#FFFFFF" fill-rule="evenodd" fill-opacity="1"/><text fill="#000000" fill-opacity="1" font-family="DengXian,DengXian_MSFontService,sans-serif" font-style="normal" font-variant="normal" font-weight="400" font-stretch="normal" font-size="83" text-anchor="start" direction="ltr" writing-mode="lr-tb" unicode-bidi="normal" text-decoration="none" transform="matrix(1 0 0 1 2179.57 1300)">8</text><path d="M0 0 0.000360892 368.392" stroke="#E8E8E8" stroke-width="6.875" stroke-linecap="butt" stroke-linejoin="miter" stroke-miterlimit="8" stroke-opacity="1" fill="none" fill-rule="evenodd" transform="matrix(1 0 0 -1 1638.5 1705.89)"/><path d="M0 0 375.253 368.392" stroke="#E8E8E8" stroke-width="6.875" stroke-linecap="butt" stroke-linejoin="miter" stroke-miterlimit="8" stroke-opacity="1" fill="none" fill-rule="evenodd" transform="matrix(1 0 0 -1 1638.5 1705.89)"/><path d="M2013.75 1705.89 1638.5 1337.5" stroke="#E8E8E8" stroke-width="6.875" stroke-linecap="butt" stroke-linejoin="miter" stroke-miterlimit="8" stroke-opacity="1" fill="none" fill-rule="evenodd"/><path d="M2202.13 1705.89 2014.5 1337.5" stroke="#E8E8E8" stroke-width="6.875" stroke-linecap="butt" stroke-linejoin="miter" stroke-miterlimit="8" stroke-opacity="1" fill="none" fill-rule="evenodd"/><path d="M0 0 0.000360892 368.392" stroke="#000000" stroke-width="6.875" stroke-linecap="butt" stroke-linejoin="miter" stroke-miterlimit="8" stroke-opacity="1" fill="none" fill-rule="evenodd" transform="matrix(1 0 0 -1 2201.5 1705.89)"/><text fill="#000000" fill-opacity="1" font-family="Consolas,Consolas_MSFontService,sans-serif" font-style="normal" font-variant="normal" font-weight="400" font-stretch="normal" font-size="83" text-anchor="start" direction="ltr" writing-mode="lr-tb" unicode-bidi="normal" text-decoration="none" transform="matrix(1 0 0 1 1405.49 1302)">Y</text><text fill="#000000" fill-opacity="1" font-family="Consolas,Consolas_MSFontService,sans-serif" font-style="normal" font-variant="normal" font-weight="400" font-stretch="normal" font-size="83" text-anchor="start" direction="ltr" writing-mode="lr-tb" unicode-bidi="normal" text-decoration="none" transform="matrix(1 0 0 1 1405.49 1797)">X</text><path d="M0 0 562.88 368.392" stroke="#E8E8E8" stroke-width="6.875" stroke-linecap="butt" stroke-linejoin="miter" stroke-miterlimit="8" stroke-opacity="1" fill="none" fill-rule="evenodd" transform="matrix(1 0 0 -1 1638.5 1705.89)"/><path d="M0 0 0.000360892 368.392" stroke="#E8E8E8" stroke-width="6.875" stroke-linecap="butt" stroke-linejoin="miter" stroke-miterlimit="8" stroke-opacity="1" fill="none" fill-rule="evenodd" transform="matrix(1 0 0 -1 1826.5 1705.89)"/><path d="M0 0 187.627 368.392" stroke="#E8E8E8" stroke-width="6.875" stroke-linecap="butt" stroke-linejoin="miter" stroke-miterlimit="8" stroke-opacity="1" fill="none" fill-rule="evenodd" transform="matrix(1 0 0 -1 1826.5 1705.89)"/><path d="M0 0 0.000360892 368.392" stroke="#E8E8E8" stroke-width="6.875" stroke-linecap="butt" stroke-linejoin="miter" stroke-miterlimit="8" stroke-opacity="1" fill="none" fill-rule="evenodd" transform="matrix(1 0 0 -1 2014.5 1705.89)"/><path d="M1826.13 1705.89 1638.5 1337.5" stroke="#000000" stroke-width="6.875" stroke-linecap="butt" stroke-linejoin="miter" stroke-miterlimit="8" stroke-opacity="1" fill="none" fill-rule="evenodd"/><path d="M0 0 375.254 368.392" stroke="#E8E8E8" stroke-width="6.875" stroke-linecap="butt" stroke-linejoin="miter" stroke-miterlimit="8" stroke-opacity="1" fill="none" fill-rule="evenodd" transform="matrix(1 0 0 -1 1826.5 1705.89)"/><path d="M0 0 187.627 368.392" stroke="#E8E8E8" stroke-width="6.875" stroke-linecap="butt" stroke-linejoin="miter" stroke-miterlimit="8" stroke-opacity="1" fill="none" fill-rule="evenodd" transform="matrix(1 0 0 -1 2014.5 1705.89)"/><path d="M2201.38 1705.89 1638.5 1337.5" stroke="#E8E8E8" stroke-width="6.875" stroke-linecap="butt" stroke-linejoin="miter" stroke-miterlimit="8" stroke-opacity="1" fill="none" fill-rule="evenodd"/><path d="M0 0 187.627 368.392" stroke="#000000" stroke-width="6.875" stroke-linecap="butt" stroke-linejoin="miter" stroke-miterlimit="8" stroke-opacity="1" fill="none" fill-rule="evenodd" transform="matrix(1 0 0 -1 1638.5 1705.89)"/><text fill="#000000" fill-opacity="1" font-family="DengXian,DengXian_MSFontService,sans-serif" font-style="normal" font-variant="normal" font-weight="400" font-stretch="normal" font-size="83" text-anchor="start" direction="ltr" writing-mode="lr-tb" unicode-bidi="normal" text-decoration="none" transform="matrix(1 0 0 1 1746.11 1413)">5</text><text fill="#000000" fill-opacity="1" font-family="DengXian,DengXian_MSFontService,sans-serif" font-style="normal" font-variant="normal" font-weight="400" font-stretch="normal" font-size="83" text-anchor="start" direction="ltr" writing-mode="lr-tb" unicode-bidi="normal" text-decoration="none" transform="matrix(1 0 0 1 2213.23 1530)">3</text><text fill="#000000" fill-opacity="1" font-family="DengXian,DengXian_MSFontService,sans-serif" font-style="normal" font-variant="normal" font-weight="400" font-stretch="normal" font-size="83" text-anchor="start" direction="ltr" writing-mode="lr-tb" unicode-bidi="normal" text-decoration="none" transform="matrix(1 0 0 1 1801.11 1643)">2</text><path d="M2201.75 1705.89 1826.5 1337.5" stroke="#E8E8E8" stroke-width="6.875" stroke-linecap="butt" stroke-linejoin="miter" stroke-miterlimit="8" stroke-opacity="1" fill="none" fill-rule="evenodd"/><path d="M2014.13 1705.89 1826.5 1337.5" stroke="#000000" stroke-width="6.875" stroke-linecap="butt" stroke-linejoin="miter" stroke-miterlimit="8" stroke-opacity="1" fill="none" fill-rule="evenodd"/><text fill="#000000" fill-opacity="1" font-family="DengXian,DengXian_MSFontService,sans-serif" font-style="normal" font-variant="normal" font-weight="400" font-stretch="normal" font-size="83" text-anchor="start" direction="ltr" writing-mode="lr-tb" unicode-bidi="normal" text-decoration="none" transform="matrix(1 0 0 1 1922.33 1518)">4</text><path d="M415.5 1771C415.5 1735.38 444.602 1706.5 480.5 1706.5 516.399 1706.5 545.5 1735.38 545.5 1771 545.5 1806.62 516.399 1835.5 480.5 1835.5 444.602 1835.5 415.5 1806.62 415.5 1771Z" stroke="#000000" stroke-width="6.875" stroke-linecap="butt" stroke-linejoin="miter" stroke-miterlimit="8" stroke-opacity="1" fill="#FFFFFF" fill-rule="evenodd" fill-opacity="1"/><text fill="#000000" fill-opacity="1" font-family="DengXian,DengXian_MSFontService,sans-serif" font-style="normal" font-variant="normal" font-weight="400" font-stretch="normal" font-size="83" text-anchor="start" direction="ltr" writing-mode="lr-tb" unicode-bidi="normal" text-decoration="none" transform="matrix(1 0 0 1 457.978 1798)">1</text><path d="M602.5 1771C602.5 1735.38 631.602 1706.5 667.5 1706.5 703.399 1706.5 732.5 1735.38 732.5 1771 732.5 1806.62 703.399 1835.5 667.5 1835.5 631.602 1835.5 602.5 1806.62 602.5 1771Z" stroke="#000000" stroke-width="6.875" stroke-linecap="butt" stroke-linejoin="miter" stroke-miterlimit="8" stroke-opacity="1" fill="#FFFFFF" fill-rule="evenodd" fill-opacity="1"/><text fill="#000000" fill-opacity="1" font-family="DengXian,DengXian_MSFontService,sans-serif" font-style="normal" font-variant="normal" font-weight="400" font-stretch="normal" font-size="83" text-anchor="start" direction="ltr" writing-mode="lr-tb" unicode-bidi="normal" text-decoration="none" transform="matrix(1 0 0 1 645.604 1798)">2</text><path d="M790.5 1771C790.5 1735.38 819.602 1706.5 855.5 1706.5 891.399 1706.5 920.5 1735.38 920.5 1771 920.5 1806.62 891.399 1835.5 855.5 1835.5 819.602 1835.5 790.5 1806.62 790.5 1771Z" stroke="#000000" stroke-width="6.875" stroke-linecap="butt" stroke-linejoin="miter" stroke-miterlimit="8" stroke-opacity="1" fill="#FFFFFF" fill-rule="evenodd" fill-opacity="1"/><text fill="#000000" fill-opacity="1" font-family="DengXian,DengXian_MSFontService,sans-serif" font-style="normal" font-variant="normal" font-weight="400" font-stretch="normal" font-size="83" text-anchor="start" direction="ltr" writing-mode="lr-tb" unicode-bidi="normal" text-decoration="none" transform="matrix(1 0 0 1 833.231 1798)">3</text><path d="M978.5 1771C978.5 1735.38 1007.6 1706.5 1043.5 1706.5 1079.4 1706.5 1108.5 1735.38 1108.5 1771 1108.5 1806.62 1079.4 1835.5 1043.5 1835.5 1007.6 1835.5 978.5 1806.62 978.5 1771Z" stroke="#000000" stroke-width="6.875" stroke-linecap="butt" stroke-linejoin="miter" stroke-miterlimit="8" stroke-opacity="1" fill="#FFFFFF" fill-rule="evenodd" fill-opacity="1"/><text fill="#000000" fill-opacity="1" font-family="DengXian,DengXian_MSFontService,sans-serif" font-style="normal" font-variant="normal" font-weight="400" font-stretch="normal" font-size="83" text-anchor="start" direction="ltr" writing-mode="lr-tb" unicode-bidi="normal" text-decoration="none" transform="matrix(1 0 0 1 1020.86 1798)">4</text><path d="M415.5 1272.5C415.5 1236.6 444.602 1207.5 480.5 1207.5 516.399 1207.5 545.5 1236.6 545.5 1272.5 545.5 1308.4 516.399 1337.5 480.5 1337.5 444.602 1337.5 415.5 1308.4 415.5 1272.5Z" stroke="#000000" stroke-width="6.875" stroke-linecap="butt" stroke-linejoin="miter" stroke-miterlimit="8" stroke-opacity="1" fill="#FFFFFF" fill-rule="evenodd" fill-opacity="1"/><text fill="#000000" fill-opacity="1" font-family="DengXian,DengXian_MSFontService,sans-serif" font-style="normal" font-variant="normal" font-weight="400" font-stretch="normal" font-size="83" text-anchor="start" direction="ltr" writing-mode="lr-tb" unicode-bidi="normal" text-decoration="none" transform="matrix(1 0 0 1 457.978 1300)">5</text><path d="M602.5 1272.5C602.5 1236.6 631.602 1207.5 667.5 1207.5 703.399 1207.5 732.5 1236.6 732.5 1272.5 732.5 1308.4 703.399 1337.5 667.5 1337.5 631.602 1337.5 602.5 1308.4 602.5 1272.5Z" stroke="#000000" stroke-width="6.875" stroke-linecap="butt" stroke-linejoin="miter" stroke-miterlimit="8" stroke-opacity="1" fill="#FFFFFF" fill-rule="evenodd" fill-opacity="1"/><text fill="#000000" fill-opacity="1" font-family="DengXian,DengXian_MSFontService,sans-serif" font-style="normal" font-variant="normal" font-weight="400" font-stretch="normal" font-size="83" text-anchor="start" direction="ltr" writing-mode="lr-tb" unicode-bidi="normal" text-decoration="none" transform="matrix(1 0 0 1 645.605 1300)">6</text><path d="M790.5 1272.5C790.5 1236.6 819.602 1207.5 855.5 1207.5 891.399 1207.5 920.5 1236.6 920.5 1272.5 920.5 1308.4 891.399 1337.5 855.5 1337.5 819.602 1337.5 790.5 1308.4 790.5 1272.5Z" stroke="#000000" stroke-width="6.875" stroke-linecap="butt" stroke-linejoin="miter" stroke-miterlimit="8" stroke-opacity="1" fill="#FFFFFF" fill-rule="evenodd" fill-opacity="1"/><text fill="#000000" fill-opacity="1" font-family="DengXian,DengXian_MSFontService,sans-serif" font-style="normal" font-variant="normal" font-weight="400" font-stretch="normal" font-size="83" text-anchor="start" direction="ltr" writing-mode="lr-tb" unicode-bidi="normal" text-decoration="none" transform="matrix(1 0 0 1 833.231 1300)">7</text><path d="M978.5 1272.5C978.5 1236.6 1007.6 1207.5 1043.5 1207.5 1079.4 1207.5 1108.5 1236.6 1108.5 1272.5 1108.5 1308.4 1079.4 1337.5 1043.5 1337.5 1007.6 1337.5 978.5 1308.4 978.5 1272.5Z" stroke="#000000" stroke-width="6.875" stroke-linecap="butt" stroke-linejoin="miter" stroke-miterlimit="8" stroke-opacity="1" fill="#FFFFFF" fill-rule="evenodd" fill-opacity="1"/><text fill="#000000" fill-opacity="1" font-family="DengXian,DengXian_MSFontService,sans-serif" font-style="normal" font-variant="normal" font-weight="400" font-stretch="normal" font-size="83" text-anchor="start" direction="ltr" writing-mode="lr-tb" unicode-bidi="normal" text-decoration="none" transform="matrix(1 0 0 1 1020.86 1300)">8</text><path d="M0 0 0.000360892 368.392" stroke="#000000" stroke-width="6.875" stroke-linecap="butt" stroke-linejoin="miter" stroke-miterlimit="8" stroke-opacity="1" fill="none" fill-rule="evenodd" transform="matrix(1 0 0 -1 480.5 1705.89)"/><path d="M0 0 375.253 368.392" stroke="#000000" stroke-width="6.875" stroke-linecap="butt" stroke-linejoin="miter" stroke-miterlimit="8" stroke-opacity="1" fill="none" fill-rule="evenodd" transform="matrix(1 0 0 -1 480.5 1705.89)"/><path d="M668.126 1705.89 480.5 1337.5" stroke="#000000" stroke-width="6.875" stroke-linecap="butt" stroke-linejoin="miter" stroke-miterlimit="8" stroke-opacity="1" fill="none" fill-rule="evenodd"/><path d="M855.753 1705.89 480.5 1337.5" stroke="#000000" stroke-width="6.875" stroke-linecap="butt" stroke-linejoin="miter" stroke-miterlimit="8" stroke-opacity="1" fill="none" fill-rule="evenodd"/><path d="M855.126 1705.89 667.5 1337.5" stroke="#000000" stroke-width="6.875" stroke-linecap="butt" stroke-linejoin="miter" stroke-miterlimit="8" stroke-opacity="1" fill="none" fill-rule="evenodd"/><path d="M1043.13 1705.89 855.5 1337.5" stroke="#000000" stroke-width="6.875" stroke-linecap="butt" stroke-linejoin="miter" stroke-miterlimit="8" stroke-opacity="1" fill="none" fill-rule="evenodd"/><path d="M0 0 0.000360892 368.392" stroke="#000000" stroke-width="6.875" stroke-linecap="butt" stroke-linejoin="miter" stroke-miterlimit="8" stroke-opacity="1" fill="none" fill-rule="evenodd" transform="matrix(1 0 0 -1 1043.5 1705.89)"/><text fill="#000000" fill-opacity="1" font-family="Consolas,Consolas_MSFontService,sans-serif" font-style="normal" font-variant="normal" font-weight="400" font-stretch="normal" font-size="83" text-anchor="start" direction="ltr" writing-mode="lr-tb" unicode-bidi="normal" text-decoration="none" transform="matrix(1 0 0 1 246.776 1302)">Y</text><text fill="#000000" fill-opacity="1" font-family="Consolas,Consolas_MSFontService,sans-serif" font-style="normal" font-variant="normal" font-weight="400" font-stretch="normal" font-size="83" text-anchor="start" direction="ltr" writing-mode="lr-tb" unicode-bidi="normal" text-decoration="none" transform="matrix(1 0 0 1 246.776 1797)">X</text><path d="M0 0 187.627 368.392" stroke="#000000" stroke-width="6.875" stroke-linecap="butt" stroke-linejoin="miter" stroke-miterlimit="8" stroke-opacity="1" fill="none" fill-rule="evenodd" transform="matrix(1 0 0 -1 480.5 1705.89)"/><path d="M0 0 562.88 368.392" stroke="#000000" stroke-width="6.875" stroke-linecap="butt" stroke-linejoin="miter" stroke-miterlimit="8" stroke-opacity="1" fill="none" fill-rule="evenodd" transform="matrix(1 0 0 -1 480.5 1705.89)"/><path d="M0 0 0.000360892 368.392" stroke="#000000" stroke-width="6.875" stroke-linecap="butt" stroke-linejoin="miter" stroke-miterlimit="8" stroke-opacity="1" fill="none" fill-rule="evenodd" transform="matrix(1 0 0 -1 667.5 1705.89)"/><path d="M0 0 187.627 368.392" stroke="#000000" stroke-width="6.875" stroke-linecap="butt" stroke-linejoin="miter" stroke-miterlimit="8" stroke-opacity="1" fill="none" fill-rule="evenodd" transform="matrix(1 0 0 -1 667.5 1705.89)"/><path d="M0 0 0.000360892 368.392" stroke="#000000" stroke-width="6.875" stroke-linecap="butt" stroke-linejoin="miter" stroke-miterlimit="8" stroke-opacity="1" fill="none" fill-rule="evenodd" transform="matrix(1 0 0 -1 855.5 1705.89)"/><path d="M0 0 187.627 368.392" stroke="#000000" stroke-width="6.875" stroke-linecap="butt" stroke-linejoin="miter" stroke-miterlimit="8" stroke-opacity="1" fill="none" fill-rule="evenodd" transform="matrix(1 0 0 -1 855.5 1705.89)"/><path d="M1042.75 1705.89 667.5 1337.5" stroke="#000000" stroke-width="6.875" stroke-linecap="butt" stroke-linejoin="miter" stroke-miterlimit="8" stroke-opacity="1" fill="none" fill-rule="evenodd"/><path d="M0 0 375.254 368.392" stroke="#000000" stroke-width="6.875" stroke-linecap="butt" stroke-linejoin="miter" stroke-miterlimit="8" stroke-opacity="1" fill="none" fill-rule="evenodd" transform="matrix(1 0 0 -1 667.5 1705.89)"/><path d="M1043.38 1705.89 480.5 1337.5" stroke="#000000" stroke-width="6.875" stroke-linecap="butt" stroke-linejoin="miter" stroke-miterlimit="8" stroke-opacity="1" fill="none" fill-rule="evenodd"/><text fill="#FF0000" fill-opacity="1" font-family="DengXian,DengXian_MSFontService,sans-serif" font-style="normal" font-variant="normal" font-weight="400" font-stretch="normal" font-size="83" text-anchor="start" direction="ltr" writing-mode="lr-tb" unicode-bidi="normal" text-decoration="none" transform="matrix(1 0 0 1 457.443 1918)">5</text><text fill="#FF0000" fill-opacity="1" font-family="DengXian,DengXian_MSFontService,sans-serif" font-style="normal" font-variant="normal" font-weight="400" font-stretch="normal" font-size="83" text-anchor="start" direction="ltr" writing-mode="lr-tb" unicode-bidi="normal" text-decoration="none" transform="matrix(1 0 0 1 644.63 1918)">2</text><text fill="#FF0000" fill-opacity="1" font-family="DengXian,DengXian_MSFontService,sans-serif" font-style="normal" font-variant="normal" font-weight="400" font-stretch="normal" font-size="83" text-anchor="start" direction="ltr" writing-mode="lr-tb" unicode-bidi="normal" text-decoration="none" transform="matrix(1 0 0 1 831.817 1918)">4</text><text fill="#FF0000" fill-opacity="1" font-family="DengXian,DengXian_MSFontService,sans-serif" font-style="normal" font-variant="normal" font-weight="400" font-stretch="normal" font-size="83" text-anchor="start" direction="ltr" writing-mode="lr-tb" unicode-bidi="normal" text-decoration="none" transform="matrix(1 0 0 1 1019 1918)">3</text><text fill="#FF0000" fill-opacity="1" font-family="DengXian,DengXian_MSFontService,sans-serif" font-style="normal" font-variant="normal" font-weight="400" font-stretch="normal" font-size="83" text-anchor="start" direction="ltr" writing-mode="lr-tb" unicode-bidi="normal" text-decoration="none" transform="matrix(1 0 0 1 457.443 1179)">0</text><text fill="#FF0000" fill-opacity="1" font-family="DengXian,DengXian_MSFontService,sans-serif" font-style="normal" font-variant="normal" font-weight="400" font-stretch="normal" font-size="83" text-anchor="start" direction="ltr" writing-mode="lr-tb" unicode-bidi="normal" text-decoration="none" transform="matrix(1 0 0 1 644.63 1179)">0</text><text fill="#FF0000" fill-opacity="1" font-family="DengXian,DengXian_MSFontService,sans-serif" font-style="normal" font-variant="normal" font-weight="400" font-stretch="normal" font-size="83" text-anchor="start" direction="ltr" writing-mode="lr-tb" unicode-bidi="normal" text-decoration="none" transform="matrix(1 0 0 1 831.818 1179)">0</text><text fill="#FF0000" fill-opacity="1" font-family="DengXian,DengXian_MSFontService,sans-serif" font-style="normal" font-variant="normal" font-weight="400" font-stretch="normal" font-size="83" text-anchor="start" direction="ltr" writing-mode="lr-tb" unicode-bidi="normal" text-decoration="none" transform="matrix(1 0 0 1 1019.01 1179)">0</text></g></g></svg>