<svg width="1581" height="816" xmlns="http://www.w3.org/2000/svg" xmlns:xlink="http://www.w3.org/1999/xlink" xml:space="preserve" overflow="hidden"><g transform="translate(-1026 -1489)"><g><path d="M1262.5 2195.5 2470.48 2195.5" stroke="#D1D1D1" stroke-width="6.875" stroke-linecap="butt" stroke-linejoin="miter" stroke-miterlimit="8" stroke-dasharray="27.5 20.625" stroke-opacity="1" fill="none" fill-rule="evenodd"/><path d="M1262.5 1678.5 2470.14 1680.53" stroke="#D1D1D1" stroke-width="6.875" stroke-linecap="butt" stroke-linejoin="miter" stroke-miterlimit="8" stroke-dasharray="27.5 20.625" stroke-opacity="1" fill="none" fill-rule="evenodd"/><path d="M0.00536144-3.4375 1414.69-1.23102 1414.68 5.64397-0.00536144 3.4375ZM1410.13-11.5506 1437.61 2.24222 1410.08 15.9493Z" fill="#000000" fill-rule="nonzero" fill-opacity="1" transform="matrix(1 0 0 -1 1141.5 1937.74)"/><path d="M3.4375-1.58595e-06 3.43785 759.305-3.43715 759.305-3.4375 1.58595e-06ZM13.7503 754.722 0.000360892 782.222-13.7497 754.722Z" fill="#000000" fill-rule="nonzero" fill-opacity="1" transform="matrix(1 0 0 -1 1262.5 2304.72)"/><text fill="#000000" fill-opacity="1" font-family="Times New Roman,Times New Roman_MSFontService,sans-serif" font-style="normal" font-variant="normal" font-weight="400" font-stretch="normal" font-size="64" text-anchor="start" direction="ltr" writing-mode="lr-tb" unicode-bidi="normal" text-decoration="none" transform="matrix(1 0 0 1 1189.11 1702)">x</text><text fill="#000000" fill-opacity="1" font-family="Times New Roman,Times New Roman_MSFontService,sans-serif" font-style="normal" font-variant="normal" font-weight="400" font-stretch="normal" font-size="64" text-anchor="start" direction="ltr" writing-mode="lr-tb" unicode-bidi="normal" text-decoration="none" transform="matrix(1 0 0 1 1189 2015)">0</text><rect x="2294.5" y="1871.5" width="109" height="65" stroke="#042433" stroke-width="6.875" stroke-linecap="butt" stroke-linejoin="miter" stroke-miterlimit="8" stroke-opacity="1" fill="#D9F2D0" fill-opacity="1"/><rect x="1990.5" y="1818.5" width="108" height="117" stroke="#042433" stroke-width="6.875" stroke-linecap="butt" stroke-linejoin="miter" stroke-miterlimit="8" stroke-opacity="1" fill="#84E291" fill-opacity="1"/><rect x="2144.5" y="1859.5" width="109" height="78" stroke="#042433" stroke-width="6.875" stroke-linecap="butt" stroke-linejoin="miter" stroke-miterlimit="8" stroke-opacity="1" fill="#8ED973" fill-opacity="1"/><text fill="#000000" fill-opacity="1" font-family="DengXian,DengXian_MSFontService,sans-serif" font-style="normal" font-variant="normal" font-weight="400" font-stretch="normal" font-size="64" text-anchor="start" direction="ltr" writing-mode="lr-tb" unicode-bidi="normal" text-decoration="none" transform="matrix(1 0 0 1 1448.65 1861)">正类</text><rect x="0" y="0" width="109" height="117" stroke="#042433" stroke-width="6.875" stroke-linecap="square" stroke-linejoin="miter" stroke-miterlimit="8" stroke-dasharray="20.625 6.875" stroke-opacity="1" fill="#84E291" fill-opacity="1" transform="matrix(1 0 0 -1 1816.5 1937.5)"/><rect x="0" y="0" width="109" height="78" stroke="#042433" stroke-width="6.875" stroke-linecap="square" stroke-linejoin="miter" stroke-miterlimit="8" stroke-dasharray="20.625 6.875" stroke-opacity="1" fill="#8ED973" fill-opacity="1" transform="matrix(1 0 0 -1 1816.5 1820.5)"/><rect x="0" y="0" width="109" height="65" stroke="#042433" stroke-width="6.875" stroke-linecap="square" stroke-linejoin="miter" stroke-miterlimit="8" stroke-dasharray="20.625 6.875" stroke-opacity="1" fill="#D9F2D0" fill-opacity="1" transform="matrix(1 0 0 -1 1816.5 1745.5)"/><text fill="#000000" fill-opacity="1" font-family="Times New Roman,Times New Roman_MSFontService,sans-serif" font-style="normal" font-variant="normal" font-weight="400" font-stretch="normal" font-size="64" text-anchor="start" direction="ltr" writing-mode="lr-tb" unicode-bidi="normal" text-decoration="none" transform="matrix(1 0 0 1 1188.77 2219)">-</text><text fill="#000000" fill-opacity="1" font-family="Times New Roman,Times New Roman_MSFontService,sans-serif" font-style="normal" font-variant="normal" font-weight="400" font-stretch="normal" font-size="64" text-anchor="start" direction="ltr" writing-mode="lr-tb" unicode-bidi="normal" text-decoration="none" transform="matrix(1 0 0 1 1209.97 2219)">x</text><text fill="#000000" fill-opacity="1" font-family="DengXian,DengXian_MSFontService,sans-serif" font-style="normal" font-variant="normal" font-weight="400" font-stretch="normal" font-size="64" text-anchor="start" direction="ltr" writing-mode="lr-tb" unicode-bidi="normal" text-decoration="none" transform="matrix(1 0 0 1 2089.47 2053)">负类</text><text fill="#000000" fill-opacity="1" font-family="Times New Roman,Times New Roman_MSFontService,sans-serif" font-style="normal" font-variant="normal" font-weight="400" font-stretch="normal" font-size="64" text-anchor="start" direction="ltr" writing-mode="lr-tb" unicode-bidi="normal" text-decoration="none" transform="matrix(-1.83697e-16 -1 1 -1.83697e-16 1109.66 2125)">circle</text><text fill="#000000" fill-opacity="1" font-family="Times New Roman,Times New Roman_MSFontService,sans-serif" font-style="normal" font-variant="normal" font-weight="400" font-stretch="normal" font-size="64" text-anchor="start" direction="ltr" writing-mode="lr-tb" unicode-bidi="normal" text-decoration="none" transform="matrix(-1.83697e-16 -1 1 -1.83697e-16 1109.66 1966)">loss</text><text fill="#000000" fill-opacity="1" font-family="DengXian,DengXian_MSFontService,sans-serif" font-style="normal" font-variant="normal" font-weight="400" font-stretch="normal" font-size="64" text-anchor="start" direction="ltr" writing-mode="lr-tb" unicode-bidi="normal" text-decoration="none" transform="matrix(-1.83697e-16 -1 1 -1.83697e-16 1109.66 1866)">梯度</text><rect x="0" y="0" width="109" height="52.0003" stroke="#042433" stroke-width="6.875" stroke-linecap="butt" stroke-linejoin="miter" stroke-miterlimit="8" stroke-opacity="1" fill="#BFCBD9" fill-opacity="1" transform="matrix(1 0 0 -1 1653.5 1989.5)"/><rect x="0" y="0" width="109" height="103" stroke="#042433" stroke-width="6.875" stroke-linecap="butt" stroke-linejoin="miter" stroke-miterlimit="8" stroke-opacity="1" fill="#61CBF4" fill-opacity="1" transform="matrix(1 0 0 -1 1356.5 2040.5)"/><rect x="0" y="0" width="109" height="104" stroke="#042433" stroke-width="6.875" stroke-linecap="butt" stroke-linejoin="miter" stroke-miterlimit="8" stroke-opacity="1" fill="#C1E5F5" fill-opacity="1" transform="matrix(1 0 0 -1 1508.5 2041.5)"/><rect x="0" y="0" width="109" height="103" stroke="#042433" stroke-width="6.875" stroke-linecap="square" stroke-linejoin="miter" stroke-miterlimit="8" stroke-dasharray="20.625 6.875" stroke-opacity="1" fill="#61CBF4" fill-opacity="1" transform="matrix(1 0 0 -1 1816.5 2040.5)"/><rect x="0" y="0" width="109" height="104" stroke="#042433" stroke-width="6.875" stroke-linecap="square" stroke-linejoin="miter" stroke-miterlimit="8" stroke-dasharray="20.625 6.875" stroke-opacity="1" fill="#C1E5F5" fill-opacity="1" transform="matrix(1 0 0 -1 1816.5 2144.5)"/><rect x="0" y="0" width="109" height="51.9999" stroke="#042433" stroke-width="6.875" stroke-linecap="square" stroke-linejoin="miter" stroke-miterlimit="8" stroke-dasharray="20.625 6.875" stroke-opacity="1" fill="#BFCBD9" fill-opacity="1" transform="matrix(1 0 0 -1 1816.5 2195.5)"/></g></g></svg>