<svg width="2714" height="899" xmlns="http://www.w3.org/2000/svg" xmlns:xlink="http://www.w3.org/1999/xlink" xml:space="preserve" overflow="hidden"><g transform="translate(-531 -366)"><g><rect x="0" y="0" width="109" height="117" stroke="#042433" stroke-width="6.875" stroke-linecap="butt" stroke-linejoin="miter" stroke-miterlimit="8" stroke-opacity="1" fill="#FF373D" fill-opacity="0.8" transform="matrix(1 0 0 -1 2344.5 661.5)"/><rect x="0" y="0" width="109" height="78" stroke="#042433" stroke-width="6.875" stroke-linecap="butt" stroke-linejoin="miter" stroke-miterlimit="8" stroke-opacity="1" fill="#FF373D" fill-opacity="0.8" transform="matrix(1 0 0 -1 2344.5 929.5)"/><rect x="0" y="0" width="109" height="65" stroke="#042433" stroke-width="6.875" stroke-linecap="butt" stroke-linejoin="miter" stroke-miterlimit="8" stroke-opacity="1" fill="#FF373D" fill-opacity="0.8" transform="matrix(1 0 0 -1 2344.5 1234.5)"/><path d="M770.5 1114.5 1634.2 1114.5" stroke="#D1D1D1" stroke-width="6.875" stroke-linecap="butt" stroke-linejoin="miter" stroke-miterlimit="8" stroke-dasharray="27.5 20.625" stroke-opacity="1" fill="none" fill-rule="evenodd"/><path d="M770.5 597.5 1634.2 597.5" stroke="#D1D1D1" stroke-width="6.875" stroke-linecap="butt" stroke-linejoin="miter" stroke-miterlimit="8" stroke-dasharray="27.5 20.625" stroke-opacity="1" fill="none" fill-rule="evenodd"/><path d="M649.5 853.063 1738.81 853.063 1738.81 859.938 649.5 859.938ZM1734.22 842.75 1761.72 856.5 1734.22 870.25Z" fill="#000000" fill-rule="nonzero" fill-opacity="1"/><path d="M3.4375-1.58595e-06 3.43785 759.305-3.43715 759.305-3.4375 1.58595e-06ZM13.7503 754.722 0.000360892 782.222-13.7497 754.722Z" fill="#000000" fill-rule="nonzero" fill-opacity="1" transform="matrix(1 0 0 -1 770.5 1223.72)"/><text fill="#000000" fill-opacity="1" font-family="Times New Roman,Times New Roman_MSFontService,sans-serif" font-style="normal" font-variant="normal" font-weight="400" font-stretch="normal" font-size="64" text-anchor="start" direction="ltr" writing-mode="lr-tb" unicode-bidi="normal" text-decoration="none" transform="matrix(1 0 0 1 653.398 628)">1</text><text fill="#000000" fill-opacity="1" font-family="Times New Roman,Times New Roman_MSFontService,sans-serif" font-style="normal" font-variant="normal" font-weight="400" font-stretch="normal" font-size="64" text-anchor="start" direction="ltr" writing-mode="lr-tb" unicode-bidi="normal" text-decoration="none" transform="matrix(1 0 0 1 685.482 628)">-</text><text fill="#000000" fill-opacity="1" font-family="Times New Roman,Times New Roman_MSFontService,sans-serif" font-style="normal" font-variant="normal" font-weight="400" font-stretch="normal" font-size="64" text-anchor="start" direction="ltr" writing-mode="lr-tb" unicode-bidi="normal" text-decoration="none" transform="matrix(1 0 0 1 706.679 628)">p</text><text fill="#000000" fill-opacity="1" font-family="Times New Roman,Times New Roman_MSFontService,sans-serif" font-style="normal" font-variant="normal" font-weight="400" font-stretch="normal" font-size="64" text-anchor="start" direction="ltr" writing-mode="lr-tb" unicode-bidi="normal" text-decoration="none" transform="matrix(1 0 0 1 696.91 935)">0</text><rect x="1368.5" y="790.5" width="108" height="64.9999" stroke="#042433" stroke-width="6.875" stroke-linecap="butt" stroke-linejoin="miter" stroke-miterlimit="8" stroke-opacity="1" fill="#4E95D9" fill-opacity="1"/><rect x="1063.5" y="737.5" width="109" height="117" stroke="#042433" stroke-width="6.875" stroke-linecap="butt" stroke-linejoin="miter" stroke-miterlimit="8" stroke-opacity="1" fill="#FBE3D6" fill-opacity="1"/><rect x="1217.5" y="779.5" width="109" height="78.0001" stroke="#042433" stroke-width="6.875" stroke-linecap="butt" stroke-linejoin="miter" stroke-miterlimit="8" stroke-opacity="1" fill="#C2F1C8" fill-opacity="1"/><text fill="#000000" fill-opacity="1" font-family="DengXian,DengXian_MSFontService,sans-serif" font-style="normal" font-variant="normal" font-weight="400" font-stretch="normal" font-size="64" text-anchor="start" direction="ltr" writing-mode="lr-tb" unicode-bidi="normal" text-decoration="none" transform="matrix(1 0 0 1 856.046 1203)">目标类</text><rect x="0" y="0" width="109" height="117" stroke="#042433" stroke-width="6.875" stroke-linecap="square" stroke-linejoin="miter" stroke-miterlimit="8" stroke-dasharray="20.625 6.875" stroke-opacity="1" fill="#FBE3D6" fill-opacity="1" transform="matrix(1 0 0 -1 889.5 857.5)"/><rect x="0" y="0" width="109" height="78" stroke="#042433" stroke-width="6.875" stroke-linecap="square" stroke-linejoin="miter" stroke-miterlimit="8" stroke-dasharray="20.625 6.875" stroke-opacity="1" fill="#C2F1C8" fill-opacity="1" transform="matrix(1 0 0 -1 889.5 740.5)"/><rect x="0" y="0" width="109" height="65" stroke="#042433" stroke-width="6.875" stroke-linecap="square" stroke-linejoin="miter" stroke-miterlimit="8" stroke-dasharray="20.625 6.875" stroke-opacity="1" fill="#4E95D9" fill-opacity="1" transform="matrix(1 0 0 -1 889.5 664.5)"/><text fill="#000000" fill-opacity="1" font-family="Times New Roman,Times New Roman_MSFontService,sans-serif" font-style="normal" font-variant="normal" font-weight="400" font-stretch="normal" font-size="64" text-anchor="start" direction="ltr" writing-mode="lr-tb" unicode-bidi="normal" text-decoration="none" transform="matrix(1 0 0 1 653.398 1139)">p</text><text fill="#000000" fill-opacity="1" font-family="Times New Roman,Times New Roman_MSFontService,sans-serif" font-style="normal" font-variant="normal" font-weight="400" font-stretch="normal" font-size="64" text-anchor="start" direction="ltr" writing-mode="lr-tb" unicode-bidi="normal" text-decoration="none" transform="matrix(1 0 0 1 685.482 1139)">-</text><text fill="#000000" fill-opacity="1" font-family="Times New Roman,Times New Roman_MSFontService,sans-serif" font-style="normal" font-variant="normal" font-weight="400" font-stretch="normal" font-size="64" text-anchor="start" direction="ltr" writing-mode="lr-tb" unicode-bidi="normal" text-decoration="none" transform="matrix(1 0 0 1 706.679 1139)">1</text><text fill="#000000" fill-opacity="1" font-family="DengXian,DengXian_MSFontService,sans-serif" font-style="normal" font-variant="normal" font-weight="400" font-stretch="normal" font-size="64" text-anchor="start" direction="ltr" writing-mode="lr-tb" unicode-bidi="normal" text-decoration="none" transform="matrix(1 0 0 1 1173.97 967)">负类</text><text fill="#000000" fill-opacity="1" font-family="Times New Roman,Times New Roman_MSFontService,sans-serif" font-style="normal" font-variant="normal" font-weight="400" font-stretch="normal" font-size="64" text-anchor="start" direction="ltr" writing-mode="lr-tb" unicode-bidi="normal" text-decoration="none" transform="matrix(-1.83697e-16 -1 1 -1.83697e-16 617.573 1018)">softmax</text><text fill="#000000" fill-opacity="1" font-family="DengXian,DengXian_MSFontService,sans-serif" font-style="normal" font-variant="normal" font-weight="400" font-stretch="normal" font-size="64" text-anchor="start" direction="ltr" writing-mode="lr-tb" unicode-bidi="normal" text-decoration="none" transform="matrix(-1.83697e-16 -1 1 -1.83697e-16 617.573 812)">梯度</text><rect x="889.5" y="854.5" width="109" height="260" stroke="#042433" stroke-width="6.875" stroke-linecap="butt" stroke-linejoin="miter" stroke-miterlimit="8" stroke-opacity="1" fill="#FF5254" fill-opacity="0.8"/><path d="M2104.5 542.063 3193.81 542.063 3193.81 548.938 2104.5 548.938ZM3189.22 531.75 3216.72 545.5 3189.22 559.25Z" fill="#000000" fill-rule="nonzero" fill-opacity="1"/><path d="M3.4375-5.20906e-06 3.43783 215.239-3.43717 215.239-3.4375 5.20906e-06ZM13.7503 210.656 0.000360892 238.156-13.7497 210.656Z" fill="#000000" fill-rule="nonzero" fill-opacity="1" transform="matrix(1 0 0 -1 2228.5 636.656)"/><rect x="2518.5" y="426.5" width="109" height="117" stroke="#042433" stroke-width="6.875" stroke-linecap="butt" stroke-linejoin="miter" stroke-miterlimit="8" stroke-opacity="1" fill="#FBE3D6" fill-opacity="1"/><path d="M2104.5 849.062 3193.81 849.063 3193.81 855.938 2104.5 855.938ZM3189.22 838.75 3216.72 852.5 3189.22 866.25Z" fill="#000000" fill-rule="nonzero" fill-opacity="1"/><path d="M3.4375-5.21386e-06 3.43783 215.02-3.43717 215.02-3.4375 5.21386e-06ZM13.7503 210.436 0.000360892 237.936-13.7497 210.436Z" fill="#000000" fill-rule="nonzero" fill-opacity="1" transform="matrix(1 0 0 -1 2228.5 943.436)"/><rect x="2672.5" y="774.5" width="109" height="78.0001" stroke="#042433" stroke-width="6.875" stroke-linecap="butt" stroke-linejoin="miter" stroke-miterlimit="8" stroke-opacity="1" fill="#C2F1C8" fill-opacity="1"/><path d="M3.4375-5.25748e-06 3.43783 213.046-3.43717 213.046-3.4375 5.25748e-06ZM13.7503 208.462 0.000360892 235.962-13.7497 208.462Z" fill="#000000" fill-rule="nonzero" fill-opacity="1" transform="matrix(1 0 0 -1 2228.5 1261.46)"/><rect x="2822.5" y="1104.5" width="109" height="65" stroke="#042433" stroke-width="6.875" stroke-linecap="butt" stroke-linejoin="miter" stroke-miterlimit="8" stroke-opacity="1" fill="#4E95D9" fill-opacity="1"/><path d="M2104.5 1166.06 3193.81 1166.06 3193.81 1172.94 2104.5 1172.94ZM3189.22 1155.75 3216.72 1169.5 3189.22 1183.25Z" fill="#000000" fill-rule="nonzero" fill-opacity="1"/><text fill="#000000" fill-opacity="1" font-family="DengXian,DengXian_MSFontService,sans-serif" font-style="normal" font-variant="normal" font-weight="400" font-stretch="normal" font-size="83" text-anchor="start" direction="ltr" writing-mode="lr-tb" unicode-bidi="normal" text-decoration="none" transform="matrix(1 0 0 1 2659.59 1041)">+</text><text fill="#000000" fill-opacity="1" font-family="DengXian,DengXian_MSFontService,sans-serif" font-style="normal" font-variant="normal" font-weight="400" font-stretch="normal" font-size="83" text-anchor="start" direction="ltr" writing-mode="lr-tb" unicode-bidi="normal" text-decoration="none" transform="matrix(1 0 0 1 2659.59 701)">+</text><text fill="#000000" fill-opacity="1" font-family="DengXian,DengXian_MSFontService,sans-serif" font-style="normal" font-variant="normal" font-weight="400" font-stretch="normal" font-size="83" text-anchor="start" direction="ltr" writing-mode="lr-tb" unicode-bidi="normal" text-decoration="none" transform="matrix(1 0 0 1 1919.81 871)">=</text></g></g></svg>