<svg width="2714" height="899" xmlns="http://www.w3.org/2000/svg" xmlns:xlink="http://www.w3.org/1999/xlink" xml:space="preserve" overflow="hidden"><g transform="translate(-540 -705)"><g><rect x="0" y="0" width="109" height="117" stroke="#042433" stroke-width="6.875" stroke-linecap="butt" stroke-linejoin="miter" stroke-miterlimit="8" stroke-opacity="1" fill="#FF373D" fill-opacity="0.8" transform="matrix(1 0 0 -1 2350.5 999.5)"/><rect x="0" y="0" width="109" height="78" stroke="#042433" stroke-width="6.875" stroke-linecap="butt" stroke-linejoin="miter" stroke-miterlimit="8" stroke-opacity="1" fill="#FF373D" fill-opacity="0.8" transform="matrix(1 0 0 -1 2350.5 1267.5)"/><rect x="0" y="0" width="109" height="65.0003" stroke="#042433" stroke-width="6.875" stroke-linecap="butt" stroke-linejoin="miter" stroke-miterlimit="8" stroke-opacity="1" fill="#FF373D" fill-opacity="0.8" transform="matrix(1 0 0 -1 2350.5 1572.5)"/><path d="M776.5 1452.5 1640.2 1452.5" stroke="#D1D1D1" stroke-width="6.875" stroke-linecap="butt" stroke-linejoin="miter" stroke-miterlimit="8" stroke-dasharray="27.5 20.625" stroke-opacity="1" fill="none" fill-rule="evenodd"/><path d="M777.5 935.5 1641.2 935.5" stroke="#D1D1D1" stroke-width="6.875" stroke-linecap="butt" stroke-linejoin="miter" stroke-miterlimit="8" stroke-dasharray="27.5 20.625" stroke-opacity="1" fill="none" fill-rule="evenodd"/><path d="M655.5 1192.06 1744.81 1192.06 1744.81 1198.94 655.5 1198.94ZM1740.22 1181.75 1767.72 1195.5 1740.22 1209.25Z" fill="#000000" fill-rule="nonzero" fill-opacity="1"/><path d="M3.4375-1.58595e-06 3.43785 759.305-3.43715 759.305-3.4375 1.58595e-06ZM13.7503 754.722 0.000360892 782.222-13.7497 754.722Z" fill="#000000" fill-rule="nonzero" fill-opacity="1" transform="matrix(1 0 0 -1 777.5 1561.72)"/><text fill="#000000" fill-opacity="1" font-family="Times New Roman,Times New Roman_MSFontService,sans-serif" font-style="normal" font-variant="normal" font-weight="400" font-stretch="normal" font-size="64" text-anchor="start" direction="ltr" writing-mode="lr-tb" unicode-bidi="normal" text-decoration="none" transform="matrix(1 0 0 1 703.616 959)">1</text><text fill="#000000" fill-opacity="1" font-family="Times New Roman,Times New Roman_MSFontService,sans-serif" font-style="normal" font-variant="normal" font-weight="400" font-stretch="normal" font-size="64" text-anchor="start" direction="ltr" writing-mode="lr-tb" unicode-bidi="normal" text-decoration="none" transform="matrix(1 0 0 1 703.51 1273)">0</text><rect x="1374.5" y="1128.5" width="109" height="65" stroke="#042433" stroke-width="6.875" stroke-linecap="butt" stroke-linejoin="miter" stroke-miterlimit="8" stroke-opacity="1" fill="#4E95D9" fill-opacity="1"/><rect x="1069.5" y="1075.5" width="109" height="117" stroke="#042433" stroke-width="6.875" stroke-linecap="butt" stroke-linejoin="miter" stroke-miterlimit="8" stroke-opacity="1" fill="#FBE3D6" fill-opacity="1"/><rect x="1224.5" y="1117.5" width="109" height="78" stroke="#042433" stroke-width="6.875" stroke-linecap="butt" stroke-linejoin="miter" stroke-miterlimit="8" stroke-opacity="1" fill="#C2F1C8" fill-opacity="1"/><text fill="#000000" fill-opacity="1" font-family="DengXian,DengXian_MSFontService,sans-serif" font-style="normal" font-variant="normal" font-weight="400" font-stretch="normal" font-size="64" text-anchor="start" direction="ltr" writing-mode="lr-tb" unicode-bidi="normal" text-decoration="none" transform="matrix(1 0 0 1 862.646 1541)">目标类</text><rect x="0" y="0" width="109" height="117" stroke="#042433" stroke-width="6.875" stroke-linecap="square" stroke-linejoin="miter" stroke-miterlimit="8" stroke-dasharray="20.625 6.875" stroke-opacity="1" fill="#FBE3D6" fill-opacity="1" transform="matrix(1 0 0 -1 896.5 1195.5)"/><rect x="0" y="0" width="109" height="77.9997" stroke="#042433" stroke-width="6.875" stroke-linecap="square" stroke-linejoin="miter" stroke-miterlimit="8" stroke-dasharray="20.625 6.875" stroke-opacity="1" fill="#C2F1C8" fill-opacity="1" transform="matrix(1 0 0 -1 896.5 1078.5)"/><rect x="0" y="0" width="109" height="65" stroke="#042433" stroke-width="6.875" stroke-linecap="square" stroke-linejoin="miter" stroke-miterlimit="8" stroke-dasharray="20.625 6.875" stroke-opacity="1" fill="#4E95D9" fill-opacity="1" transform="matrix(1 0 0 -1 896.5 1002.5)"/><text fill="#000000" fill-opacity="1" font-family="Times New Roman,Times New Roman_MSFontService,sans-serif" font-style="normal" font-variant="normal" font-weight="400" font-stretch="normal" font-size="64" text-anchor="start" direction="ltr" writing-mode="lr-tb" unicode-bidi="normal" text-decoration="none" transform="matrix(1 0 0 1 703.281 1476)">-</text><text fill="#000000" fill-opacity="1" font-family="Times New Roman,Times New Roman_MSFontService,sans-serif" font-style="normal" font-variant="normal" font-weight="400" font-stretch="normal" font-size="64" text-anchor="start" direction="ltr" writing-mode="lr-tb" unicode-bidi="normal" text-decoration="none" transform="matrix(1 0 0 1 724.479 1476)">1</text><text fill="#000000" fill-opacity="1" font-family="DengXian,DengXian_MSFontService,sans-serif" font-style="normal" font-variant="normal" font-weight="400" font-stretch="normal" font-size="64" text-anchor="start" direction="ltr" writing-mode="lr-tb" unicode-bidi="normal" text-decoration="none" transform="matrix(1 0 0 1 1180.57 1305)">负类</text><text fill="#000000" fill-opacity="1" font-family="Times New Roman,Times New Roman_MSFontService,sans-serif" font-style="normal" font-variant="normal" font-weight="400" font-stretch="normal" font-size="64" text-anchor="start" direction="ltr" writing-mode="lr-tb" unicode-bidi="normal" text-decoration="none" transform="matrix(-1.83697e-16 -1 1 -1.83697e-16 624.173 1356)">softmax</text><text fill="#000000" fill-opacity="1" font-family="DengXian,DengXian_MSFontService,sans-serif" font-style="normal" font-variant="normal" font-weight="400" font-stretch="normal" font-size="64" text-anchor="start" direction="ltr" writing-mode="lr-tb" unicode-bidi="normal" text-decoration="none" transform="matrix(-1.83697e-16 -1 1 -1.83697e-16 624.173 1150)">梯度</text><rect x="896.5" y="1192.5" width="109" height="260" stroke="#042433" stroke-width="6.875" stroke-linecap="butt" stroke-linejoin="miter" stroke-miterlimit="8" stroke-opacity="1" fill="#FF5254" fill-opacity="0.8"/><path d="M2110.5 880.062 3199.81 880.063 3199.81 886.938 2110.5 886.937ZM3195.22 869.75 3222.72 883.5 3195.22 897.25Z" fill="#000000" fill-rule="nonzero" fill-opacity="1"/><path d="M3.4375-5.20906e-06 3.43783 215.239-3.43717 215.239-3.4375 5.20906e-06ZM13.7503 210.656 0.000360892 238.156-13.7497 210.656Z" fill="#000000" fill-rule="nonzero" fill-opacity="1" transform="matrix(1 0 0 -1 2235.5 974.656)"/><rect x="2524.5" y="764.5" width="109" height="117" stroke="#042433" stroke-width="6.875" stroke-linecap="butt" stroke-linejoin="miter" stroke-miterlimit="8" stroke-opacity="1" fill="#FBE3D6" fill-opacity="1"/><path d="M2110.5 1187.06 3199.81 1187.06 3199.81 1193.94 2110.5 1193.94ZM3195.22 1176.75 3222.72 1190.5 3195.22 1204.25Z" fill="#000000" fill-rule="nonzero" fill-opacity="1"/><path d="M3.4375-5.21386e-06 3.43783 215.02-3.43717 215.02-3.4375 5.21386e-06ZM13.7503 210.436 0.000360892 237.936-13.7497 210.436Z" fill="#000000" fill-rule="nonzero" fill-opacity="1" transform="matrix(1 0 0 -1 2235.5 1281.44)"/><rect x="2679.5" y="1112.5" width="108" height="78" stroke="#042433" stroke-width="6.875" stroke-linecap="butt" stroke-linejoin="miter" stroke-miterlimit="8" stroke-opacity="1" fill="#C2F1C8" fill-opacity="1"/><path d="M3.4375-5.25748e-06 3.43783 213.046-3.43717 213.046-3.4375 5.25748e-06ZM13.7503 208.462 0.000360892 235.962-13.7497 208.462Z" fill="#000000" fill-rule="nonzero" fill-opacity="1" transform="matrix(1 0 0 -1 2235.5 1599.46)"/><rect x="2829.5" y="1442.5" width="109" height="65" stroke="#042433" stroke-width="6.875" stroke-linecap="butt" stroke-linejoin="miter" stroke-miterlimit="8" stroke-opacity="1" fill="#4E95D9" fill-opacity="1"/><path d="M2110.5 1504.06 3199.81 1504.06 3199.81 1510.94 2110.5 1510.94ZM3195.22 1493.75 3222.72 1507.5 3195.22 1521.25Z" fill="#000000" fill-rule="nonzero" fill-opacity="1"/><text fill="#000000" fill-opacity="1" font-family="DengXian,DengXian_MSFontService,sans-serif" font-style="normal" font-variant="normal" font-weight="400" font-stretch="normal" font-size="83" text-anchor="start" direction="ltr" writing-mode="lr-tb" unicode-bidi="normal" text-decoration="none" transform="matrix(1 0 0 1 2666.19 1379)">+</text><text fill="#000000" fill-opacity="1" font-family="DengXian,DengXian_MSFontService,sans-serif" font-style="normal" font-variant="normal" font-weight="400" font-stretch="normal" font-size="83" text-anchor="start" direction="ltr" writing-mode="lr-tb" unicode-bidi="normal" text-decoration="none" transform="matrix(1 0 0 1 2666.19 1039)">+</text><text fill="#000000" fill-opacity="1" font-family="DengXian,DengXian_MSFontService,sans-serif" font-style="normal" font-variant="normal" font-weight="400" font-stretch="normal" font-size="83" text-anchor="start" direction="ltr" writing-mode="lr-tb" unicode-bidi="normal" text-decoration="none" transform="matrix(1 0 0 1 1926.41 1210)">=</text></g></g></svg>