<svg width="2044" height="912" xmlns="http://www.w3.org/2000/svg" xmlns:xlink="http://www.w3.org/1999/xlink" xml:space="preserve" overflow="hidden"><g transform="translate(-495 -1187)"><g><path d="M516.5 1434.5C516.5 1398.6 545.602 1369.5 581.5 1369.5 617.399 1369.5 646.5 1398.6 646.5 1434.5 646.5 1470.4 617.399 1499.5 581.5 1499.5 545.602 1499.5 516.5 1470.4 516.5 1434.5Z" stroke="#00B050" stroke-width="6.875" stroke-linecap="butt" stroke-linejoin="miter" stroke-miterlimit="8" stroke-opacity="1" fill="#FFFFFF" fill-rule="evenodd" fill-opacity="1"/><text fill="#000000" fill-opacity="1" font-family="DengXian,DengXian_MSFontService,sans-serif" font-style="normal" font-variant="normal" font-weight="400" font-stretch="normal" font-size="83" text-anchor="start" direction="ltr" writing-mode="lr-tb" unicode-bidi="normal" text-decoration="none" transform="matrix(1 0 0 1 559.425 1462)">1</text><path d="M516.5 1622.5C516.5 1586.6 545.602 1557.5 581.5 1557.5 617.399 1557.5 646.5 1586.6 646.5 1622.5 646.5 1658.4 617.399 1687.5 581.5 1687.5 545.602 1687.5 516.5 1658.4 516.5 1622.5Z" stroke="#000000" stroke-width="6.875" stroke-linecap="butt" stroke-linejoin="miter" stroke-miterlimit="8" stroke-opacity="1" fill="#FFFFFF" fill-rule="evenodd" fill-opacity="1"/><text fill="#000000" fill-opacity="1" font-family="DengXian,DengXian_MSFontService,sans-serif" font-style="normal" font-variant="normal" font-weight="400" font-stretch="normal" font-size="83" text-anchor="start" direction="ltr" writing-mode="lr-tb" unicode-bidi="normal" text-decoration="none" transform="matrix(1 0 0 1 559.425 1649)">2</text><path d="M516.5 1810C516.5 1774.38 545.602 1745.5 581.5 1745.5 617.399 1745.5 646.5 1774.38 646.5 1810 646.5 1845.62 617.399 1874.5 581.5 1874.5 545.602 1874.5 516.5 1845.62 516.5 1810Z" stroke="#000000" stroke-width="6.875" stroke-linecap="butt" stroke-linejoin="miter" stroke-miterlimit="8" stroke-opacity="1" fill="#FFFFFF" fill-rule="evenodd" fill-opacity="1"/><text fill="#000000" fill-opacity="1" font-family="DengXian,DengXian_MSFontService,sans-serif" font-style="normal" font-variant="normal" font-weight="400" font-stretch="normal" font-size="83" text-anchor="start" direction="ltr" writing-mode="lr-tb" unicode-bidi="normal" text-decoration="none" transform="matrix(1 0 0 1 559.425 1837)">3</text><path d="M516.5 1997.5C516.5 1961.6 545.602 1932.5 581.5 1932.5 617.399 1932.5 646.5 1961.6 646.5 1997.5 646.5 2033.4 617.399 2062.5 581.5 2062.5 545.602 2062.5 516.5 2033.4 516.5 1997.5Z" stroke="#000000" stroke-width="6.875" stroke-linecap="butt" stroke-linejoin="miter" stroke-miterlimit="8" stroke-opacity="1" fill="#FFFFFF" fill-rule="evenodd" fill-opacity="1"/><text fill="#000000" fill-opacity="1" font-family="DengXian,DengXian_MSFontService,sans-serif" font-style="normal" font-variant="normal" font-weight="400" font-stretch="normal" font-size="83" text-anchor="start" direction="ltr" writing-mode="lr-tb" unicode-bidi="normal" text-decoration="none" transform="matrix(1 0 0 1 559.425 2025)">4</text><path d="M1015.5 1434.5C1015.5 1398.6 1044.38 1369.5 1080 1369.5 1115.62 1369.5 1144.5 1398.6 1144.5 1434.5 1144.5 1470.4 1115.62 1499.5 1080 1499.5 1044.38 1499.5 1015.5 1470.4 1015.5 1434.5Z" stroke="#000000" stroke-width="6.875" stroke-linecap="butt" stroke-linejoin="miter" stroke-miterlimit="8" stroke-opacity="1" fill="#FFFFFF" fill-rule="evenodd" fill-opacity="1"/><text fill="#000000" fill-opacity="1" font-family="DengXian,DengXian_MSFontService,sans-serif" font-style="normal" font-variant="normal" font-weight="400" font-stretch="normal" font-size="83" text-anchor="start" direction="ltr" writing-mode="lr-tb" unicode-bidi="normal" text-decoration="none" transform="matrix(1 0 0 1 1057.74 1462)">5</text><path d="M1015.5 1622.5C1015.5 1586.6 1044.38 1557.5 1080 1557.5 1115.62 1557.5 1144.5 1586.6 1144.5 1622.5 1144.5 1658.4 1115.62 1687.5 1080 1687.5 1044.38 1687.5 1015.5 1658.4 1015.5 1622.5Z" stroke="#000000" stroke-width="6.875" stroke-linecap="butt" stroke-linejoin="miter" stroke-miterlimit="8" stroke-opacity="1" fill="#FFFFFF" fill-rule="evenodd" fill-opacity="1"/><text fill="#000000" fill-opacity="1" font-family="DengXian,DengXian_MSFontService,sans-serif" font-style="normal" font-variant="normal" font-weight="400" font-stretch="normal" font-size="83" text-anchor="start" direction="ltr" writing-mode="lr-tb" unicode-bidi="normal" text-decoration="none" transform="matrix(1 0 0 1 1057.74 1649)">6</text><path d="M1015.5 1810C1015.5 1774.38 1044.38 1745.5 1080 1745.5 1115.62 1745.5 1144.5 1774.38 1144.5 1810 1144.5 1845.62 1115.62 1874.5 1080 1874.5 1044.38 1874.5 1015.5 1845.62 1015.5 1810Z" stroke="#000000" stroke-width="6.875" stroke-linecap="butt" stroke-linejoin="miter" stroke-miterlimit="8" stroke-opacity="1" fill="#FFFFFF" fill-rule="evenodd" fill-opacity="1"/><text fill="#000000" fill-opacity="1" font-family="DengXian,DengXian_MSFontService,sans-serif" font-style="normal" font-variant="normal" font-weight="400" font-stretch="normal" font-size="83" text-anchor="start" direction="ltr" writing-mode="lr-tb" unicode-bidi="normal" text-decoration="none" transform="matrix(1 0 0 1 1057.74 1837)">7</text><path d="M1015.5 1997.5C1015.5 1961.6 1044.38 1932.5 1080 1932.5 1115.62 1932.5 1144.5 1961.6 1144.5 1997.5 1144.5 2033.4 1115.62 2062.5 1080 2062.5 1044.38 2062.5 1015.5 2033.4 1015.5 1997.5Z" stroke="#000000" stroke-width="6.875" stroke-linecap="butt" stroke-linejoin="miter" stroke-miterlimit="8" stroke-opacity="1" fill="#FFFFFF" fill-rule="evenodd" fill-opacity="1"/><text fill="#000000" fill-opacity="1" font-family="DengXian,DengXian_MSFontService,sans-serif" font-style="normal" font-variant="normal" font-weight="400" font-stretch="normal" font-size="83" text-anchor="start" direction="ltr" writing-mode="lr-tb" unicode-bidi="normal" text-decoration="none" transform="matrix(1 0 0 1 1057.74 2025)">8</text><path d="M646.5 1434.5 1014.89 1434.5" stroke="#000000" stroke-width="6.875" stroke-linecap="butt" stroke-linejoin="miter" stroke-miterlimit="8" stroke-opacity="1" fill="none" fill-rule="evenodd"/><path d="M0 0 368.392 187.627" stroke="#FF0000" stroke-width="6.875" stroke-linecap="butt" stroke-linejoin="miter" stroke-miterlimit="8" stroke-opacity="1" fill="none" fill-rule="evenodd" transform="matrix(1 0 0 -1 646.5 1622.13)"/><path d="M0 0 368.392 375.253" stroke="#000000" stroke-width="6.875" stroke-linecap="butt" stroke-linejoin="miter" stroke-miterlimit="8" stroke-opacity="1" fill="none" fill-rule="evenodd" transform="matrix(1 0 0 -1 646.5 1809.75)"/><path d="M0 0 368.392 187.627" stroke="#FF0000" stroke-width="6.875" stroke-linecap="butt" stroke-linejoin="miter" stroke-miterlimit="8" stroke-opacity="1" fill="none" fill-rule="evenodd" transform="matrix(1 0 0 -1 646.5 1810.13)"/><path d="M0 0 368.392 187.627" stroke="#000000" stroke-width="6.875" stroke-linecap="butt" stroke-linejoin="miter" stroke-miterlimit="8" stroke-opacity="1" fill="none" fill-rule="evenodd" transform="matrix(1 0 0 -1 646.5 1998.13)"/><path d="M646.5 1997.5 1014.89 1997.5" stroke="#FF0000" stroke-width="6.875" stroke-linecap="butt" stroke-linejoin="miter" stroke-miterlimit="8" stroke-opacity="1" fill="none" fill-rule="evenodd"/><path d="M1688.5 1434.5C1688.5 1398.6 1717.6 1369.5 1753.5 1369.5 1789.4 1369.5 1818.5 1398.6 1818.5 1434.5 1818.5 1470.4 1789.4 1499.5 1753.5 1499.5 1717.6 1499.5 1688.5 1470.4 1688.5 1434.5Z" stroke="#00B050" stroke-width="6.875" stroke-linecap="butt" stroke-linejoin="miter" stroke-miterlimit="8" stroke-opacity="1" fill="#FFFFFF" fill-rule="evenodd" fill-opacity="1"/><text fill="#000000" fill-opacity="1" font-family="DengXian,DengXian_MSFontService,sans-serif" font-style="normal" font-variant="normal" font-weight="400" font-stretch="normal" font-size="83" text-anchor="start" direction="ltr" writing-mode="lr-tb" unicode-bidi="normal" text-decoration="none" transform="matrix(1 0 0 1 1731.63 1462)">1</text><path d="M1688.5 1622.5C1688.5 1586.6 1717.6 1557.5 1753.5 1557.5 1789.4 1557.5 1818.5 1586.6 1818.5 1622.5 1818.5 1658.4 1789.4 1687.5 1753.5 1687.5 1717.6 1687.5 1688.5 1658.4 1688.5 1622.5Z" stroke="#00B050" stroke-width="6.875" stroke-linecap="butt" stroke-linejoin="miter" stroke-miterlimit="8" stroke-opacity="1" fill="#FFFFFF" fill-rule="evenodd" fill-opacity="1"/><text fill="#000000" fill-opacity="1" font-family="DengXian,DengXian_MSFontService,sans-serif" font-style="normal" font-variant="normal" font-weight="400" font-stretch="normal" font-size="83" text-anchor="start" direction="ltr" writing-mode="lr-tb" unicode-bidi="normal" text-decoration="none" transform="matrix(1 0 0 1 1731.63 1649)">2</text><path d="M1688.5 1810C1688.5 1774.38 1717.6 1745.5 1753.5 1745.5 1789.4 1745.5 1818.5 1774.38 1818.5 1810 1818.5 1845.62 1789.4 1874.5 1753.5 1874.5 1717.6 1874.5 1688.5 1845.62 1688.5 1810Z" stroke="#000000" stroke-width="6.875" stroke-linecap="butt" stroke-linejoin="miter" stroke-miterlimit="8" stroke-opacity="1" fill="#FFFFFF" fill-rule="evenodd" fill-opacity="1"/><text fill="#000000" fill-opacity="1" font-family="DengXian,DengXian_MSFontService,sans-serif" font-style="normal" font-variant="normal" font-weight="400" font-stretch="normal" font-size="83" text-anchor="start" direction="ltr" writing-mode="lr-tb" unicode-bidi="normal" text-decoration="none" transform="matrix(1 0 0 1 1731.63 1837)">3</text><path d="M1688.5 1997.5C1688.5 1961.6 1717.6 1932.5 1753.5 1932.5 1789.4 1932.5 1818.5 1961.6 1818.5 1997.5 1818.5 2033.4 1789.4 2062.5 1753.5 2062.5 1717.6 2062.5 1688.5 2033.4 1688.5 1997.5Z" stroke="#000000" stroke-width="6.875" stroke-linecap="butt" stroke-linejoin="miter" stroke-miterlimit="8" stroke-opacity="1" fill="#FFFFFF" fill-rule="evenodd" fill-opacity="1"/><text fill="#000000" fill-opacity="1" font-family="DengXian,DengXian_MSFontService,sans-serif" font-style="normal" font-variant="normal" font-weight="400" font-stretch="normal" font-size="83" text-anchor="start" direction="ltr" writing-mode="lr-tb" unicode-bidi="normal" text-decoration="none" transform="matrix(1 0 0 1 1731.63 2025)">4</text><path d="M2187.5 1434.5C2187.5 1398.6 2216.6 1369.5 2252.5 1369.5 2288.4 1369.5 2317.5 1398.6 2317.5 1434.5 2317.5 1470.4 2288.4 1499.5 2252.5 1499.5 2216.6 1499.5 2187.5 1470.4 2187.5 1434.5Z" stroke="#00B050" stroke-width="6.875" stroke-linecap="butt" stroke-linejoin="miter" stroke-miterlimit="8" stroke-opacity="1" fill="#FFFFFF" fill-rule="evenodd" fill-opacity="1"/><text fill="#000000" fill-opacity="1" font-family="DengXian,DengXian_MSFontService,sans-serif" font-style="normal" font-variant="normal" font-weight="400" font-stretch="normal" font-size="83" text-anchor="start" direction="ltr" writing-mode="lr-tb" unicode-bidi="normal" text-decoration="none" transform="matrix(1 0 0 1 2229.94 1462)">5</text><path d="M2187.5 1622.5C2187.5 1586.6 2216.6 1557.5 2252.5 1557.5 2288.4 1557.5 2317.5 1586.6 2317.5 1622.5 2317.5 1658.4 2288.4 1687.5 2252.5 1687.5 2216.6 1687.5 2187.5 1658.4 2187.5 1622.5Z" stroke="#000000" stroke-width="6.875" stroke-linecap="butt" stroke-linejoin="miter" stroke-miterlimit="8" stroke-opacity="1" fill="#FFFFFF" fill-rule="evenodd" fill-opacity="1"/><text fill="#000000" fill-opacity="1" font-family="DengXian,DengXian_MSFontService,sans-serif" font-style="normal" font-variant="normal" font-weight="400" font-stretch="normal" font-size="83" text-anchor="start" direction="ltr" writing-mode="lr-tb" unicode-bidi="normal" text-decoration="none" transform="matrix(1 0 0 1 2229.94 1649)">6</text><path d="M2187.5 1810C2187.5 1774.38 2216.6 1745.5 2252.5 1745.5 2288.4 1745.5 2317.5 1774.38 2317.5 1810 2317.5 1845.62 2288.4 1874.5 2252.5 1874.5 2216.6 1874.5 2187.5 1845.62 2187.5 1810Z" stroke="#000000" stroke-width="6.875" stroke-linecap="butt" stroke-linejoin="miter" stroke-miterlimit="8" stroke-opacity="1" fill="#FFFFFF" fill-rule="evenodd" fill-opacity="1"/><text fill="#000000" fill-opacity="1" font-family="DengXian,DengXian_MSFontService,sans-serif" font-style="normal" font-variant="normal" font-weight="400" font-stretch="normal" font-size="83" text-anchor="start" direction="ltr" writing-mode="lr-tb" unicode-bidi="normal" text-decoration="none" transform="matrix(1 0 0 1 2229.94 1837)">7</text><path d="M2187.5 1997.5C2187.5 1961.6 2216.6 1932.5 2252.5 1932.5 2288.4 1932.5 2317.5 1961.6 2317.5 1997.5 2317.5 2033.4 2288.4 2062.5 2252.5 2062.5 2216.6 2062.5 2187.5 2033.4 2187.5 1997.5Z" stroke="#000000" stroke-width="6.875" stroke-linecap="butt" stroke-linejoin="miter" stroke-miterlimit="8" stroke-opacity="1" fill="#FFFFFF" fill-rule="evenodd" fill-opacity="1"/><text fill="#000000" fill-opacity="1" font-family="DengXian,DengXian_MSFontService,sans-serif" font-style="normal" font-variant="normal" font-weight="400" font-stretch="normal" font-size="83" text-anchor="start" direction="ltr" writing-mode="lr-tb" unicode-bidi="normal" text-decoration="none" transform="matrix(1 0 0 1 2229.94 2025)">8</text><path d="M1818.5 1434.5 2186.89 1434.5" stroke="#000000" stroke-width="6.875" stroke-linecap="butt" stroke-linejoin="miter" stroke-miterlimit="8" stroke-opacity="1" fill="none" fill-rule="evenodd"/><path d="M0 0 368.392 187.627" stroke="#FF0000" stroke-width="6.875" stroke-linecap="butt" stroke-linejoin="miter" stroke-miterlimit="8" stroke-opacity="1" fill="none" fill-rule="evenodd" transform="matrix(1 0 0 -1 1818.5 1622.13)"/><path d="M0 0 368.392 375.253" stroke="#000000" stroke-width="6.875" stroke-linecap="butt" stroke-linejoin="miter" stroke-miterlimit="8" stroke-opacity="1" fill="none" fill-rule="evenodd" transform="matrix(1 0 0 -1 1818.5 1809.75)"/><path d="M0 0 368.392 187.627" stroke="#FF0000" stroke-width="6.875" stroke-linecap="butt" stroke-linejoin="miter" stroke-miterlimit="8" stroke-opacity="1" fill="none" fill-rule="evenodd" transform="matrix(1 0 0 -1 1818.5 1810.13)"/><path d="M0 0 368.392 187.627" stroke="#000000" stroke-width="6.875" stroke-linecap="butt" stroke-linejoin="miter" stroke-miterlimit="8" stroke-opacity="1" fill="none" fill-rule="evenodd" transform="matrix(1 0 0 -1 1818.5 1998.13)"/><path d="M1818.5 1997.5 2186.89 1997.5" stroke="#FF0000" stroke-width="6.875" stroke-linecap="butt" stroke-linejoin="miter" stroke-miterlimit="8" stroke-opacity="1" fill="none" fill-rule="evenodd"/><text fill="#000000" fill-opacity="1" font-family="Consolas,Consolas_MSFontService,sans-serif" font-style="normal" font-variant="normal" font-weight="400" font-stretch="normal" font-size="83" text-anchor="start" direction="ltr" writing-mode="lr-tb" unicode-bidi="normal" text-decoration="none" transform="matrix(1 0 0 1 548.079 1294)">X</text><text fill="#000000" fill-opacity="1" font-family="Consolas,Consolas_MSFontService,sans-serif" font-style="normal" font-variant="normal" font-weight="400" font-stretch="normal" font-size="83" text-anchor="start" direction="ltr" writing-mode="lr-tb" unicode-bidi="normal" text-decoration="none" transform="matrix(1 0 0 1 1047.55 1294)">Y</text><text fill="#000000" fill-opacity="1" font-family="Consolas,Consolas_MSFontService,sans-serif" font-style="normal" font-variant="normal" font-weight="400" font-stretch="normal" font-size="83" text-anchor="start" direction="ltr" writing-mode="lr-tb" unicode-bidi="normal" text-decoration="none" transform="matrix(1 0 0 1 1721.44 1294)">X</text><text fill="#000000" fill-opacity="1" font-family="Consolas,Consolas_MSFontService,sans-serif" font-style="normal" font-variant="normal" font-weight="400" font-stretch="normal" font-size="83" text-anchor="start" direction="ltr" writing-mode="lr-tb" unicode-bidi="normal" text-decoration="none" transform="matrix(1 0 0 1 2220.91 1294)">Y</text><text fill="#000000" fill-opacity="1" font-family="Consolas,Consolas_MSFontService,sans-serif" font-style="normal" font-variant="normal" font-weight="400" font-stretch="normal" font-size="83" text-anchor="start" direction="ltr" writing-mode="lr-tb" unicode-bidi="normal" text-decoration="none" transform="matrix(1 0 0 1 1534.78 1566)">S</text><text fill="#000000" fill-opacity="1" font-family="Consolas,Consolas_MSFontService,sans-serif" font-style="normal" font-variant="normal" font-weight="400" font-stretch="normal" font-size="83" text-anchor="start" direction="ltr" writing-mode="lr-tb" unicode-bidi="normal" text-decoration="none" transform="matrix(1 0 0 1 1443.38 1904)">X</text><text fill="#000000" fill-opacity="1" font-family="Consolas,Consolas_MSFontService,sans-serif" font-style="normal" font-variant="normal" font-weight="400" font-stretch="normal" font-size="83" text-anchor="start" direction="ltr" writing-mode="lr-tb" unicode-bidi="normal" text-decoration="none" transform="matrix(1 0 0 1 1488.64 1904)">-</text><text fill="#000000" fill-opacity="1" font-family="Consolas,Consolas_MSFontService,sans-serif" font-style="normal" font-variant="normal" font-weight="400" font-stretch="normal" font-size="83" text-anchor="start" direction="ltr" writing-mode="lr-tb" unicode-bidi="normal" text-decoration="none" transform="matrix(1 0 0 1 1533.9 1904)">S</text><text fill="#000000" fill-opacity="1" font-family="Consolas,Consolas_MSFontService,sans-serif" font-style="normal" font-variant="normal" font-weight="400" font-stretch="normal" font-size="83" text-anchor="start" direction="ltr" writing-mode="lr-tb" unicode-bidi="normal" text-decoration="none" transform="matrix(1 0 0 1 2442.4 1464)">T</text><path d="M1664.5 1691.5C1650.14 1691.5 1638.5 1682.14 1638.5 1670.6L1638.5 1558.9C1638.5 1547.36 1626.86 1538 1612.5 1538 1626.86 1538 1638.5 1528.64 1638.5 1517.1L1638.5 1405.4C1638.5 1393.86 1650.14 1384.5 1664.5 1384.5" stroke="#000000" stroke-width="6.875" stroke-linecap="butt" stroke-linejoin="miter" stroke-miterlimit="8" stroke-opacity="1" fill="none" fill-rule="evenodd"/><path d="M1664.5 2062.5C1650.14 2062.5 1638.5 2053.14 1638.5 2041.6L1638.5 1929.9C1638.5 1918.36 1626.86 1909 1612.5 1909 1626.86 1909 1638.5 1899.64 1638.5 1888.1L1638.5 1776.4C1638.5 1764.86 1650.14 1755.5 1664.5 1755.5" stroke="#000000" stroke-width="6.875" stroke-linecap="butt" stroke-linejoin="miter" stroke-miterlimit="8" stroke-opacity="1" fill="none" fill-rule="evenodd"/><path d="M2368.5 1368.5C2379.82 1368.5 2389 1375.88 2389 1384.98L2389 1418.52C2389 1427.62 2398.18 1435 2409.5 1435 2398.18 1435 2389 1442.38 2389 1451.48L2389 1485.02C2389 1494.12 2379.82 1501.5 2368.5 1501.5" stroke="#000000" stroke-width="6.875" stroke-linecap="butt" stroke-linejoin="miter" stroke-miterlimit="8" stroke-opacity="1" fill="none" fill-rule="evenodd"/></g></g></svg>