<svg width="1100" height="678" xmlns="http://www.w3.org/2000/svg" xmlns:xlink="http://www.w3.org/1999/xlink" xml:space="preserve" overflow="hidden"><g transform="translate(-1242 -1668)"><g><path d="M1253.5 2243.5C1253.5 2207.6 1282.6 2178.5 1318.5 2178.5 1354.4 2178.5 1383.5 2207.6 1383.5 2243.5 1383.5 2279.4 1354.4 2308.5 1318.5 2308.5 1282.6 2308.5 1253.5 2279.4 1253.5 2243.5Z" stroke="#000000" stroke-width="6.875" stroke-linecap="butt" stroke-linejoin="miter" stroke-miterlimit="8" stroke-opacity="1" fill="#FFFFFF" fill-rule="evenodd" fill-opacity="1"/><text fill="#000000" fill-opacity="1" font-family="DengXian,DengXian_MSFontService,sans-serif" font-style="normal" font-variant="normal" font-weight="400" font-stretch="normal" font-size="83" text-anchor="start" direction="ltr" writing-mode="lr-tb" unicode-bidi="normal" text-decoration="none" transform="matrix(1 0 0 1 1296.26 2271)">1</text><path d="M1441.5 2243.5C1441.5 2207.6 1470.6 2178.5 1506.5 2178.5 1542.4 2178.5 1571.5 2207.6 1571.5 2243.5 1571.5 2279.4 1542.4 2308.5 1506.5 2308.5 1470.6 2308.5 1441.5 2279.4 1441.5 2243.5Z" stroke="#000000" stroke-width="6.875" stroke-linecap="butt" stroke-linejoin="miter" stroke-miterlimit="8" stroke-opacity="1" fill="#FFFFFF" fill-rule="evenodd" fill-opacity="1"/><text fill="#000000" fill-opacity="1" font-family="DengXian,DengXian_MSFontService,sans-serif" font-style="normal" font-variant="normal" font-weight="400" font-stretch="normal" font-size="83" text-anchor="start" direction="ltr" writing-mode="lr-tb" unicode-bidi="normal" text-decoration="none" transform="matrix(1 0 0 1 1483.89 2271)">2</text><path d="M1628.5 2243.5C1628.5 2207.6 1657.6 2178.5 1693.5 2178.5 1729.4 2178.5 1758.5 2207.6 1758.5 2243.5 1758.5 2279.4 1729.4 2308.5 1693.5 2308.5 1657.6 2308.5 1628.5 2279.4 1628.5 2243.5Z" stroke="#000000" stroke-width="6.875" stroke-linecap="butt" stroke-linejoin="miter" stroke-miterlimit="8" stroke-opacity="1" fill="#FFFFFF" fill-rule="evenodd" fill-opacity="1"/><text fill="#000000" fill-opacity="1" font-family="DengXian,DengXian_MSFontService,sans-serif" font-style="normal" font-variant="normal" font-weight="400" font-stretch="normal" font-size="83" text-anchor="start" direction="ltr" writing-mode="lr-tb" unicode-bidi="normal" text-decoration="none" transform="matrix(1 0 0 1 1671.51 2271)">3</text><path d="M1816.5 2243.5C1816.5 2207.6 1845.6 2178.5 1881.5 2178.5 1917.4 2178.5 1946.5 2207.6 1946.5 2243.5 1946.5 2279.4 1917.4 2308.5 1881.5 2308.5 1845.6 2308.5 1816.5 2279.4 1816.5 2243.5Z" stroke="#000000" stroke-width="6.875" stroke-linecap="butt" stroke-linejoin="miter" stroke-miterlimit="8" stroke-opacity="1" fill="#FFFFFF" fill-rule="evenodd" fill-opacity="1"/><text fill="#000000" fill-opacity="1" font-family="DengXian,DengXian_MSFontService,sans-serif" font-style="normal" font-variant="normal" font-weight="400" font-stretch="normal" font-size="83" text-anchor="start" direction="ltr" writing-mode="lr-tb" unicode-bidi="normal" text-decoration="none" transform="matrix(1 0 0 1 1859.14 2271)">4</text><path d="M1253.5 1745.5C1253.5 1709.6 1282.6 1680.5 1318.5 1680.5 1354.4 1680.5 1383.5 1709.6 1383.5 1745.5 1383.5 1781.4 1354.4 1810.5 1318.5 1810.5 1282.6 1810.5 1253.5 1781.4 1253.5 1745.5Z" stroke="#000000" stroke-width="6.875" stroke-linecap="butt" stroke-linejoin="miter" stroke-miterlimit="8" stroke-opacity="1" fill="#FFFFFF" fill-rule="evenodd" fill-opacity="1"/><text fill="#000000" fill-opacity="1" font-family="DengXian,DengXian_MSFontService,sans-serif" font-style="normal" font-variant="normal" font-weight="400" font-stretch="normal" font-size="83" text-anchor="start" direction="ltr" writing-mode="lr-tb" unicode-bidi="normal" text-decoration="none" transform="matrix(1 0 0 1 1296.26 1772)">7</text><path d="M1441.5 1745.5C1441.5 1709.6 1470.6 1680.5 1506.5 1680.5 1542.4 1680.5 1571.5 1709.6 1571.5 1745.5 1571.5 1781.4 1542.4 1810.5 1506.5 1810.5 1470.6 1810.5 1441.5 1781.4 1441.5 1745.5Z" stroke="#000000" stroke-width="6.875" stroke-linecap="butt" stroke-linejoin="miter" stroke-miterlimit="8" stroke-opacity="1" fill="#FFFFFF" fill-rule="evenodd" fill-opacity="1"/><text fill="#000000" fill-opacity="1" font-family="DengXian,DengXian_MSFontService,sans-serif" font-style="normal" font-variant="normal" font-weight="400" font-stretch="normal" font-size="83" text-anchor="start" direction="ltr" writing-mode="lr-tb" unicode-bidi="normal" text-decoration="none" transform="matrix(1 0 0 1 1483.89 1772)">8</text><path d="M1628.5 1745.5C1628.5 1709.6 1657.6 1680.5 1693.5 1680.5 1729.4 1680.5 1758.5 1709.6 1758.5 1745.5 1758.5 1781.4 1729.4 1810.5 1693.5 1810.5 1657.6 1810.5 1628.5 1781.4 1628.5 1745.5Z" stroke="#000000" stroke-width="6.875" stroke-linecap="butt" stroke-linejoin="miter" stroke-miterlimit="8" stroke-opacity="1" fill="#FFFFFF" fill-rule="evenodd" fill-opacity="1"/><text fill="#000000" fill-opacity="1" font-family="DengXian,DengXian_MSFontService,sans-serif" font-style="normal" font-variant="normal" font-weight="400" font-stretch="normal" font-size="83" text-anchor="start" direction="ltr" writing-mode="lr-tb" unicode-bidi="normal" text-decoration="none" transform="matrix(1 0 0 1 1671.51 1772)">9</text><path d="M1816.5 1745.5C1816.5 1709.6 1845.6 1680.5 1881.5 1680.5 1917.4 1680.5 1946.5 1709.6 1946.5 1745.5 1946.5 1781.4 1917.4 1810.5 1881.5 1810.5 1845.6 1810.5 1816.5 1781.4 1816.5 1745.5Z" stroke="#000000" stroke-width="6.875" stroke-linecap="butt" stroke-linejoin="miter" stroke-miterlimit="8" stroke-opacity="1" fill="#FFFFFF" fill-rule="evenodd" fill-opacity="1"/><text fill="#000000" fill-opacity="1" font-family="DengXian,DengXian_MSFontService,sans-serif" font-style="normal" font-variant="normal" font-weight="400" font-stretch="normal" font-size="83" text-anchor="start" direction="ltr" writing-mode="lr-tb" unicode-bidi="normal" text-decoration="none" transform="matrix(1 0 0 1 1860.28 1772)">a</text><path d="M0 0 0.000360892 368.392" stroke="#000000" stroke-width="6.875" stroke-linecap="butt" stroke-linejoin="miter" stroke-miterlimit="8" stroke-opacity="0.25098" fill="none" fill-rule="evenodd" transform="matrix(1 0 0 -1 1318.5 2178.89)"/><path d="M0 0 562.88 368.392" stroke="#FF0000" stroke-width="13.75" stroke-linecap="butt" stroke-linejoin="miter" stroke-miterlimit="8" stroke-opacity="0.25098" fill="none" fill-rule="evenodd" transform="matrix(1 0 0 -1 1318 2178.39)"/><path d="M2009.5 2243.5C2009.5 2207.6 2038.38 2178.5 2074 2178.5 2109.62 2178.5 2138.5 2207.6 2138.5 2243.5 2138.5 2279.4 2109.62 2308.5 2074 2308.5 2038.38 2308.5 2009.5 2279.4 2009.5 2243.5Z" stroke="#000000" stroke-width="6.875" stroke-linecap="butt" stroke-linejoin="miter" stroke-miterlimit="8" stroke-opacity="1" fill="#FFFFFF" fill-rule="evenodd" fill-opacity="1"/><text fill="#000000" fill-opacity="1" font-family="DengXian,DengXian_MSFontService,sans-serif" font-style="normal" font-variant="normal" font-weight="400" font-stretch="normal" font-size="83" text-anchor="start" direction="ltr" writing-mode="lr-tb" unicode-bidi="normal" text-decoration="none" transform="matrix(1 0 0 1 2051.73 2271)">5</text><path d="M2202.5 2243.5C2202.5 2207.6 2231.6 2178.5 2267.5 2178.5 2303.4 2178.5 2332.5 2207.6 2332.5 2243.5 2332.5 2279.4 2303.4 2308.5 2267.5 2308.5 2231.6 2308.5 2202.5 2279.4 2202.5 2243.5Z" stroke="#000000" stroke-width="6.875" stroke-linecap="butt" stroke-linejoin="miter" stroke-miterlimit="8" stroke-opacity="1" fill="#FFFFFF" fill-rule="evenodd" fill-opacity="1"/><text fill="#000000" fill-opacity="1" font-family="DengXian,DengXian_MSFontService,sans-serif" font-style="normal" font-variant="normal" font-weight="400" font-stretch="normal" font-size="83" text-anchor="start" direction="ltr" writing-mode="lr-tb" unicode-bidi="normal" text-decoration="none" transform="matrix(1 0 0 1 2245.28 2271)">6</text><path d="M2009.5 1745.5C2009.5 1709.6 2038.38 1680.5 2074 1680.5 2109.62 1680.5 2138.5 1709.6 2138.5 1745.5 2138.5 1781.4 2109.62 1810.5 2074 1810.5 2038.38 1810.5 2009.5 1781.4 2009.5 1745.5Z" stroke="#000000" stroke-width="6.875" stroke-linecap="butt" stroke-linejoin="miter" stroke-miterlimit="8" stroke-opacity="1" fill="#FFFFFF" fill-rule="evenodd" fill-opacity="1"/><text fill="#000000" fill-opacity="1" font-family="DengXian,DengXian_MSFontService,sans-serif" font-style="normal" font-variant="normal" font-weight="400" font-stretch="normal" font-size="83" text-anchor="start" direction="ltr" writing-mode="lr-tb" unicode-bidi="normal" text-decoration="none" transform="matrix(1 0 0 1 2049.73 1772)">b</text><path d="M2202.5 1745.5C2202.5 1709.6 2231.6 1680.5 2267.5 1680.5 2303.4 1680.5 2332.5 1709.6 2332.5 1745.5 2332.5 1781.4 2303.4 1810.5 2267.5 1810.5 2231.6 1810.5 2202.5 1781.4 2202.5 1745.5Z" stroke="#000000" stroke-width="6.875" stroke-linecap="butt" stroke-linejoin="miter" stroke-miterlimit="8" stroke-opacity="1" fill="#FFFFFF" fill-rule="evenodd" fill-opacity="1"/><text fill="#000000" fill-opacity="1" font-family="DengXian,DengXian_MSFontService,sans-serif" font-style="normal" font-variant="normal" font-weight="400" font-stretch="normal" font-size="83" text-anchor="start" direction="ltr" writing-mode="lr-tb" unicode-bidi="normal" text-decoration="none" transform="matrix(1 0 0 1 2248.43 1772)">c</text><path d="M2267.55 2178.39 2074 1810" stroke="#FF0000" stroke-width="13.75" stroke-linecap="butt" stroke-linejoin="miter" stroke-miterlimit="8" stroke-opacity="0.25098" fill="none" fill-rule="evenodd"/><path d="M0 0 193.548 368.392" stroke="#FF0000" stroke-width="13.75" stroke-linecap="butt" stroke-linejoin="miter" stroke-miterlimit="8" stroke-opacity="0.25098" fill="none" fill-rule="evenodd" transform="matrix(1 0 0 -1 2074 2178.39)"/><path d="M0 0 187.627 368.392" stroke="#000000" stroke-width="6.875" stroke-linecap="butt" stroke-linejoin="miter" stroke-miterlimit="8" stroke-opacity="0.25098" fill="none" fill-rule="evenodd" transform="matrix(1 0 0 -1 1318.5 2178.89)"/><path d="M0 0 0.000360892 368.392" stroke="#000000" stroke-width="13.75" stroke-linecap="butt" stroke-linejoin="miter" stroke-miterlimit="8" stroke-opacity="1" fill="none" fill-rule="evenodd" transform="matrix(1 0 0 -1 1506 2178.39)"/><path d="M0 0 0.000360892 368.392" stroke="#000000" stroke-width="13.75" stroke-linecap="butt" stroke-linejoin="miter" stroke-miterlimit="8" stroke-opacity="1" fill="none" fill-rule="evenodd" transform="matrix(1 0 0 -1 1693 2178.39)"/><path d="M2073.72 2178.89 1693.5 1810.5" stroke="#000000" stroke-width="6.875" stroke-linecap="butt" stroke-linejoin="miter" stroke-miterlimit="8" stroke-opacity="0.25098" fill="none" fill-rule="evenodd"/><path d="M2074.1 2178.89 1881.5 1810.5" stroke="#000000" stroke-width="6.875" stroke-linecap="butt" stroke-linejoin="miter" stroke-miterlimit="8" stroke-opacity="0.25098" fill="none" fill-rule="evenodd"/><path d="M0 0 0.000360892 368.392" stroke="#000000" stroke-width="6.875" stroke-linecap="butt" stroke-linejoin="miter" stroke-miterlimit="8" stroke-opacity="0.25098" fill="none" fill-rule="evenodd" transform="matrix(1 0 0 -1 2074.5 2178.89)"/><path d="M0 0 375.253 368.392" stroke="#000000" stroke-width="13.75" stroke-linecap="butt" stroke-linejoin="miter" stroke-miterlimit="8" stroke-opacity="1" fill="none" fill-rule="evenodd" transform="matrix(1 0 0 -1 1506 2178.39)"/><path d="M1693.63 2178.39 1506 1810" stroke="#FF0000" stroke-width="13.75" stroke-linecap="butt" stroke-linejoin="miter" stroke-miterlimit="8" stroke-opacity="1" fill="none" fill-rule="evenodd"/><path d="M1880.63 2178.39 1693 1810" stroke="#FF0000" stroke-width="13.75" stroke-linecap="butt" stroke-linejoin="miter" stroke-miterlimit="8" stroke-opacity="1" fill="none" fill-rule="evenodd"/></g></g></svg>