<svg width="1100" height="678" xmlns="http://www.w3.org/2000/svg" xmlns:xlink="http://www.w3.org/1999/xlink" xml:space="preserve" overflow="hidden"><g transform="translate(-1177 -852)"><g><path d="M1188.5 1429.5C1188.5 1393.6 1217.6 1364.5 1253.5 1364.5 1289.4 1364.5 1318.5 1393.6 1318.5 1429.5 1318.5 1465.4 1289.4 1494.5 1253.5 1494.5 1217.6 1494.5 1188.5 1465.4 1188.5 1429.5Z" stroke="#000000" stroke-width="6.875" stroke-linecap="butt" stroke-linejoin="miter" stroke-miterlimit="8" stroke-opacity="1" fill="#FFFFFF" fill-rule="evenodd" fill-opacity="1"/><text fill="#000000" fill-opacity="1" font-family="DengXian,DengXian_MSFontService,sans-serif" font-style="normal" font-variant="normal" font-weight="400" font-stretch="normal" font-size="83" text-anchor="start" direction="ltr" writing-mode="lr-tb" unicode-bidi="normal" text-decoration="none" transform="matrix(1 0 0 1 1231.3 1456)">1</text><path d="M1376.5 1429.5C1376.5 1393.6 1405.6 1364.5 1441.5 1364.5 1477.4 1364.5 1506.5 1393.6 1506.5 1429.5 1506.5 1465.4 1477.4 1494.5 1441.5 1494.5 1405.6 1494.5 1376.5 1465.4 1376.5 1429.5Z" stroke="#000000" stroke-width="6.875" stroke-linecap="butt" stroke-linejoin="miter" stroke-miterlimit="8" stroke-opacity="1" fill="#FFFFFF" fill-rule="evenodd" fill-opacity="1"/><text fill="#000000" fill-opacity="1" font-family="DengXian,DengXian_MSFontService,sans-serif" font-style="normal" font-variant="normal" font-weight="400" font-stretch="normal" font-size="83" text-anchor="start" direction="ltr" writing-mode="lr-tb" unicode-bidi="normal" text-decoration="none" transform="matrix(1 0 0 1 1418.92 1456)">2</text><path d="M1563.5 1429.5C1563.5 1393.6 1592.6 1364.5 1628.5 1364.5 1664.4 1364.5 1693.5 1393.6 1693.5 1429.5 1693.5 1465.4 1664.4 1494.5 1628.5 1494.5 1592.6 1494.5 1563.5 1465.4 1563.5 1429.5Z" stroke="#000000" stroke-width="6.875" stroke-linecap="butt" stroke-linejoin="miter" stroke-miterlimit="8" stroke-opacity="1" fill="#FFFFFF" fill-rule="evenodd" fill-opacity="1"/><text fill="#000000" fill-opacity="1" font-family="DengXian,DengXian_MSFontService,sans-serif" font-style="normal" font-variant="normal" font-weight="400" font-stretch="normal" font-size="83" text-anchor="start" direction="ltr" writing-mode="lr-tb" unicode-bidi="normal" text-decoration="none" transform="matrix(1 0 0 1 1606.55 1456)">3</text><path d="M1751.5 1429.5C1751.5 1393.6 1780.6 1364.5 1816.5 1364.5 1852.4 1364.5 1881.5 1393.6 1881.5 1429.5 1881.5 1465.4 1852.4 1494.5 1816.5 1494.5 1780.6 1494.5 1751.5 1465.4 1751.5 1429.5Z" stroke="#000000" stroke-width="6.875" stroke-linecap="butt" stroke-linejoin="miter" stroke-miterlimit="8" stroke-opacity="1" fill="#FFFFFF" fill-rule="evenodd" fill-opacity="1"/><text fill="#000000" fill-opacity="1" font-family="DengXian,DengXian_MSFontService,sans-serif" font-style="normal" font-variant="normal" font-weight="400" font-stretch="normal" font-size="83" text-anchor="start" direction="ltr" writing-mode="lr-tb" unicode-bidi="normal" text-decoration="none" transform="matrix(1 0 0 1 1794.18 1456)">4</text><path d="M1188.5 930.5C1188.5 894.602 1217.6 865.5 1253.5 865.5 1289.4 865.5 1318.5 894.602 1318.5 930.5 1318.5 966.398 1289.4 995.5 1253.5 995.5 1217.6 995.5 1188.5 966.398 1188.5 930.5Z" stroke="#000000" stroke-width="6.875" stroke-linecap="butt" stroke-linejoin="miter" stroke-miterlimit="8" stroke-opacity="1" fill="#FFFFFF" fill-rule="evenodd" fill-opacity="1"/><text fill="#000000" fill-opacity="1" font-family="DengXian,DengXian_MSFontService,sans-serif" font-style="normal" font-variant="normal" font-weight="400" font-stretch="normal" font-size="83" text-anchor="start" direction="ltr" writing-mode="lr-tb" unicode-bidi="normal" text-decoration="none" transform="matrix(1 0 0 1 1231.3 958)">7</text><path d="M1376.5 930.5C1376.5 894.602 1405.6 865.5 1441.5 865.5 1477.4 865.5 1506.5 894.602 1506.5 930.5 1506.5 966.398 1477.4 995.5 1441.5 995.5 1405.6 995.5 1376.5 966.398 1376.5 930.5Z" stroke="#000000" stroke-width="6.875" stroke-linecap="butt" stroke-linejoin="miter" stroke-miterlimit="8" stroke-opacity="1" fill="#FFFFFF" fill-rule="evenodd" fill-opacity="1"/><text fill="#000000" fill-opacity="1" font-family="DengXian,DengXian_MSFontService,sans-serif" font-style="normal" font-variant="normal" font-weight="400" font-stretch="normal" font-size="83" text-anchor="start" direction="ltr" writing-mode="lr-tb" unicode-bidi="normal" text-decoration="none" transform="matrix(1 0 0 1 1418.92 958)">8</text><path d="M1563.5 930.5C1563.5 894.602 1592.6 865.5 1628.5 865.5 1664.4 865.5 1693.5 894.602 1693.5 930.5 1693.5 966.398 1664.4 995.5 1628.5 995.5 1592.6 995.5 1563.5 966.398 1563.5 930.5Z" stroke="#000000" stroke-width="6.875" stroke-linecap="butt" stroke-linejoin="miter" stroke-miterlimit="8" stroke-opacity="1" fill="#FFFFFF" fill-rule="evenodd" fill-opacity="1"/><text fill="#000000" fill-opacity="1" font-family="DengXian,DengXian_MSFontService,sans-serif" font-style="normal" font-variant="normal" font-weight="400" font-stretch="normal" font-size="83" text-anchor="start" direction="ltr" writing-mode="lr-tb" unicode-bidi="normal" text-decoration="none" transform="matrix(1 0 0 1 1606.55 958)">9</text><path d="M1751.5 930.5C1751.5 894.602 1780.6 865.5 1816.5 865.5 1852.4 865.5 1881.5 894.602 1881.5 930.5 1881.5 966.398 1852.4 995.5 1816.5 995.5 1780.6 995.5 1751.5 966.398 1751.5 930.5Z" stroke="#000000" stroke-width="6.875" stroke-linecap="butt" stroke-linejoin="miter" stroke-miterlimit="8" stroke-opacity="1" fill="#FFFFFF" fill-rule="evenodd" fill-opacity="1"/><text fill="#000000" fill-opacity="1" font-family="DengXian,DengXian_MSFontService,sans-serif" font-style="normal" font-variant="normal" font-weight="400" font-stretch="normal" font-size="83" text-anchor="start" direction="ltr" writing-mode="lr-tb" unicode-bidi="normal" text-decoration="none" transform="matrix(1 0 0 1 1795.32 958)">a</text><path d="M0 0 0.000360892 368.392" stroke="#000000" stroke-width="6.875" stroke-linecap="butt" stroke-linejoin="miter" stroke-miterlimit="8" stroke-opacity="0.25098" fill="none" fill-rule="evenodd" transform="matrix(1 0 0 -1 1253.5 1363.89)"/><path d="M0 0 562.88 368.392" stroke="#FF0000" stroke-width="13.75" stroke-linecap="butt" stroke-linejoin="miter" stroke-miterlimit="8" stroke-opacity="0.25098" fill="none" fill-rule="evenodd" transform="matrix(1 0 0 -1 1253 1363.39)"/><path d="M1628.63 1363.39 1441 995" stroke="#FF0000" stroke-width="13.75" stroke-linecap="butt" stroke-linejoin="miter" stroke-miterlimit="8" stroke-opacity="1" fill="none" fill-rule="evenodd"/><path d="M1815.63 1363.39 1628 995" stroke="#FF0000" stroke-width="13.75" stroke-linecap="butt" stroke-linejoin="miter" stroke-miterlimit="8" stroke-opacity="1" fill="none" fill-rule="evenodd"/><path d="M1944.5 1429.5C1944.5 1393.6 1973.6 1364.5 2009.5 1364.5 2045.4 1364.5 2074.5 1393.6 2074.5 1429.5 2074.5 1465.4 2045.4 1494.5 2009.5 1494.5 1973.6 1494.5 1944.5 1465.4 1944.5 1429.5Z" stroke="#000000" stroke-width="6.875" stroke-linecap="butt" stroke-linejoin="miter" stroke-miterlimit="8" stroke-opacity="1" fill="#FFFFFF" fill-rule="evenodd" fill-opacity="1"/><text fill="#000000" fill-opacity="1" font-family="DengXian,DengXian_MSFontService,sans-serif" font-style="normal" font-variant="normal" font-weight="400" font-stretch="normal" font-size="83" text-anchor="start" direction="ltr" writing-mode="lr-tb" unicode-bidi="normal" text-decoration="none" transform="matrix(1 0 0 1 1986.77 1456)">5</text><path d="M2137.5 1429.5C2137.5 1393.6 2166.6 1364.5 2202.5 1364.5 2238.4 1364.5 2267.5 1393.6 2267.5 1429.5 2267.5 1465.4 2238.4 1494.5 2202.5 1494.5 2166.6 1494.5 2137.5 1465.4 2137.5 1429.5Z" stroke="#000000" stroke-width="6.875" stroke-linecap="butt" stroke-linejoin="miter" stroke-miterlimit="8" stroke-opacity="1" fill="#FFFFFF" fill-rule="evenodd" fill-opacity="1"/><text fill="#000000" fill-opacity="1" font-family="DengXian,DengXian_MSFontService,sans-serif" font-style="normal" font-variant="normal" font-weight="400" font-stretch="normal" font-size="83" text-anchor="start" direction="ltr" writing-mode="lr-tb" unicode-bidi="normal" text-decoration="none" transform="matrix(1 0 0 1 2180.32 1456)">6</text><path d="M1944.5 930.5C1944.5 894.602 1973.6 865.5 2009.5 865.5 2045.4 865.5 2074.5 894.602 2074.5 930.5 2074.5 966.398 2045.4 995.5 2009.5 995.5 1973.6 995.5 1944.5 966.398 1944.5 930.5Z" stroke="#000000" stroke-width="6.875" stroke-linecap="butt" stroke-linejoin="miter" stroke-miterlimit="8" stroke-opacity="1" fill="#FFFFFF" fill-rule="evenodd" fill-opacity="1"/><text fill="#000000" fill-opacity="1" font-family="DengXian,DengXian_MSFontService,sans-serif" font-style="normal" font-variant="normal" font-weight="400" font-stretch="normal" font-size="83" text-anchor="start" direction="ltr" writing-mode="lr-tb" unicode-bidi="normal" text-decoration="none" transform="matrix(1 0 0 1 1984.77 958)">b</text><path d="M2137.5 930.5C2137.5 894.602 2166.6 865.5 2202.5 865.5 2238.4 865.5 2267.5 894.602 2267.5 930.5 2267.5 966.398 2238.4 995.5 2202.5 995.5 2166.6 995.5 2137.5 966.398 2137.5 930.5Z" stroke="#000000" stroke-width="6.875" stroke-linecap="butt" stroke-linejoin="miter" stroke-miterlimit="8" stroke-opacity="1" fill="#FFFFFF" fill-rule="evenodd" fill-opacity="1"/><text fill="#000000" fill-opacity="1" font-family="DengXian,DengXian_MSFontService,sans-serif" font-style="normal" font-variant="normal" font-weight="400" font-stretch="normal" font-size="83" text-anchor="start" direction="ltr" writing-mode="lr-tb" unicode-bidi="normal" text-decoration="none" transform="matrix(1 0 0 1 2183.47 958)">c</text><path d="M2202.55 1363.39 2009 995" stroke="#FF0000" stroke-width="13.75" stroke-linecap="butt" stroke-linejoin="miter" stroke-miterlimit="8" stroke-opacity="0.25098" fill="none" fill-rule="evenodd"/><path d="M0 0 193.548 368.392" stroke="#FF0000" stroke-width="13.75" stroke-linecap="butt" stroke-linejoin="miter" stroke-miterlimit="8" stroke-opacity="0.25098" fill="none" fill-rule="evenodd" transform="matrix(1 0 0 -1 2009 1363.39)"/><path d="M0 0 187.627 368.392" stroke="#000000" stroke-width="6.875" stroke-linecap="butt" stroke-linejoin="miter" stroke-miterlimit="8" stroke-opacity="0.25098" fill="none" fill-rule="evenodd" transform="matrix(1 0 0 -1 1253.5 1363.89)"/><path d="M0 0 0.000360892 368.392" stroke="#000000" stroke-width="13.75" stroke-linecap="butt" stroke-linejoin="miter" stroke-miterlimit="8" stroke-opacity="1" fill="none" fill-rule="evenodd" transform="matrix(1 0 0 -1 1441 1363.39)"/><path d="M0 0 0.000360892 368.392" stroke="#000000" stroke-width="13.75" stroke-linecap="butt" stroke-linejoin="miter" stroke-miterlimit="8" stroke-opacity="1" fill="none" fill-rule="evenodd" transform="matrix(1 0 0 -1 1628 1363.39)"/><path d="M2008.72 1363.89 1628.5 995.5" stroke="#000000" stroke-width="6.875" stroke-linecap="butt" stroke-linejoin="miter" stroke-miterlimit="8" stroke-opacity="0.25098" fill="none" fill-rule="evenodd"/><path d="M2009.1 1363.89 1816.5 995.5" stroke="#000000" stroke-width="6.875" stroke-linecap="butt" stroke-linejoin="miter" stroke-miterlimit="8" stroke-opacity="0.25098" fill="none" fill-rule="evenodd"/><path d="M0 0 0.000360892 368.392" stroke="#000000" stroke-width="6.875" stroke-linecap="butt" stroke-linejoin="miter" stroke-miterlimit="8" stroke-opacity="0.25098" fill="none" fill-rule="evenodd" transform="matrix(1 0 0 -1 2009.5 1363.89)"/></g></g></svg>