<svg width="1646" height="743" xmlns="http://www.w3.org/2000/svg" xmlns:xlink="http://www.w3.org/1999/xlink" xml:space="preserve" overflow="hidden"><g transform="translate(-1356 -279)"><g><path d="M1368.5 355.5C1368.5 319.601 1397.6 290.5 1433.5 290.5 1469.4 290.5 1498.5 319.601 1498.5 355.5 1498.5 391.398 1469.4 420.5 1433.5 420.5 1397.6 420.5 1368.5 391.398 1368.5 355.5Z" stroke="#000000" stroke-width="6.875" stroke-linecap="butt" stroke-linejoin="miter" stroke-miterlimit="8" stroke-opacity="1" fill="#FFFFFF" fill-rule="evenodd" fill-opacity="1"/><text fill="#000000" fill-opacity="1" font-family="DengXian,DengXian_MSFontService,sans-serif" font-style="normal" font-variant="normal" font-weight="400" font-stretch="normal" font-size="83" text-anchor="start" direction="ltr" writing-mode="lr-tb" unicode-bidi="normal" text-decoration="none" transform="matrix(1 0 0 1 1410.9 383)">1</text><path d="M1368.5 543.5C1368.5 507.601 1397.6 478.5 1433.5 478.5 1469.4 478.5 1498.5 507.601 1498.5 543.5 1498.5 579.398 1469.4 608.5 1433.5 608.5 1397.6 608.5 1368.5 579.398 1368.5 543.5Z" stroke="#000000" stroke-width="6.875" stroke-linecap="butt" stroke-linejoin="miter" stroke-miterlimit="8" stroke-opacity="1" fill="#FFFFFF" fill-rule="evenodd" fill-opacity="1"/><text fill="#000000" fill-opacity="1" font-family="DengXian,DengXian_MSFontService,sans-serif" font-style="normal" font-variant="normal" font-weight="400" font-stretch="normal" font-size="83" text-anchor="start" direction="ltr" writing-mode="lr-tb" unicode-bidi="normal" text-decoration="none" transform="matrix(1 0 0 1 1410.9 570)">2</text><path d="M1368.5 730.5C1368.5 694.602 1397.6 665.5 1433.5 665.5 1469.4 665.5 1498.5 694.602 1498.5 730.5 1498.5 766.398 1469.4 795.5 1433.5 795.5 1397.6 795.5 1368.5 766.398 1368.5 730.5Z" stroke="#000000" stroke-width="6.875" stroke-linecap="butt" stroke-linejoin="miter" stroke-miterlimit="8" stroke-opacity="1" fill="#FFFFFF" fill-rule="evenodd" fill-opacity="1"/><text fill="#000000" fill-opacity="1" font-family="DengXian,DengXian_MSFontService,sans-serif" font-style="normal" font-variant="normal" font-weight="400" font-stretch="normal" font-size="83" text-anchor="start" direction="ltr" writing-mode="lr-tb" unicode-bidi="normal" text-decoration="none" transform="matrix(1 0 0 1 1410.9 758)">3</text><path d="M1368.5 918.5C1368.5 882.602 1397.6 853.5 1433.5 853.5 1469.4 853.5 1498.5 882.602 1498.5 918.5 1498.5 954.398 1469.4 983.5 1433.5 983.5 1397.6 983.5 1368.5 954.398 1368.5 918.5Z" stroke="#000000" stroke-width="6.875" stroke-linecap="butt" stroke-linejoin="miter" stroke-miterlimit="8" stroke-opacity="1" fill="#FFFFFF" fill-rule="evenodd" fill-opacity="1"/><text fill="#000000" fill-opacity="1" font-family="DengXian,DengXian_MSFontService,sans-serif" font-style="normal" font-variant="normal" font-weight="400" font-stretch="normal" font-size="83" text-anchor="start" direction="ltr" writing-mode="lr-tb" unicode-bidi="normal" text-decoration="none" transform="matrix(1 0 0 1 1410.9 946)">4</text><path d="M1866.5 355.5C1866.5 319.601 1895.6 290.5 1931.5 290.5 1967.4 290.5 1996.5 319.601 1996.5 355.5 1996.5 391.398 1967.4 420.5 1931.5 420.5 1895.6 420.5 1866.5 391.398 1866.5 355.5Z" stroke="#000000" stroke-width="6.875" stroke-linecap="butt" stroke-linejoin="miter" stroke-miterlimit="8" stroke-opacity="1" fill="#FFFFFF" fill-rule="evenodd" fill-opacity="1"/><text fill="#000000" fill-opacity="1" font-family="DengXian,DengXian_MSFontService,sans-serif" font-style="normal" font-variant="normal" font-weight="400" font-stretch="normal" font-size="83" text-anchor="start" direction="ltr" writing-mode="lr-tb" unicode-bidi="normal" text-decoration="none" transform="matrix(1 0 0 1 1909.21 383)">5</text><path d="M1866.5 543.5C1866.5 507.601 1895.6 478.5 1931.5 478.5 1967.4 478.5 1996.5 507.601 1996.5 543.5 1996.5 579.398 1967.4 608.5 1931.5 608.5 1895.6 608.5 1866.5 579.398 1866.5 543.5Z" stroke="#000000" stroke-width="6.875" stroke-linecap="butt" stroke-linejoin="miter" stroke-miterlimit="8" stroke-opacity="1" fill="#FFFFFF" fill-rule="evenodd" fill-opacity="1"/><text fill="#000000" fill-opacity="1" font-family="DengXian,DengXian_MSFontService,sans-serif" font-style="normal" font-variant="normal" font-weight="400" font-stretch="normal" font-size="83" text-anchor="start" direction="ltr" writing-mode="lr-tb" unicode-bidi="normal" text-decoration="none" transform="matrix(1 0 0 1 1909.21 570)">6</text><path d="M1866.5 730.5C1866.5 694.602 1895.6 665.5 1931.5 665.5 1967.4 665.5 1996.5 694.602 1996.5 730.5 1996.5 766.398 1967.4 795.5 1931.5 795.5 1895.6 795.5 1866.5 766.398 1866.5 730.5Z" stroke="#000000" stroke-width="6.875" stroke-linecap="butt" stroke-linejoin="miter" stroke-miterlimit="8" stroke-opacity="1" fill="#FFFFFF" fill-rule="evenodd" fill-opacity="1"/><text fill="#000000" fill-opacity="1" font-family="DengXian,DengXian_MSFontService,sans-serif" font-style="normal" font-variant="normal" font-weight="400" font-stretch="normal" font-size="83" text-anchor="start" direction="ltr" writing-mode="lr-tb" unicode-bidi="normal" text-decoration="none" transform="matrix(1 0 0 1 1909.21 758)">7</text><path d="M1866.5 918.5C1866.5 882.602 1895.6 853.5 1931.5 853.5 1967.4 853.5 1996.5 882.602 1996.5 918.5 1996.5 954.398 1967.4 983.5 1931.5 983.5 1895.6 983.5 1866.5 954.398 1866.5 918.5Z" stroke="#000000" stroke-width="6.875" stroke-linecap="butt" stroke-linejoin="miter" stroke-miterlimit="8" stroke-opacity="1" fill="#FFFFFF" fill-rule="evenodd" fill-opacity="1"/><text fill="#000000" fill-opacity="1" font-family="DengXian,DengXian_MSFontService,sans-serif" font-style="normal" font-variant="normal" font-weight="400" font-stretch="normal" font-size="83" text-anchor="start" direction="ltr" writing-mode="lr-tb" unicode-bidi="normal" text-decoration="none" transform="matrix(1 0 0 1 1909.21 946)">8</text><path d="M1498.5 355.5 1866.89 355.5" stroke="#000000" stroke-width="6.875" stroke-linecap="butt" stroke-linejoin="miter" stroke-miterlimit="8" stroke-opacity="1" fill="none" fill-rule="evenodd"/><path d="M1498.5 355.5 1866.89 730.753" stroke="#000000" stroke-width="6.875" stroke-linecap="butt" stroke-linejoin="miter" stroke-miterlimit="8" stroke-opacity="1" fill="none" fill-rule="evenodd"/><path d="M0 0 368.392 187.627" stroke="#000000" stroke-width="6.875" stroke-linecap="butt" stroke-linejoin="miter" stroke-miterlimit="8" stroke-opacity="1" fill="none" fill-rule="evenodd" transform="matrix(1 0 0 -1 1498.5 543.126)"/><path d="M0 0 368.392 375.253" stroke="#000000" stroke-width="6.875" stroke-linecap="butt" stroke-linejoin="miter" stroke-miterlimit="8" stroke-opacity="1" fill="none" fill-rule="evenodd" transform="matrix(1 0 0 -1 1498.5 730.753)"/><path d="M0 0 368.392 187.627" stroke="#000000" stroke-width="6.875" stroke-linecap="butt" stroke-linejoin="miter" stroke-miterlimit="8" stroke-opacity="1" fill="none" fill-rule="evenodd" transform="matrix(1 0 0 -1 1498.5 731.126)"/><path d="M0 0 368.392 187.627" stroke="#000000" stroke-width="6.875" stroke-linecap="butt" stroke-linejoin="miter" stroke-miterlimit="8" stroke-opacity="1" fill="none" fill-rule="evenodd" transform="matrix(1 0 0 -1 1498.5 918.127)"/><path d="M1498.5 918.5 1866.89 918.5" stroke="#000000" stroke-width="6.875" stroke-linecap="butt" stroke-linejoin="miter" stroke-miterlimit="8" stroke-opacity="1" fill="none" fill-rule="evenodd"/><path d="M2364.5 355.5C2364.5 319.601 2393.6 290.5 2429.5 290.5 2465.4 290.5 2494.5 319.601 2494.5 355.5 2494.5 391.398 2465.4 420.5 2429.5 420.5 2393.6 420.5 2364.5 391.398 2364.5 355.5Z" stroke="#000000" stroke-width="6.875" stroke-linecap="butt" stroke-linejoin="miter" stroke-miterlimit="8" stroke-opacity="1" fill="#FFFFFF" fill-rule="evenodd" fill-opacity="1"/><text fill="#000000" fill-opacity="1" font-family="DengXian,DengXian_MSFontService,sans-serif" font-style="normal" font-variant="normal" font-weight="400" font-stretch="normal" font-size="83" text-anchor="start" direction="ltr" writing-mode="lr-tb" unicode-bidi="normal" text-decoration="none" transform="matrix(1 0 0 1 2407.53 383)">1</text><path d="M2364.5 543.5C2364.5 507.601 2393.6 478.5 2429.5 478.5 2465.4 478.5 2494.5 507.601 2494.5 543.5 2494.5 579.398 2465.4 608.5 2429.5 608.5 2393.6 608.5 2364.5 579.398 2364.5 543.5Z" stroke="#000000" stroke-width="6.875" stroke-linecap="butt" stroke-linejoin="miter" stroke-miterlimit="8" stroke-opacity="1" fill="#FFFFFF" fill-rule="evenodd" fill-opacity="1"/><text fill="#000000" fill-opacity="1" font-family="DengXian,DengXian_MSFontService,sans-serif" font-style="normal" font-variant="normal" font-weight="400" font-stretch="normal" font-size="83" text-anchor="start" direction="ltr" writing-mode="lr-tb" unicode-bidi="normal" text-decoration="none" transform="matrix(1 0 0 1 2407.53 570)">2</text><path d="M2364.5 730.5C2364.5 694.602 2393.6 665.5 2429.5 665.5 2465.4 665.5 2494.5 694.602 2494.5 730.5 2494.5 766.398 2465.4 795.5 2429.5 795.5 2393.6 795.5 2364.5 766.398 2364.5 730.5Z" stroke="#000000" stroke-width="6.875" stroke-linecap="butt" stroke-linejoin="miter" stroke-miterlimit="8" stroke-opacity="1" fill="#FFFFFF" fill-rule="evenodd" fill-opacity="1"/><text fill="#000000" fill-opacity="1" font-family="DengXian,DengXian_MSFontService,sans-serif" font-style="normal" font-variant="normal" font-weight="400" font-stretch="normal" font-size="83" text-anchor="start" direction="ltr" writing-mode="lr-tb" unicode-bidi="normal" text-decoration="none" transform="matrix(1 0 0 1 2407.53 758)">3</text><path d="M2364.5 918.5C2364.5 882.602 2393.6 853.5 2429.5 853.5 2465.4 853.5 2494.5 882.602 2494.5 918.5 2494.5 954.398 2465.4 983.5 2429.5 983.5 2393.6 983.5 2364.5 954.398 2364.5 918.5Z" stroke="#000000" stroke-width="6.875" stroke-linecap="butt" stroke-linejoin="miter" stroke-miterlimit="8" stroke-opacity="1" fill="#FFFFFF" fill-rule="evenodd" fill-opacity="1"/><text fill="#000000" fill-opacity="1" font-family="DengXian,DengXian_MSFontService,sans-serif" font-style="normal" font-variant="normal" font-weight="400" font-stretch="normal" font-size="83" text-anchor="start" direction="ltr" writing-mode="lr-tb" unicode-bidi="normal" text-decoration="none" transform="matrix(1 0 0 1 2407.53 946)">4</text><path d="M2863.5 355.5C2863.5 319.601 2892.6 290.5 2928.5 290.5 2964.4 290.5 2993.5 319.601 2993.5 355.5 2993.5 391.398 2964.4 420.5 2928.5 420.5 2892.6 420.5 2863.5 391.398 2863.5 355.5Z" stroke="#000000" stroke-width="6.875" stroke-linecap="butt" stroke-linejoin="miter" stroke-miterlimit="8" stroke-opacity="1" fill="#FFFFFF" fill-rule="evenodd" fill-opacity="1"/><text fill="#000000" fill-opacity="1" font-family="DengXian,DengXian_MSFontService,sans-serif" font-style="normal" font-variant="normal" font-weight="400" font-stretch="normal" font-size="83" text-anchor="start" direction="ltr" writing-mode="lr-tb" unicode-bidi="normal" text-decoration="none" transform="matrix(1 0 0 1 2905.84 383)">5</text><path d="M2863.5 543.5C2863.5 507.601 2892.6 478.5 2928.5 478.5 2964.4 478.5 2993.5 507.601 2993.5 543.5 2993.5 579.398 2964.4 608.5 2928.5 608.5 2892.6 608.5 2863.5 579.398 2863.5 543.5Z" stroke="#000000" stroke-width="6.875" stroke-linecap="butt" stroke-linejoin="miter" stroke-miterlimit="8" stroke-opacity="1" fill="#FFFFFF" fill-rule="evenodd" fill-opacity="1"/><text fill="#000000" fill-opacity="1" font-family="DengXian,DengXian_MSFontService,sans-serif" font-style="normal" font-variant="normal" font-weight="400" font-stretch="normal" font-size="83" text-anchor="start" direction="ltr" writing-mode="lr-tb" unicode-bidi="normal" text-decoration="none" transform="matrix(1 0 0 1 2905.84 570)">6</text><path d="M2863.5 730.5C2863.5 694.602 2892.6 665.5 2928.5 665.5 2964.4 665.5 2993.5 694.602 2993.5 730.5 2993.5 766.398 2964.4 795.5 2928.5 795.5 2892.6 795.5 2863.5 766.398 2863.5 730.5Z" stroke="#000000" stroke-width="6.875" stroke-linecap="butt" stroke-linejoin="miter" stroke-miterlimit="8" stroke-opacity="1" fill="#FFFFFF" fill-rule="evenodd" fill-opacity="1"/><text fill="#000000" fill-opacity="1" font-family="DengXian,DengXian_MSFontService,sans-serif" font-style="normal" font-variant="normal" font-weight="400" font-stretch="normal" font-size="83" text-anchor="start" direction="ltr" writing-mode="lr-tb" unicode-bidi="normal" text-decoration="none" transform="matrix(1 0 0 1 2905.84 758)">7</text><path d="M2863.5 918.5C2863.5 882.602 2892.6 853.5 2928.5 853.5 2964.4 853.5 2993.5 882.602 2993.5 918.5 2993.5 954.398 2964.4 983.5 2928.5 983.5 2892.6 983.5 2863.5 954.398 2863.5 918.5Z" stroke="#000000" stroke-width="6.875" stroke-linecap="butt" stroke-linejoin="miter" stroke-miterlimit="8" stroke-opacity="1" fill="#FFFFFF" fill-rule="evenodd" fill-opacity="1"/><text fill="#000000" fill-opacity="1" font-family="DengXian,DengXian_MSFontService,sans-serif" font-style="normal" font-variant="normal" font-weight="400" font-stretch="normal" font-size="83" text-anchor="start" direction="ltr" writing-mode="lr-tb" unicode-bidi="normal" text-decoration="none" transform="matrix(1 0 0 1 2905.84 946)">8</text><path d="M2494.5 355.5 2862.89 355.5" stroke="#000000" stroke-width="6.875" stroke-linecap="butt" stroke-linejoin="miter" stroke-miterlimit="8" stroke-opacity="1" fill="none" fill-rule="evenodd"/><path d="M2494.5 355.5 2862.89 730.753" stroke="#FF0000" stroke-width="6.875" stroke-linecap="butt" stroke-linejoin="miter" stroke-miterlimit="8" stroke-opacity="1" fill="none" fill-rule="evenodd"/><path d="M0 0 368.392 187.627" stroke="#FF0000" stroke-width="6.875" stroke-linecap="butt" stroke-linejoin="miter" stroke-miterlimit="8" stroke-opacity="1" fill="none" fill-rule="evenodd" transform="matrix(1 0 0 -1 2494.5 543.126)"/><path d="M0 0 368.392 375.253" stroke="#000000" stroke-width="6.875" stroke-linecap="butt" stroke-linejoin="miter" stroke-miterlimit="8" stroke-opacity="1" fill="none" fill-rule="evenodd" transform="matrix(1 0 0 -1 2494.5 730.753)"/><path d="M0 0 368.392 187.627" stroke="#FF0000" stroke-width="6.875" stroke-linecap="butt" stroke-linejoin="miter" stroke-miterlimit="8" stroke-opacity="1" fill="none" fill-rule="evenodd" transform="matrix(1 0 0 -1 2494.5 731.126)"/><path d="M0 0 368.392 187.627" stroke="#000000" stroke-width="6.875" stroke-linecap="butt" stroke-linejoin="miter" stroke-miterlimit="8" stroke-opacity="1" fill="none" fill-rule="evenodd" transform="matrix(1 0 0 -1 2494.5 918.127)"/><path d="M2494.5 918.5 2862.89 918.5" stroke="#FF0000" stroke-width="6.875" stroke-linecap="butt" stroke-linejoin="miter" stroke-miterlimit="8" stroke-opacity="1" fill="none" fill-rule="evenodd"/></g></g></svg>