<svg width="2475" height="743" xmlns="http://www.w3.org/2000/svg" xmlns:xlink="http://www.w3.org/1999/xlink" xml:space="preserve" overflow="hidden"><g transform="translate(-371 -224)"><g><path d="M1777.5 304C1777.5 268.378 1806.6 239.5 1842.5 239.5 1878.4 239.5 1907.5 268.378 1907.5 304 1907.5 339.622 1878.4 368.5 1842.5 368.5 1806.6 368.5 1777.5 339.622 1777.5 304Z" stroke="#000000" stroke-width="6.875" stroke-linecap="butt" stroke-linejoin="miter" stroke-miterlimit="8" stroke-opacity="1" fill="#FFFFFF" fill-rule="evenodd" fill-opacity="1"/><text fill="#000000" fill-opacity="1" font-family="DengXian,DengXian_MSFontService,sans-serif" font-style="normal" font-variant="normal" font-weight="400" font-stretch="normal" font-size="83" text-anchor="start" direction="ltr" writing-mode="lr-tb" unicode-bidi="normal" text-decoration="none" transform="matrix(1 0 0 1 1820.42 331)">1</text><path d="M1777.5 491.5C1777.5 455.602 1806.6 426.5 1842.5 426.5 1878.4 426.5 1907.5 455.602 1907.5 491.5 1907.5 527.399 1878.4 556.5 1842.5 556.5 1806.6 556.5 1777.5 527.399 1777.5 491.5Z" stroke="#000000" stroke-width="6.875" stroke-linecap="butt" stroke-linejoin="miter" stroke-miterlimit="8" stroke-opacity="1" fill="#FFFFFF" fill-rule="evenodd" fill-opacity="1"/><text fill="#000000" fill-opacity="1" font-family="DengXian,DengXian_MSFontService,sans-serif" font-style="normal" font-variant="normal" font-weight="400" font-stretch="normal" font-size="83" text-anchor="start" direction="ltr" writing-mode="lr-tb" unicode-bidi="normal" text-decoration="none" transform="matrix(1 0 0 1 1820.42 519)">2</text><path d="M1777.5 679.5C1777.5 643.602 1806.6 614.5 1842.5 614.5 1878.4 614.5 1907.5 643.602 1907.5 679.5 1907.5 715.399 1878.4 744.5 1842.5 744.5 1806.6 744.5 1777.5 715.399 1777.5 679.5Z" stroke="#000000" stroke-width="6.875" stroke-linecap="butt" stroke-linejoin="miter" stroke-miterlimit="8" stroke-opacity="1" fill="#FFFFFF" fill-rule="evenodd" fill-opacity="1"/><text fill="#000000" fill-opacity="1" font-family="DengXian,DengXian_MSFontService,sans-serif" font-style="normal" font-variant="normal" font-weight="400" font-stretch="normal" font-size="83" text-anchor="start" direction="ltr" writing-mode="lr-tb" unicode-bidi="normal" text-decoration="none" transform="matrix(1 0 0 1 1820.42 706)">3</text><path d="M1777.5 866.5C1777.5 830.602 1806.6 801.5 1842.5 801.5 1878.4 801.5 1907.5 830.602 1907.5 866.5 1907.5 902.399 1878.4 931.5 1842.5 931.5 1806.6 931.5 1777.5 902.399 1777.5 866.5Z" stroke="#000000" stroke-width="6.875" stroke-linecap="butt" stroke-linejoin="miter" stroke-miterlimit="8" stroke-opacity="1" fill="#FFFFFF" fill-rule="evenodd" fill-opacity="1"/><text fill="#000000" fill-opacity="1" font-family="DengXian,DengXian_MSFontService,sans-serif" font-style="normal" font-variant="normal" font-weight="400" font-stretch="normal" font-size="83" text-anchor="start" direction="ltr" writing-mode="lr-tb" unicode-bidi="normal" text-decoration="none" transform="matrix(1 0 0 1 1820.42 894)">4</text><path d="M2276.5 304C2276.5 268.378 2305.38 239.5 2341 239.5 2376.62 239.5 2405.5 268.378 2405.5 304 2405.5 339.622 2376.62 368.5 2341 368.5 2305.38 368.5 2276.5 339.622 2276.5 304Z" stroke="#000000" stroke-width="6.875" stroke-linecap="butt" stroke-linejoin="miter" stroke-miterlimit="8" stroke-opacity="1" fill="#FFFFFF" fill-rule="evenodd" fill-opacity="1"/><text fill="#000000" fill-opacity="1" font-family="DengXian,DengXian_MSFontService,sans-serif" font-style="normal" font-variant="normal" font-weight="400" font-stretch="normal" font-size="83" text-anchor="start" direction="ltr" writing-mode="lr-tb" unicode-bidi="normal" text-decoration="none" transform="matrix(1 0 0 1 2318.73 331)">5</text><path d="M2276.5 491.5C2276.5 455.602 2305.38 426.5 2341 426.5 2376.62 426.5 2405.5 455.602 2405.5 491.5 2405.5 527.399 2376.62 556.5 2341 556.5 2305.38 556.5 2276.5 527.399 2276.5 491.5Z" stroke="#000000" stroke-width="6.875" stroke-linecap="butt" stroke-linejoin="miter" stroke-miterlimit="8" stroke-opacity="1" fill="#FFFFFF" fill-rule="evenodd" fill-opacity="1"/><text fill="#000000" fill-opacity="1" font-family="DengXian,DengXian_MSFontService,sans-serif" font-style="normal" font-variant="normal" font-weight="400" font-stretch="normal" font-size="83" text-anchor="start" direction="ltr" writing-mode="lr-tb" unicode-bidi="normal" text-decoration="none" transform="matrix(1 0 0 1 2318.73 519)">6</text><path d="M2276.5 679.5C2276.5 643.602 2305.38 614.5 2341 614.5 2376.62 614.5 2405.5 643.602 2405.5 679.5 2405.5 715.399 2376.62 744.5 2341 744.5 2305.38 744.5 2276.5 715.399 2276.5 679.5Z" stroke="#000000" stroke-width="6.875" stroke-linecap="butt" stroke-linejoin="miter" stroke-miterlimit="8" stroke-opacity="1" fill="#FFFFFF" fill-rule="evenodd" fill-opacity="1"/><text fill="#000000" fill-opacity="1" font-family="DengXian,DengXian_MSFontService,sans-serif" font-style="normal" font-variant="normal" font-weight="400" font-stretch="normal" font-size="83" text-anchor="start" direction="ltr" writing-mode="lr-tb" unicode-bidi="normal" text-decoration="none" transform="matrix(1 0 0 1 2318.73 706)">7</text><path d="M2276.5 866.5C2276.5 830.602 2305.38 801.5 2341 801.5 2376.62 801.5 2405.5 830.602 2405.5 866.5 2405.5 902.399 2376.62 931.5 2341 931.5 2305.38 931.5 2276.5 902.399 2276.5 866.5Z" stroke="#000000" stroke-width="6.875" stroke-linecap="butt" stroke-linejoin="miter" stroke-miterlimit="8" stroke-opacity="1" fill="#FFFFFF" fill-rule="evenodd" fill-opacity="1"/><text fill="#000000" fill-opacity="1" font-family="DengXian,DengXian_MSFontService,sans-serif" font-style="normal" font-variant="normal" font-weight="400" font-stretch="normal" font-size="83" text-anchor="start" direction="ltr" writing-mode="lr-tb" unicode-bidi="normal" text-decoration="none" transform="matrix(1 0 0 1 2318.73 894)">8</text><path d="M1907.5 301.063 2252.98 301.063 2252.98 307.938 1907.5 307.938ZM2248.39 290.75 2275.89 304.5 2248.39 318.25Z" fill="#000000" fill-rule="nonzero" fill-opacity="1"/><path d="M1909.95 302.092 2262.29 660.991 2257.38 665.807 1905.05 306.908ZM2266.44 650.496 2275.89 679.753 2246.81 669.762Z" fill="#000000" fill-rule="nonzero" fill-opacity="1"/><path d="M1.56007-3.0631 349.531 174.163 346.411 180.289-1.56007 3.0631ZM350.128 162.894 368.392 187.627 337.647 187.398Z" fill="#000000" fill-rule="nonzero" fill-opacity="1" transform="matrix(1 0 0 -1 1907.5 492.127)"/><path d="M2.453-2.40815 354.79 356.491 349.884 361.307-2.453 2.40815ZM358.939 345.996 368.392 375.253 339.315 365.262Z" fill="#000000" fill-rule="nonzero" fill-opacity="1" transform="matrix(1 0 0 -1 1907.5 679.753)"/><path d="M1.56007-3.0631 349.531 174.163 346.411 180.289-1.56007 3.0631ZM350.128 162.894 368.392 187.627 337.647 187.398Z" fill="#000000" fill-rule="nonzero" fill-opacity="1" transform="matrix(1 0 0 -1 1907.5 679.127)"/><path d="M1.56008-3.0631 349.532 174.163 346.412 180.29-1.56008 3.0631ZM350.128 162.894 368.392 187.627 337.647 187.399Z" fill="#000000" fill-rule="nonzero" fill-opacity="1" transform="matrix(1 0 0 -1 1907.5 867.127)"/><path d="M1907.5 863.063 2252.98 863.063 2252.98 869.938 1907.5 869.938ZM2248.39 852.75 2275.89 866.5 2248.39 880.25Z" fill="#000000" fill-rule="nonzero" fill-opacity="1"/><path d="M1344.5 585.5C1344.5 549.601 1373.6 520.5 1409.5 520.5 1445.4 520.5 1474.5 549.601 1474.5 585.5 1474.5 621.398 1445.4 650.5 1409.5 650.5 1373.6 650.5 1344.5 621.398 1344.5 585.5Z" stroke="#000000" stroke-width="6.875" stroke-linecap="butt" stroke-linejoin="miter" stroke-miterlimit="8" stroke-opacity="1" fill="#FFFFFF" fill-rule="evenodd" fill-opacity="1"/><text fill="#000000" fill-opacity="1" font-family="DengXian,DengXian_MSFontService,sans-serif" font-style="normal" font-variant="normal" font-weight="400" font-stretch="normal" font-size="83" text-anchor="start" direction="ltr" writing-mode="lr-tb" unicode-bidi="normal" text-decoration="none" transform="matrix(1 0 0 1 1391.93 612)">s</text><path d="M2709.5 585.5C2709.5 549.601 2738.6 520.5 2774.5 520.5 2810.4 520.5 2839.5 549.601 2839.5 585.5 2839.5 621.398 2810.4 650.5 2774.5 650.5 2738.6 650.5 2709.5 621.398 2709.5 585.5Z" stroke="#000000" stroke-width="6.875" stroke-linecap="butt" stroke-linejoin="miter" stroke-miterlimit="8" stroke-opacity="1" fill="#FFFFFF" fill-rule="evenodd" fill-opacity="1"/><text fill="#000000" fill-opacity="1" font-family="DengXian,DengXian_MSFontService,sans-serif" font-style="normal" font-variant="normal" font-weight="400" font-stretch="normal" font-size="83" text-anchor="start" direction="ltr" writing-mode="lr-tb" unicode-bidi="normal" text-decoration="none" transform="matrix(1 0 0 1 2760.68 612)">t</text><path d="M2.33763-2.52029 288.967 263.335 284.292 268.376-2.33763 2.52029ZM292.62 252.658 303.431 281.44 273.919 272.82Z" fill="#000000" fill-rule="nonzero" fill-opacity="1" transform="matrix(1 0 0 -1 1474.5 585.94)"/><path d="M1.01537-3.28412 282.553 83.7601 280.522 90.3283-1.01537 3.28412ZM281.22 72.5538 303.431 93.8133 273.097 98.8268Z" fill="#000000" fill-rule="nonzero" fill-opacity="1" transform="matrix(1 0 0 -1 1474.5 585.313)"/><path d="M1475.52 582.216 1757.05 669.26 1755.02 675.828 1473.48 588.784ZM1755.72 658.054 1777.93 679.313 1747.6 684.327Z" fill="#000000" fill-rule="nonzero" fill-opacity="1"/><path d="M1476.84 582.98 1763.47 848.836 1758.79 853.876 1472.16 588.02ZM1767.12 838.158 1777.93 866.94 1748.42 858.32Z" fill="#000000" fill-rule="nonzero" fill-opacity="1"/><path d="M2407.84 301.98 2694.47 567.835 2689.79 572.876 2403.16 307.02ZM2698.12 557.158 2708.93 585.94 2679.42 577.32Z" fill="#000000" fill-rule="nonzero" fill-opacity="1"/><path d="M2406.52 488.216 2688.05 575.26 2686.02 581.828 2404.48 494.784ZM2686.72 564.054 2708.93 585.313 2678.6 590.327Z" fill="#000000" fill-rule="nonzero" fill-opacity="1"/><path d="M1.01537-3.28412 282.553 83.7601 280.522 90.3283-1.01537 3.28412ZM281.22 72.5538 303.431 93.8133 273.097 98.8268Z" fill="#000000" fill-rule="nonzero" fill-opacity="1" transform="matrix(1 0 0 -1 2405.5 679.313)"/><path d="M2.33763-2.52029 288.967 263.336 284.292 268.376-2.33763 2.52029ZM292.62 252.658 303.431 281.44 273.919 272.82Z" fill="#000000" fill-rule="nonzero" fill-opacity="1" transform="matrix(1 0 0 -1 2405.5 866.94)"/><path d="M380.5 304C380.5 268.378 409.602 239.5 445.5 239.5 481.398 239.5 510.5 268.378 510.5 304 510.5 339.622 481.398 368.5 445.5 368.5 409.602 368.5 380.5 339.622 380.5 304Z" stroke="#000000" stroke-width="6.875" stroke-linecap="butt" stroke-linejoin="miter" stroke-miterlimit="8" stroke-opacity="1" fill="#FFFFFF" fill-rule="evenodd" fill-opacity="1"/><text fill="#000000" fill-opacity="1" font-family="DengXian,DengXian_MSFontService,sans-serif" font-style="normal" font-variant="normal" font-weight="400" font-stretch="normal" font-size="83" text-anchor="start" direction="ltr" writing-mode="lr-tb" unicode-bidi="normal" text-decoration="none" transform="matrix(1 0 0 1 422.919 331)">1</text><path d="M380.5 491.5C380.5 455.602 409.602 426.5 445.5 426.5 481.398 426.5 510.5 455.602 510.5 491.5 510.5 527.399 481.398 556.5 445.5 556.5 409.602 556.5 380.5 527.399 380.5 491.5Z" stroke="#000000" stroke-width="6.875" stroke-linecap="butt" stroke-linejoin="miter" stroke-miterlimit="8" stroke-opacity="1" fill="#FFFFFF" fill-rule="evenodd" fill-opacity="1"/><text fill="#000000" fill-opacity="1" font-family="DengXian,DengXian_MSFontService,sans-serif" font-style="normal" font-variant="normal" font-weight="400" font-stretch="normal" font-size="83" text-anchor="start" direction="ltr" writing-mode="lr-tb" unicode-bidi="normal" text-decoration="none" transform="matrix(1 0 0 1 422.919 519)">2</text><path d="M380.5 679.5C380.5 643.602 409.602 614.5 445.5 614.5 481.398 614.5 510.5 643.602 510.5 679.5 510.5 715.399 481.398 744.5 445.5 744.5 409.602 744.5 380.5 715.399 380.5 679.5Z" stroke="#000000" stroke-width="6.875" stroke-linecap="butt" stroke-linejoin="miter" stroke-miterlimit="8" stroke-opacity="1" fill="#FFFFFF" fill-rule="evenodd" fill-opacity="1"/><text fill="#000000" fill-opacity="1" font-family="DengXian,DengXian_MSFontService,sans-serif" font-style="normal" font-variant="normal" font-weight="400" font-stretch="normal" font-size="83" text-anchor="start" direction="ltr" writing-mode="lr-tb" unicode-bidi="normal" text-decoration="none" transform="matrix(1 0 0 1 422.919 706)">3</text><path d="M380.5 866.5C380.5 830.602 409.602 801.5 445.5 801.5 481.398 801.5 510.5 830.602 510.5 866.5 510.5 902.399 481.398 931.5 445.5 931.5 409.602 931.5 380.5 902.399 380.5 866.5Z" stroke="#000000" stroke-width="6.875" stroke-linecap="butt" stroke-linejoin="miter" stroke-miterlimit="8" stroke-opacity="1" fill="#FFFFFF" fill-rule="evenodd" fill-opacity="1"/><text fill="#000000" fill-opacity="1" font-family="DengXian,DengXian_MSFontService,sans-serif" font-style="normal" font-variant="normal" font-weight="400" font-stretch="normal" font-size="83" text-anchor="start" direction="ltr" writing-mode="lr-tb" unicode-bidi="normal" text-decoration="none" transform="matrix(1 0 0 1 422.919 894)">4</text><path d="M878.5 304C878.5 268.378 907.602 239.5 943.5 239.5 979.399 239.5 1008.5 268.378 1008.5 304 1008.5 339.622 979.399 368.5 943.5 368.5 907.602 368.5 878.5 339.622 878.5 304Z" stroke="#000000" stroke-width="6.875" stroke-linecap="butt" stroke-linejoin="miter" stroke-miterlimit="8" stroke-opacity="1" fill="#FFFFFF" fill-rule="evenodd" fill-opacity="1"/><text fill="#000000" fill-opacity="1" font-family="DengXian,DengXian_MSFontService,sans-serif" font-style="normal" font-variant="normal" font-weight="400" font-stretch="normal" font-size="83" text-anchor="start" direction="ltr" writing-mode="lr-tb" unicode-bidi="normal" text-decoration="none" transform="matrix(1 0 0 1 921.232 331)">5</text><path d="M878.5 491.5C878.5 455.602 907.602 426.5 943.5 426.5 979.399 426.5 1008.5 455.602 1008.5 491.5 1008.5 527.399 979.399 556.5 943.5 556.5 907.602 556.5 878.5 527.399 878.5 491.5Z" stroke="#000000" stroke-width="6.875" stroke-linecap="butt" stroke-linejoin="miter" stroke-miterlimit="8" stroke-opacity="1" fill="#FFFFFF" fill-rule="evenodd" fill-opacity="1"/><text fill="#000000" fill-opacity="1" font-family="DengXian,DengXian_MSFontService,sans-serif" font-style="normal" font-variant="normal" font-weight="400" font-stretch="normal" font-size="83" text-anchor="start" direction="ltr" writing-mode="lr-tb" unicode-bidi="normal" text-decoration="none" transform="matrix(1 0 0 1 921.232 519)">6</text><path d="M878.5 679.5C878.5 643.602 907.602 614.5 943.5 614.5 979.399 614.5 1008.5 643.602 1008.5 679.5 1008.5 715.399 979.399 744.5 943.5 744.5 907.602 744.5 878.5 715.399 878.5 679.5Z" stroke="#000000" stroke-width="6.875" stroke-linecap="butt" stroke-linejoin="miter" stroke-miterlimit="8" stroke-opacity="1" fill="#FFFFFF" fill-rule="evenodd" fill-opacity="1"/><text fill="#000000" fill-opacity="1" font-family="DengXian,DengXian_MSFontService,sans-serif" font-style="normal" font-variant="normal" font-weight="400" font-stretch="normal" font-size="83" text-anchor="start" direction="ltr" writing-mode="lr-tb" unicode-bidi="normal" text-decoration="none" transform="matrix(1 0 0 1 921.232 706)">7</text><path d="M878.5 866.5C878.5 830.602 907.602 801.5 943.5 801.5 979.399 801.5 1008.5 830.602 1008.5 866.5 1008.5 902.399 979.399 931.5 943.5 931.5 907.602 931.5 878.5 902.399 878.5 866.5Z" stroke="#000000" stroke-width="6.875" stroke-linecap="butt" stroke-linejoin="miter" stroke-miterlimit="8" stroke-opacity="1" fill="#FFFFFF" fill-rule="evenodd" fill-opacity="1"/><text fill="#000000" fill-opacity="1" font-family="DengXian,DengXian_MSFontService,sans-serif" font-style="normal" font-variant="normal" font-weight="400" font-stretch="normal" font-size="83" text-anchor="start" direction="ltr" writing-mode="lr-tb" unicode-bidi="normal" text-decoration="none" transform="matrix(1 0 0 1 921.232 894)">8</text><path d="M510.5 304.5 878.892 304.5" stroke="#000000" stroke-width="6.875" stroke-linecap="butt" stroke-linejoin="miter" stroke-miterlimit="8" stroke-opacity="1" fill="none" fill-rule="evenodd"/><path d="M510.5 304.5 878.892 679.753" stroke="#000000" stroke-width="6.875" stroke-linecap="butt" stroke-linejoin="miter" stroke-miterlimit="8" stroke-opacity="1" fill="none" fill-rule="evenodd"/><path d="M0 0 368.392 187.627" stroke="#000000" stroke-width="6.875" stroke-linecap="butt" stroke-linejoin="miter" stroke-miterlimit="8" stroke-opacity="1" fill="none" fill-rule="evenodd" transform="matrix(1 0 0 -1 510.5 492.127)"/><path d="M0 0 368.392 375.253" stroke="#000000" stroke-width="6.875" stroke-linecap="butt" stroke-linejoin="miter" stroke-miterlimit="8" stroke-opacity="1" fill="none" fill-rule="evenodd" transform="matrix(1 0 0 -1 510.5 679.753)"/><path d="M0 0 368.392 187.627" stroke="#000000" stroke-width="6.875" stroke-linecap="butt" stroke-linejoin="miter" stroke-miterlimit="8" stroke-opacity="1" fill="none" fill-rule="evenodd" transform="matrix(1 0 0 -1 510.5 679.127)"/><path d="M0 0 368.392 187.627" stroke="#000000" stroke-width="6.875" stroke-linecap="butt" stroke-linejoin="miter" stroke-miterlimit="8" stroke-opacity="1" fill="none" fill-rule="evenodd" transform="matrix(1 0 0 -1 510.5 867.127)"/><path d="M510.5 866.5 878.892 866.5" stroke="#000000" stroke-width="6.875" stroke-linecap="butt" stroke-linejoin="miter" stroke-miterlimit="8" stroke-opacity="1" fill="none" fill-rule="evenodd"/></g></g></svg>