<svg width="921" height="679" xmlns="http://www.w3.org/2000/svg" xmlns:xlink="http://www.w3.org/1999/xlink" xml:space="preserve" overflow="hidden"><g transform="translate(-2589 -1287)"><g><path d="M2808.5 1864.5C2808.5 1828.6 2837.6 1799.5 2873.5 1799.5 2909.4 1799.5 2938.5 1828.6 2938.5 1864.5 2938.5 1900.4 2909.4 1929.5 2873.5 1929.5 2837.6 1929.5 2808.5 1900.4 2808.5 1864.5Z" stroke="#000000" stroke-width="6.875" stroke-linecap="butt" stroke-linejoin="miter" stroke-miterlimit="8" stroke-opacity="1" fill="#FFFFFF" fill-rule="evenodd" fill-opacity="1"/><text fill="#000000" fill-opacity="1" font-family="DengXian,DengXian_MSFontService,sans-serif" font-style="normal" font-variant="normal" font-weight="400" font-stretch="normal" font-size="83" text-anchor="start" direction="ltr" writing-mode="lr-tb" unicode-bidi="normal" text-decoration="none" transform="matrix(1 0 0 1 2850.88 1891)">5</text><path d="M2995.5 1864.5C2995.5 1828.6 3024.6 1799.5 3060.5 1799.5 3096.4 1799.5 3125.5 1828.6 3125.5 1864.5 3125.5 1900.4 3096.4 1929.5 3060.5 1929.5 3024.6 1929.5 2995.5 1900.4 2995.5 1864.5Z" stroke="#000000" stroke-width="6.875" stroke-linecap="butt" stroke-linejoin="miter" stroke-miterlimit="8" stroke-opacity="1" fill="#FFFFFF" fill-rule="evenodd" fill-opacity="1"/><text fill="#000000" fill-opacity="1" font-family="DengXian,DengXian_MSFontService,sans-serif" font-style="normal" font-variant="normal" font-weight="400" font-stretch="normal" font-size="83" text-anchor="start" direction="ltr" writing-mode="lr-tb" unicode-bidi="normal" text-decoration="none" transform="matrix(1 0 0 1 3038.5 1891)">6</text><path d="M3183.5 1864.5C3183.5 1828.6 3212.6 1799.5 3248.5 1799.5 3284.4 1799.5 3313.5 1828.6 3313.5 1864.5 3313.5 1900.4 3284.4 1929.5 3248.5 1929.5 3212.6 1929.5 3183.5 1900.4 3183.5 1864.5Z" stroke="#000000" stroke-width="6.875" stroke-linecap="butt" stroke-linejoin="miter" stroke-miterlimit="8" stroke-opacity="1" fill="#FFFFFF" fill-rule="evenodd" fill-opacity="1"/><text fill="#000000" fill-opacity="1" font-family="DengXian,DengXian_MSFontService,sans-serif" font-style="normal" font-variant="normal" font-weight="400" font-stretch="normal" font-size="83" text-anchor="start" direction="ltr" writing-mode="lr-tb" unicode-bidi="normal" text-decoration="none" transform="matrix(1 0 0 1 3226.13 1891)">7</text><path d="M3371.5 1864.5C3371.5 1828.6 3400.38 1799.5 3436 1799.5 3471.62 1799.5 3500.5 1828.6 3500.5 1864.5 3500.5 1900.4 3471.62 1929.5 3436 1929.5 3400.38 1929.5 3371.5 1900.4 3371.5 1864.5Z" stroke="#000000" stroke-width="6.875" stroke-linecap="butt" stroke-linejoin="miter" stroke-miterlimit="8" stroke-opacity="1" fill="#FFFFFF" fill-rule="evenodd" fill-opacity="1"/><text fill="#000000" fill-opacity="1" font-family="DengXian,DengXian_MSFontService,sans-serif" font-style="normal" font-variant="normal" font-weight="400" font-stretch="normal" font-size="83" text-anchor="start" direction="ltr" writing-mode="lr-tb" unicode-bidi="normal" text-decoration="none" transform="matrix(1 0 0 1 3413.76 1891)">8</text><path d="M2808.5 1366C2808.5 1330.38 2837.6 1301.5 2873.5 1301.5 2909.4 1301.5 2938.5 1330.38 2938.5 1366 2938.5 1401.62 2909.4 1430.5 2873.5 1430.5 2837.6 1430.5 2808.5 1401.62 2808.5 1366Z" stroke="#000000" stroke-width="6.875" stroke-linecap="butt" stroke-linejoin="miter" stroke-miterlimit="8" stroke-opacity="1" fill="#FFFFFF" fill-rule="evenodd" fill-opacity="1"/><text fill="#000000" fill-opacity="1" font-family="DengXian,DengXian_MSFontService,sans-serif" font-style="normal" font-variant="normal" font-weight="400" font-stretch="normal" font-size="83" text-anchor="start" direction="ltr" writing-mode="lr-tb" unicode-bidi="normal" text-decoration="none" transform="matrix(1 0 0 1 2850.88 1393)">1</text><path d="M2995.5 1366C2995.5 1330.38 3024.6 1301.5 3060.5 1301.5 3096.4 1301.5 3125.5 1330.38 3125.5 1366 3125.5 1401.62 3096.4 1430.5 3060.5 1430.5 3024.6 1430.5 2995.5 1401.62 2995.5 1366Z" stroke="#000000" stroke-width="6.875" stroke-linecap="butt" stroke-linejoin="miter" stroke-miterlimit="8" stroke-opacity="1" fill="#FFFFFF" fill-rule="evenodd" fill-opacity="1"/><text fill="#000000" fill-opacity="1" font-family="DengXian,DengXian_MSFontService,sans-serif" font-style="normal" font-variant="normal" font-weight="400" font-stretch="normal" font-size="83" text-anchor="start" direction="ltr" writing-mode="lr-tb" unicode-bidi="normal" text-decoration="none" transform="matrix(1 0 0 1 3038.5 1393)">2</text><path d="M3183.5 1366C3183.5 1330.38 3212.6 1301.5 3248.5 1301.5 3284.4 1301.5 3313.5 1330.38 3313.5 1366 3313.5 1401.62 3284.4 1430.5 3248.5 1430.5 3212.6 1430.5 3183.5 1401.62 3183.5 1366Z" stroke="#000000" stroke-width="6.875" stroke-linecap="butt" stroke-linejoin="miter" stroke-miterlimit="8" stroke-opacity="1" fill="#FFFFFF" fill-rule="evenodd" fill-opacity="1"/><text fill="#000000" fill-opacity="1" font-family="DengXian,DengXian_MSFontService,sans-serif" font-style="normal" font-variant="normal" font-weight="400" font-stretch="normal" font-size="83" text-anchor="start" direction="ltr" writing-mode="lr-tb" unicode-bidi="normal" text-decoration="none" transform="matrix(1 0 0 1 3226.13 1393)">3</text><path d="M3371.5 1366C3371.5 1330.38 3400.38 1301.5 3436 1301.5 3471.62 1301.5 3500.5 1330.38 3500.5 1366 3500.5 1401.62 3471.62 1430.5 3436 1430.5 3400.38 1430.5 3371.5 1401.62 3371.5 1366Z" stroke="#000000" stroke-width="6.875" stroke-linecap="butt" stroke-linejoin="miter" stroke-miterlimit="8" stroke-opacity="1" fill="#FFFFFF" fill-rule="evenodd" fill-opacity="1"/><text fill="#000000" fill-opacity="1" font-family="DengXian,DengXian_MSFontService,sans-serif" font-style="normal" font-variant="normal" font-weight="400" font-stretch="normal" font-size="83" text-anchor="start" direction="ltr" writing-mode="lr-tb" unicode-bidi="normal" text-decoration="none" transform="matrix(1 0 0 1 3413.76 1393)">4</text><path d="M0 0 0.000360892 368.392" stroke="#000000" stroke-width="13.75" stroke-linecap="butt" stroke-linejoin="miter" stroke-miterlimit="8" stroke-opacity="1" fill="none" fill-rule="evenodd" transform="matrix(1 0 0 -1 2873 1798.39)"/><path d="M0 0 375.253 368.392" stroke="#FF0000" stroke-width="13.75" stroke-linecap="butt" stroke-linejoin="miter" stroke-miterlimit="8" stroke-opacity="1" fill="none" fill-rule="evenodd" transform="matrix(1 0 0 -1 2873 1798.39)"/><path d="M3061.13 1798.89 2873.5 1430.5" stroke="#000000" stroke-width="6.875" stroke-linecap="butt" stroke-linejoin="miter" stroke-miterlimit="8" stroke-opacity="1" fill="none" fill-rule="evenodd"/><path d="M3248.75 1798.89 2873.5 1430.5" stroke="#000000" stroke-width="6.875" stroke-linecap="butt" stroke-linejoin="miter" stroke-miterlimit="8" stroke-opacity="1" fill="none" fill-rule="evenodd"/><path d="M3248.13 1798.89 3060.5 1430.5" stroke="#000000" stroke-width="6.875" stroke-linecap="butt" stroke-linejoin="miter" stroke-miterlimit="8" stroke-opacity="1" fill="none" fill-rule="evenodd"/><path d="M3435.63 1798.39 3248 1430" stroke="#000000" stroke-width="13.75" stroke-linecap="butt" stroke-linejoin="miter" stroke-miterlimit="8" stroke-opacity="1" fill="none" fill-rule="evenodd"/><path d="M0 0 0.000360892 368.392" stroke="#000000" stroke-width="6.875" stroke-linecap="butt" stroke-linejoin="miter" stroke-miterlimit="8" stroke-opacity="1" fill="none" fill-rule="evenodd" transform="matrix(1 0 0 -1 3436.5 1798.89)"/><text fill="#000000" fill-opacity="1" font-family="Consolas,Consolas_MSFontService,sans-serif" font-style="normal" font-variant="normal" font-weight="400" font-stretch="normal" font-size="83" text-anchor="start" direction="ltr" writing-mode="lr-tb" unicode-bidi="normal" text-decoration="none" transform="matrix(1 0 0 1 2639.67 1395)">X</text><text fill="#000000" fill-opacity="1" font-family="Consolas,Consolas_MSFontService,sans-serif" font-style="normal" font-variant="normal" font-weight="400" font-stretch="normal" font-size="83" text-anchor="start" direction="ltr" writing-mode="lr-tb" unicode-bidi="normal" text-decoration="none" transform="matrix(1 0 0 1 2639.67 1890)">Y</text></g></g></svg>