<svg width="921" height="678" xmlns="http://www.w3.org/2000/svg" xmlns:xlink="http://www.w3.org/1999/xlink" xml:space="preserve" overflow="hidden"><g transform="translate(-1434 -1292)"><g><path d="M1656.5 1867.5C1656.5 1831.6 1685.6 1802.5 1721.5 1802.5 1757.4 1802.5 1786.5 1831.6 1786.5 1867.5 1786.5 1903.4 1757.4 1932.5 1721.5 1932.5 1685.6 1932.5 1656.5 1903.4 1656.5 1867.5Z" stroke="#000000" stroke-width="6.875" stroke-linecap="butt" stroke-linejoin="miter" stroke-miterlimit="8" stroke-opacity="1" fill="#FFFFFF" fill-rule="evenodd" fill-opacity="1"/><text fill="#000000" fill-opacity="1" font-family="DengXian,DengXian_MSFontService,sans-serif" font-style="normal" font-variant="normal" font-weight="400" font-stretch="normal" font-size="83" text-anchor="start" direction="ltr" writing-mode="lr-tb" unicode-bidi="normal" text-decoration="none" transform="matrix(1 0 0 1 1698.82 1895)">5</text><path d="M1843.5 1867.5C1843.5 1831.6 1872.6 1802.5 1908.5 1802.5 1944.4 1802.5 1973.5 1831.6 1973.5 1867.5 1973.5 1903.4 1944.4 1932.5 1908.5 1932.5 1872.6 1932.5 1843.5 1903.4 1843.5 1867.5Z" stroke="#000000" stroke-width="6.875" stroke-linecap="butt" stroke-linejoin="miter" stroke-miterlimit="8" stroke-opacity="1" fill="#FFFFFF" fill-rule="evenodd" fill-opacity="1"/><text fill="#000000" fill-opacity="1" font-family="DengXian,DengXian_MSFontService,sans-serif" font-style="normal" font-variant="normal" font-weight="400" font-stretch="normal" font-size="83" text-anchor="start" direction="ltr" writing-mode="lr-tb" unicode-bidi="normal" text-decoration="none" transform="matrix(1 0 0 1 1886.45 1895)">6</text><path d="M2031.5 1867.5C2031.5 1831.6 2060.6 1802.5 2096.5 1802.5 2132.4 1802.5 2161.5 1831.6 2161.5 1867.5 2161.5 1903.4 2132.4 1932.5 2096.5 1932.5 2060.6 1932.5 2031.5 1903.4 2031.5 1867.5Z" stroke="#000000" stroke-width="6.875" stroke-linecap="butt" stroke-linejoin="miter" stroke-miterlimit="8" stroke-opacity="1" fill="#FFFFFF" fill-rule="evenodd" fill-opacity="1"/><text fill="#000000" fill-opacity="1" font-family="DengXian,DengXian_MSFontService,sans-serif" font-style="normal" font-variant="normal" font-weight="400" font-stretch="normal" font-size="83" text-anchor="start" direction="ltr" writing-mode="lr-tb" unicode-bidi="normal" text-decoration="none" transform="matrix(1 0 0 1 2074.07 1895)">7</text><path d="M2219.5 1867.5C2219.5 1831.6 2248.38 1802.5 2284 1802.5 2319.62 1802.5 2348.5 1831.6 2348.5 1867.5 2348.5 1903.4 2319.62 1932.5 2284 1932.5 2248.38 1932.5 2219.5 1903.4 2219.5 1867.5Z" stroke="#000000" stroke-width="6.875" stroke-linecap="butt" stroke-linejoin="miter" stroke-miterlimit="8" stroke-opacity="1" fill="#FFFFFF" fill-rule="evenodd" fill-opacity="1"/><text fill="#000000" fill-opacity="1" font-family="DengXian,DengXian_MSFontService,sans-serif" font-style="normal" font-variant="normal" font-weight="400" font-stretch="normal" font-size="83" text-anchor="start" direction="ltr" writing-mode="lr-tb" unicode-bidi="normal" text-decoration="none" transform="matrix(1 0 0 1 2261.7 1895)">8</text><path d="M1656.5 1369.5C1656.5 1333.6 1685.6 1304.5 1721.5 1304.5 1757.4 1304.5 1786.5 1333.6 1786.5 1369.5 1786.5 1405.4 1757.4 1434.5 1721.5 1434.5 1685.6 1434.5 1656.5 1405.4 1656.5 1369.5Z" stroke="#000000" stroke-width="6.875" stroke-linecap="butt" stroke-linejoin="miter" stroke-miterlimit="8" stroke-opacity="1" fill="#FFFFFF" fill-rule="evenodd" fill-opacity="1"/><text fill="#000000" fill-opacity="1" font-family="DengXian,DengXian_MSFontService,sans-serif" font-style="normal" font-variant="normal" font-weight="400" font-stretch="normal" font-size="83" text-anchor="start" direction="ltr" writing-mode="lr-tb" unicode-bidi="normal" text-decoration="none" transform="matrix(1 0 0 1 1698.82 1396)">1</text><path d="M1843.5 1369.5C1843.5 1333.6 1872.6 1304.5 1908.5 1304.5 1944.4 1304.5 1973.5 1333.6 1973.5 1369.5 1973.5 1405.4 1944.4 1434.5 1908.5 1434.5 1872.6 1434.5 1843.5 1405.4 1843.5 1369.5Z" stroke="#000000" stroke-width="6.875" stroke-linecap="butt" stroke-linejoin="miter" stroke-miterlimit="8" stroke-opacity="1" fill="#FFFFFF" fill-rule="evenodd" fill-opacity="1"/><text fill="#000000" fill-opacity="1" font-family="DengXian,DengXian_MSFontService,sans-serif" font-style="normal" font-variant="normal" font-weight="400" font-stretch="normal" font-size="83" text-anchor="start" direction="ltr" writing-mode="lr-tb" unicode-bidi="normal" text-decoration="none" transform="matrix(1 0 0 1 1886.45 1396)">2</text><path d="M2031.5 1369.5C2031.5 1333.6 2060.6 1304.5 2096.5 1304.5 2132.4 1304.5 2161.5 1333.6 2161.5 1369.5 2161.5 1405.4 2132.4 1434.5 2096.5 1434.5 2060.6 1434.5 2031.5 1405.4 2031.5 1369.5Z" stroke="#000000" stroke-width="6.875" stroke-linecap="butt" stroke-linejoin="miter" stroke-miterlimit="8" stroke-opacity="1" fill="#FFFFFF" fill-rule="evenodd" fill-opacity="1"/><text fill="#000000" fill-opacity="1" font-family="DengXian,DengXian_MSFontService,sans-serif" font-style="normal" font-variant="normal" font-weight="400" font-stretch="normal" font-size="83" text-anchor="start" direction="ltr" writing-mode="lr-tb" unicode-bidi="normal" text-decoration="none" transform="matrix(1 0 0 1 2074.08 1396)">3</text><path d="M2219.5 1369.5C2219.5 1333.6 2248.38 1304.5 2284 1304.5 2319.62 1304.5 2348.5 1333.6 2348.5 1369.5 2348.5 1405.4 2319.62 1434.5 2284 1434.5 2248.38 1434.5 2219.5 1405.4 2219.5 1369.5Z" stroke="#000000" stroke-width="6.875" stroke-linecap="butt" stroke-linejoin="miter" stroke-miterlimit="8" stroke-opacity="1" fill="#FFFFFF" fill-rule="evenodd" fill-opacity="1"/><text fill="#000000" fill-opacity="1" font-family="DengXian,DengXian_MSFontService,sans-serif" font-style="normal" font-variant="normal" font-weight="400" font-stretch="normal" font-size="83" text-anchor="start" direction="ltr" writing-mode="lr-tb" unicode-bidi="normal" text-decoration="none" transform="matrix(1 0 0 1 2261.7 1396)">4</text><path d="M0 0 0.000360892 368.392" stroke="#FF0000" stroke-width="13.75" stroke-linecap="butt" stroke-linejoin="miter" stroke-miterlimit="8" stroke-opacity="1" fill="none" fill-rule="evenodd" transform="matrix(1 0 0 -1 1721 1802.39)"/><path d="M0 0 375.253 368.392" stroke="#000000" stroke-width="13.75" stroke-linecap="butt" stroke-linejoin="miter" stroke-miterlimit="8" stroke-opacity="1" fill="none" fill-rule="evenodd" transform="matrix(1 0 0 -1 1721 1802.39)"/><path d="M1909.13 1802.89 1721.5 1434.5" stroke="#000000" stroke-width="6.875" stroke-linecap="butt" stroke-linejoin="miter" stroke-miterlimit="8" stroke-opacity="1" fill="none" fill-rule="evenodd"/><path d="M2096.75 1802.89 1721.5 1434.5" stroke="#000000" stroke-width="6.875" stroke-linecap="butt" stroke-linejoin="miter" stroke-miterlimit="8" stroke-opacity="1" fill="none" fill-rule="evenodd"/><path d="M2096.13 1802.89 1908.5 1434.5" stroke="#000000" stroke-width="6.875" stroke-linecap="butt" stroke-linejoin="miter" stroke-miterlimit="8" stroke-opacity="1" fill="none" fill-rule="evenodd"/><path d="M2283.63 1802.39 2096 1434" stroke="#FF0000" stroke-width="13.75" stroke-linecap="butt" stroke-linejoin="miter" stroke-miterlimit="8" stroke-opacity="1" fill="none" fill-rule="evenodd"/><path d="M0 0 0.000360892 368.392" stroke="#000000" stroke-width="6.875" stroke-linecap="butt" stroke-linejoin="miter" stroke-miterlimit="8" stroke-opacity="1" fill="none" fill-rule="evenodd" transform="matrix(1 0 0 -1 2283.5 1802.89)"/><text fill="#000000" fill-opacity="1" font-family="Consolas,Consolas_MSFontService,sans-serif" font-style="normal" font-variant="normal" font-weight="400" font-stretch="normal" font-size="83" text-anchor="start" direction="ltr" writing-mode="lr-tb" unicode-bidi="normal" text-decoration="none" transform="matrix(1 0 0 1 1487.62 1398)">X</text><text fill="#000000" fill-opacity="1" font-family="Consolas,Consolas_MSFontService,sans-serif" font-style="normal" font-variant="normal" font-weight="400" font-stretch="normal" font-size="83" text-anchor="start" direction="ltr" writing-mode="lr-tb" unicode-bidi="normal" text-decoration="none" transform="matrix(1 0 0 1 1487.62 1893)">Y</text></g></g></svg>