<svg width="921" height="678" xmlns="http://www.w3.org/2000/svg" xmlns:xlink="http://www.w3.org/1999/xlink" xml:space="preserve" overflow="hidden"><g transform="translate(-160 -1292)"><g><path d="M381.5 1867.5C381.5 1831.6 410.602 1802.5 446.5 1802.5 482.398 1802.5 511.5 1831.6 511.5 1867.5 511.5 1903.4 482.398 1932.5 446.5 1932.5 410.602 1932.5 381.5 1903.4 381.5 1867.5Z" stroke="#000000" stroke-width="6.875" stroke-linecap="butt" stroke-linejoin="miter" stroke-miterlimit="8" stroke-opacity="1" fill="#FFFFFF" fill-rule="evenodd" fill-opacity="1"/><text fill="#000000" fill-opacity="1" font-family="DengXian,DengXian_MSFontService,sans-serif" font-style="normal" font-variant="normal" font-weight="400" font-stretch="normal" font-size="83" text-anchor="start" direction="ltr" writing-mode="lr-tb" unicode-bidi="normal" text-decoration="none" transform="matrix(1 0 0 1 424.401 1895)">5</text><path d="M569.5 1867.5C569.5 1831.6 598.602 1802.5 634.5 1802.5 670.399 1802.5 699.5 1831.6 699.5 1867.5 699.5 1903.4 670.399 1932.5 634.5 1932.5 598.602 1932.5 569.5 1903.4 569.5 1867.5Z" stroke="#000000" stroke-width="6.875" stroke-linecap="butt" stroke-linejoin="miter" stroke-miterlimit="8" stroke-opacity="1" fill="#FFFFFF" fill-rule="evenodd" fill-opacity="1"/><text fill="#000000" fill-opacity="1" font-family="DengXian,DengXian_MSFontService,sans-serif" font-style="normal" font-variant="normal" font-weight="400" font-stretch="normal" font-size="83" text-anchor="start" direction="ltr" writing-mode="lr-tb" unicode-bidi="normal" text-decoration="none" transform="matrix(1 0 0 1 612.028 1895)">6</text><path d="M756.5 1867.5C756.5 1831.6 785.602 1802.5 821.5 1802.5 857.399 1802.5 886.5 1831.6 886.5 1867.5 886.5 1903.4 857.399 1932.5 821.5 1932.5 785.602 1932.5 756.5 1903.4 756.5 1867.5Z" stroke="#000000" stroke-width="6.875" stroke-linecap="butt" stroke-linejoin="miter" stroke-miterlimit="8" stroke-opacity="1" fill="#FFFFFF" fill-rule="evenodd" fill-opacity="1"/><text fill="#000000" fill-opacity="1" font-family="DengXian,DengXian_MSFontService,sans-serif" font-style="normal" font-variant="normal" font-weight="400" font-stretch="normal" font-size="83" text-anchor="start" direction="ltr" writing-mode="lr-tb" unicode-bidi="normal" text-decoration="none" transform="matrix(1 0 0 1 799.654 1895)">7</text><path d="M944.5 1867.5C944.5 1831.6 973.602 1802.5 1009.5 1802.5 1045.4 1802.5 1074.5 1831.6 1074.5 1867.5 1074.5 1903.4 1045.4 1932.5 1009.5 1932.5 973.602 1932.5 944.5 1903.4 944.5 1867.5Z" stroke="#000000" stroke-width="6.875" stroke-linecap="butt" stroke-linejoin="miter" stroke-miterlimit="8" stroke-opacity="1" fill="#FFFFFF" fill-rule="evenodd" fill-opacity="1"/><text fill="#000000" fill-opacity="1" font-family="DengXian,DengXian_MSFontService,sans-serif" font-style="normal" font-variant="normal" font-weight="400" font-stretch="normal" font-size="83" text-anchor="start" direction="ltr" writing-mode="lr-tb" unicode-bidi="normal" text-decoration="none" transform="matrix(1 0 0 1 987.282 1895)">8</text><path d="M381.5 1369.5C381.5 1333.6 410.602 1304.5 446.5 1304.5 482.398 1304.5 511.5 1333.6 511.5 1369.5 511.5 1405.4 482.398 1434.5 446.5 1434.5 410.602 1434.5 381.5 1405.4 381.5 1369.5Z" stroke="#000000" stroke-width="6.875" stroke-linecap="butt" stroke-linejoin="miter" stroke-miterlimit="8" stroke-opacity="1" fill="#FFFFFF" fill-rule="evenodd" fill-opacity="1"/><text fill="#000000" fill-opacity="1" font-family="DengXian,DengXian_MSFontService,sans-serif" font-style="normal" font-variant="normal" font-weight="400" font-stretch="normal" font-size="83" text-anchor="start" direction="ltr" writing-mode="lr-tb" unicode-bidi="normal" text-decoration="none" transform="matrix(1 0 0 1 424.402 1396)">1</text><path d="M569.5 1369.5C569.5 1333.6 598.602 1304.5 634.5 1304.5 670.399 1304.5 699.5 1333.6 699.5 1369.5 699.5 1405.4 670.399 1434.5 634.5 1434.5 598.602 1434.5 569.5 1405.4 569.5 1369.5Z" stroke="#000000" stroke-width="6.875" stroke-linecap="butt" stroke-linejoin="miter" stroke-miterlimit="8" stroke-opacity="1" fill="#FFFFFF" fill-rule="evenodd" fill-opacity="1"/><text fill="#000000" fill-opacity="1" font-family="DengXian,DengXian_MSFontService,sans-serif" font-style="normal" font-variant="normal" font-weight="400" font-stretch="normal" font-size="83" text-anchor="start" direction="ltr" writing-mode="lr-tb" unicode-bidi="normal" text-decoration="none" transform="matrix(1 0 0 1 612.028 1396)">2</text><path d="M756.5 1369.5C756.5 1333.6 785.602 1304.5 821.5 1304.5 857.399 1304.5 886.5 1333.6 886.5 1369.5 886.5 1405.4 857.399 1434.5 821.5 1434.5 785.602 1434.5 756.5 1405.4 756.5 1369.5Z" stroke="#000000" stroke-width="6.875" stroke-linecap="butt" stroke-linejoin="miter" stroke-miterlimit="8" stroke-opacity="1" fill="#FFFFFF" fill-rule="evenodd" fill-opacity="1"/><text fill="#000000" fill-opacity="1" font-family="DengXian,DengXian_MSFontService,sans-serif" font-style="normal" font-variant="normal" font-weight="400" font-stretch="normal" font-size="83" text-anchor="start" direction="ltr" writing-mode="lr-tb" unicode-bidi="normal" text-decoration="none" transform="matrix(1 0 0 1 799.655 1396)">3</text><path d="M944.5 1369.5C944.5 1333.6 973.602 1304.5 1009.5 1304.5 1045.4 1304.5 1074.5 1333.6 1074.5 1369.5 1074.5 1405.4 1045.4 1434.5 1009.5 1434.5 973.602 1434.5 944.5 1405.4 944.5 1369.5Z" stroke="#000000" stroke-width="6.875" stroke-linecap="butt" stroke-linejoin="miter" stroke-miterlimit="8" stroke-opacity="1" fill="#FFFFFF" fill-rule="evenodd" fill-opacity="1"/><text fill="#000000" fill-opacity="1" font-family="DengXian,DengXian_MSFontService,sans-serif" font-style="normal" font-variant="normal" font-weight="400" font-stretch="normal" font-size="83" text-anchor="start" direction="ltr" writing-mode="lr-tb" unicode-bidi="normal" text-decoration="none" transform="matrix(1 0 0 1 987.282 1396)">4</text><path d="M0 0 0.000360892 368.392" stroke="#000000" stroke-width="13.75" stroke-linecap="butt" stroke-linejoin="miter" stroke-miterlimit="8" stroke-opacity="1" fill="none" fill-rule="evenodd" transform="matrix(1 0 0 -1 446 1802.39)"/><path d="M0 0 375.253 368.392" stroke="#FF0000" stroke-width="13.75" stroke-linecap="butt" stroke-linejoin="miter" stroke-miterlimit="8" stroke-opacity="1" fill="none" fill-rule="evenodd" transform="matrix(1 0 0 -1 446 1802.39)"/><path d="M634.126 1802.89 446.5 1434.5" stroke="#000000" stroke-width="6.875" stroke-linecap="butt" stroke-linejoin="miter" stroke-miterlimit="8" stroke-opacity="1" fill="none" fill-rule="evenodd"/><path d="M821.753 1802.89 446.5 1434.5" stroke="#000000" stroke-width="6.875" stroke-linecap="butt" stroke-linejoin="miter" stroke-miterlimit="8" stroke-opacity="1" fill="none" fill-rule="evenodd"/><path d="M822.126 1802.89 634.5 1434.5" stroke="#000000" stroke-width="6.875" stroke-linecap="butt" stroke-linejoin="miter" stroke-miterlimit="8" stroke-opacity="1" fill="none" fill-rule="evenodd"/><path d="M1008.63 1802.39 821 1434" stroke="#000000" stroke-width="13.75" stroke-linecap="butt" stroke-linejoin="miter" stroke-miterlimit="8" stroke-opacity="1" fill="none" fill-rule="evenodd"/><path d="M0 0 0.000360892 368.392" stroke="#FF0000" stroke-width="13.75" stroke-linecap="butt" stroke-linejoin="miter" stroke-miterlimit="8" stroke-opacity="1" fill="none" fill-rule="evenodd" transform="matrix(1 0 0 -1 1009 1802.39)"/><text fill="#000000" fill-opacity="1" font-family="Consolas,Consolas_MSFontService,sans-serif" font-style="normal" font-variant="normal" font-weight="400" font-stretch="normal" font-size="83" text-anchor="start" direction="ltr" writing-mode="lr-tb" unicode-bidi="normal" text-decoration="none" transform="matrix(1 0 0 1 213.2 1398)">X</text><text fill="#000000" fill-opacity="1" font-family="Consolas,Consolas_MSFontService,sans-serif" font-style="normal" font-variant="normal" font-weight="400" font-stretch="normal" font-size="83" text-anchor="start" direction="ltr" writing-mode="lr-tb" unicode-bidi="normal" text-decoration="none" transform="matrix(1 0 0 1 213.2 1893)">Y</text></g></g></svg>