<svg width="1631" height="1127" xmlns="http://www.w3.org/2000/svg" xmlns:xlink="http://www.w3.org/1999/xlink" xml:space="preserve" overflow="hidden"><g transform="translate(-2012 -426)"><g><path d="M2022.5 502.5C2022.5 466.602 2051.6 437.5 2087.5 437.5 2123.4 437.5 2152.5 466.602 2152.5 502.5 2152.5 538.399 2123.4 567.5 2087.5 567.5 2051.6 567.5 2022.5 538.399 2022.5 502.5Z" stroke="#000000" stroke-width="6.875" stroke-linecap="butt" stroke-linejoin="miter" stroke-miterlimit="8" stroke-opacity="1" fill="#FFFFFF" fill-rule="evenodd" fill-opacity="1"/><text fill="#000000" fill-opacity="1" font-family="DengXian,DengXian_MSFontService,sans-serif" font-style="normal" font-variant="normal" font-weight="400" font-stretch="normal" font-size="83" text-anchor="start" direction="ltr" writing-mode="lr-tb" unicode-bidi="normal" text-decoration="none" transform="matrix(1 0 0 1 2064.97 530)">1</text><path d="M2022.5 690.5C2022.5 654.602 2051.6 625.5 2087.5 625.5 2123.4 625.5 2152.5 654.602 2152.5 690.5 2152.5 726.399 2123.4 755.5 2087.5 755.5 2051.6 755.5 2022.5 726.399 2022.5 690.5Z" stroke="#000000" stroke-width="6.875" stroke-linecap="butt" stroke-linejoin="miter" stroke-miterlimit="8" stroke-opacity="1" fill="#FFFFFF" fill-rule="evenodd" fill-opacity="1"/><text fill="#000000" fill-opacity="1" font-family="DengXian,DengXian_MSFontService,sans-serif" font-style="normal" font-variant="normal" font-weight="400" font-stretch="normal" font-size="83" text-anchor="start" direction="ltr" writing-mode="lr-tb" unicode-bidi="normal" text-decoration="none" transform="matrix(1 0 0 1 2064.97 717)">2</text><path d="M2022.5 878.5C2022.5 842.602 2051.6 813.5 2087.5 813.5 2123.4 813.5 2152.5 842.602 2152.5 878.5 2152.5 914.399 2123.4 943.5 2087.5 943.5 2051.6 943.5 2022.5 914.399 2022.5 878.5Z" stroke="#000000" stroke-width="6.875" stroke-linecap="butt" stroke-linejoin="miter" stroke-miterlimit="8" stroke-opacity="1" fill="#FFFFFF" fill-rule="evenodd" fill-opacity="1"/><text fill="#000000" fill-opacity="1" font-family="DengXian,DengXian_MSFontService,sans-serif" font-style="normal" font-variant="normal" font-weight="400" font-stretch="normal" font-size="83" text-anchor="start" direction="ltr" writing-mode="lr-tb" unicode-bidi="normal" text-decoration="none" transform="matrix(1 0 0 1 2064.97 905)">3</text><path d="M2022.5 1065.5C2022.5 1029.6 2051.6 1000.5 2087.5 1000.5 2123.4 1000.5 2152.5 1029.6 2152.5 1065.5 2152.5 1101.4 2123.4 1130.5 2087.5 1130.5 2051.6 1130.5 2022.5 1101.4 2022.5 1065.5Z" stroke="#000000" stroke-width="6.875" stroke-linecap="butt" stroke-linejoin="miter" stroke-miterlimit="8" stroke-opacity="1" fill="#FFFFFF" fill-rule="evenodd" fill-opacity="1"/><text fill="#000000" fill-opacity="1" font-family="DengXian,DengXian_MSFontService,sans-serif" font-style="normal" font-variant="normal" font-weight="400" font-stretch="normal" font-size="83" text-anchor="start" direction="ltr" writing-mode="lr-tb" unicode-bidi="normal" text-decoration="none" transform="matrix(1 0 0 1 2064.97 1093)">4</text><path d="M2520.5 502.5C2520.5 466.602 2549.6 437.5 2585.5 437.5 2621.4 437.5 2650.5 466.602 2650.5 502.5 2650.5 538.399 2621.4 567.5 2585.5 567.5 2549.6 567.5 2520.5 538.399 2520.5 502.5Z" stroke="#000000" stroke-width="6.875" stroke-linecap="butt" stroke-linejoin="miter" stroke-miterlimit="8" stroke-opacity="1" fill="#FFFFFF" fill-rule="evenodd" fill-opacity="1"/><text fill="#000000" fill-opacity="1" font-family="DengXian,DengXian_MSFontService,sans-serif" font-style="normal" font-variant="normal" font-weight="400" font-stretch="normal" font-size="83" text-anchor="start" direction="ltr" writing-mode="lr-tb" unicode-bidi="normal" text-decoration="none" transform="matrix(1 0 0 1 2563.28 530)">7</text><path d="M2520.5 690.5C2520.5 654.602 2549.6 625.5 2585.5 625.5 2621.4 625.5 2650.5 654.602 2650.5 690.5 2650.5 726.399 2621.4 755.5 2585.5 755.5 2549.6 755.5 2520.5 726.399 2520.5 690.5Z" stroke="#000000" stroke-width="6.875" stroke-linecap="butt" stroke-linejoin="miter" stroke-miterlimit="8" stroke-opacity="1" fill="#FFFFFF" fill-rule="evenodd" fill-opacity="1"/><text fill="#000000" fill-opacity="1" font-family="DengXian,DengXian_MSFontService,sans-serif" font-style="normal" font-variant="normal" font-weight="400" font-stretch="normal" font-size="83" text-anchor="start" direction="ltr" writing-mode="lr-tb" unicode-bidi="normal" text-decoration="none" transform="matrix(1 0 0 1 2563.28 717)">8</text><path d="M2520.5 878.5C2520.5 842.602 2549.6 813.5 2585.5 813.5 2621.4 813.5 2650.5 842.602 2650.5 878.5 2650.5 914.399 2621.4 943.5 2585.5 943.5 2549.6 943.5 2520.5 914.399 2520.5 878.5Z" stroke="#000000" stroke-width="6.875" stroke-linecap="butt" stroke-linejoin="miter" stroke-miterlimit="8" stroke-opacity="1" fill="#FFFFFF" fill-rule="evenodd" fill-opacity="1"/><text fill="#000000" fill-opacity="1" font-family="DengXian,DengXian_MSFontService,sans-serif" font-style="normal" font-variant="normal" font-weight="400" font-stretch="normal" font-size="83" text-anchor="start" direction="ltr" writing-mode="lr-tb" unicode-bidi="normal" text-decoration="none" transform="matrix(1 0 0 1 2563.28 905)">9</text><path d="M2520.5 1065.5C2520.5 1029.6 2549.6 1000.5 2585.5 1000.5 2621.4 1000.5 2650.5 1029.6 2650.5 1065.5 2650.5 1101.4 2621.4 1130.5 2585.5 1130.5 2549.6 1130.5 2520.5 1101.4 2520.5 1065.5Z" stroke="#000000" stroke-width="6.875" stroke-linecap="butt" stroke-linejoin="miter" stroke-miterlimit="8" stroke-opacity="1" fill="#FFFFFF" fill-rule="evenodd" fill-opacity="1"/><text fill="#000000" fill-opacity="1" font-family="DengXian,DengXian_MSFontService,sans-serif" font-style="normal" font-variant="normal" font-weight="400" font-stretch="normal" font-size="83" text-anchor="start" direction="ltr" writing-mode="lr-tb" unicode-bidi="normal" text-decoration="none" transform="matrix(1 0 0 1 2564.43 1093)">a</text><path d="M2152.5 502.5 2520.89 502.5" stroke="#000000" stroke-width="6.875" stroke-linecap="butt" stroke-linejoin="miter" stroke-miterlimit="8" stroke-opacity="1" fill="none" fill-rule="evenodd"/><path d="M2152 502 2520.39 877.253" stroke="#FF0000" stroke-width="13.75" stroke-linecap="butt" stroke-linejoin="miter" stroke-miterlimit="8" stroke-opacity="1" fill="none" fill-rule="evenodd"/><path d="M0 0 368.392 187.627" stroke="#FF0000" stroke-width="13.75" stroke-linecap="butt" stroke-linejoin="miter" stroke-miterlimit="8" stroke-opacity="1" fill="none" fill-rule="evenodd" transform="matrix(1 0 0 -1 2152 877.626)"/><path d="M0 0 368.392 187.627" stroke="#FF0000" stroke-width="13.75" stroke-linecap="butt" stroke-linejoin="miter" stroke-miterlimit="8" stroke-opacity="1" fill="none" fill-rule="evenodd" transform="matrix(1 0 0 -1 2152 1065.63)"/><path d="M2022.5 1258.5C2022.5 1222.6 2051.6 1193.5 2087.5 1193.5 2123.4 1193.5 2152.5 1222.6 2152.5 1258.5 2152.5 1294.4 2123.4 1323.5 2087.5 1323.5 2051.6 1323.5 2022.5 1294.4 2022.5 1258.5Z" stroke="#000000" stroke-width="6.875" stroke-linecap="butt" stroke-linejoin="miter" stroke-miterlimit="8" stroke-opacity="1" fill="#FFFFFF" fill-rule="evenodd" fill-opacity="1"/><text fill="#000000" fill-opacity="1" font-family="DengXian,DengXian_MSFontService,sans-serif" font-style="normal" font-variant="normal" font-weight="400" font-stretch="normal" font-size="83" text-anchor="start" direction="ltr" writing-mode="lr-tb" unicode-bidi="normal" text-decoration="none" transform="matrix(1 0 0 1 2064.97 1285)">5</text><path d="M2022.5 1451.5C2022.5 1415.6 2051.6 1386.5 2087.5 1386.5 2123.4 1386.5 2152.5 1415.6 2152.5 1451.5 2152.5 1487.4 2123.4 1516.5 2087.5 1516.5 2051.6 1516.5 2022.5 1487.4 2022.5 1451.5Z" stroke="#000000" stroke-width="6.875" stroke-linecap="butt" stroke-linejoin="miter" stroke-miterlimit="8" stroke-opacity="1" fill="#FFFFFF" fill-rule="evenodd" fill-opacity="1"/><text fill="#000000" fill-opacity="1" font-family="DengXian,DengXian_MSFontService,sans-serif" font-style="normal" font-variant="normal" font-weight="400" font-stretch="normal" font-size="83" text-anchor="start" direction="ltr" writing-mode="lr-tb" unicode-bidi="normal" text-decoration="none" transform="matrix(1 0 0 1 2064.97 1479)">6</text><path d="M2520.5 1258.5C2520.5 1222.6 2549.6 1193.5 2585.5 1193.5 2621.4 1193.5 2650.5 1222.6 2650.5 1258.5 2650.5 1294.4 2621.4 1323.5 2585.5 1323.5 2549.6 1323.5 2520.5 1294.4 2520.5 1258.5Z" stroke="#000000" stroke-width="6.875" stroke-linecap="butt" stroke-linejoin="miter" stroke-miterlimit="8" stroke-opacity="1" fill="#FFFFFF" fill-rule="evenodd" fill-opacity="1"/><text fill="#000000" fill-opacity="1" font-family="DengXian,DengXian_MSFontService,sans-serif" font-style="normal" font-variant="normal" font-weight="400" font-stretch="normal" font-size="83" text-anchor="start" direction="ltr" writing-mode="lr-tb" unicode-bidi="normal" text-decoration="none" transform="matrix(1 0 0 1 2561.27 1285)">b</text><path d="M2520.5 1451.5C2520.5 1415.6 2549.6 1386.5 2585.5 1386.5 2621.4 1386.5 2650.5 1415.6 2650.5 1451.5 2650.5 1487.4 2621.4 1516.5 2585.5 1516.5 2549.6 1516.5 2520.5 1487.4 2520.5 1451.5Z" stroke="#000000" stroke-width="6.875" stroke-linecap="butt" stroke-linejoin="miter" stroke-miterlimit="8" stroke-opacity="1" fill="#FFFFFF" fill-rule="evenodd" fill-opacity="1"/><text fill="#000000" fill-opacity="1" font-family="DengXian,DengXian_MSFontService,sans-serif" font-style="normal" font-variant="normal" font-weight="400" font-stretch="normal" font-size="83" text-anchor="start" direction="ltr" writing-mode="lr-tb" unicode-bidi="normal" text-decoration="none" transform="matrix(1 0 0 1 2566.43 1479)">c</text><path d="M0 0 368.392 193.548" stroke="#FF0000" stroke-width="13.75" stroke-linecap="butt" stroke-linejoin="miter" stroke-miterlimit="8" stroke-opacity="1" fill="none" fill-rule="evenodd" transform="matrix(1 0 0 -1 2152 1451.55)"/><path d="M2152 1258 2520.39 1451.55" stroke="#FF0000" stroke-width="13.75" stroke-linecap="butt" stroke-linejoin="miter" stroke-miterlimit="8" stroke-opacity="1" fill="none" fill-rule="evenodd"/><path d="M2152.5 502.5 2520.89 690.127" stroke="#000000" stroke-width="6.875" stroke-linecap="butt" stroke-linejoin="miter" stroke-miterlimit="8" stroke-opacity="1" fill="none" fill-rule="evenodd"/><path d="M2152.5 690.5 2520.89 690.5" stroke="#000000" stroke-width="6.875" stroke-linecap="butt" stroke-linejoin="miter" stroke-miterlimit="8" stroke-opacity="1" fill="none" fill-rule="evenodd"/><path d="M2152.5 878.5 2520.89 878.5" stroke="#000000" stroke-width="6.875" stroke-linecap="butt" stroke-linejoin="miter" stroke-miterlimit="8" stroke-opacity="1" fill="none" fill-rule="evenodd"/><path d="M0 0 368.392 380.223" stroke="#000000" stroke-width="6.875" stroke-linecap="butt" stroke-linejoin="miter" stroke-miterlimit="8" stroke-opacity="1" fill="none" fill-rule="evenodd" transform="matrix(1 0 0 -1 2152.5 1258.72)"/><path d="M0 0 368.392 192.596" stroke="#000000" stroke-width="6.875" stroke-linecap="butt" stroke-linejoin="miter" stroke-miterlimit="8" stroke-opacity="1" fill="none" fill-rule="evenodd" transform="matrix(1 0 0 -1 2152.5 1258.1)"/><path d="M2152.5 1258.5 2520.89 1258.5" stroke="#000000" stroke-width="6.875" stroke-linecap="butt" stroke-linejoin="miter" stroke-miterlimit="8" stroke-opacity="1" fill="none" fill-rule="evenodd"/><path d="M2152.5 690.5 2520.89 1451.9" stroke="#000000" stroke-width="6.875" stroke-linecap="butt" stroke-linejoin="miter" stroke-miterlimit="8" stroke-opacity="1" fill="none" fill-rule="evenodd"/><path d="M3162.5 502.5C3162.5 466.602 3191.6 437.5 3227.5 437.5 3263.4 437.5 3292.5 466.602 3292.5 502.5 3292.5 538.399 3263.4 567.5 3227.5 567.5 3191.6 567.5 3162.5 538.399 3162.5 502.5Z" stroke="#000000" stroke-width="6.875" stroke-linecap="butt" stroke-linejoin="miter" stroke-miterlimit="8" stroke-opacity="1" fill="#FFFFFF" fill-rule="evenodd" fill-opacity="1"/><text fill="#000000" fill-opacity="1" font-family="DengXian,DengXian_MSFontService,sans-serif" font-style="normal" font-variant="normal" font-weight="400" font-stretch="normal" font-size="83" text-anchor="start" direction="ltr" writing-mode="lr-tb" unicode-bidi="normal" text-decoration="none" transform="matrix(1 0 0 1 3205.39 530)">2</text><path d="M2969.5 691.5C2969.5 655.602 2998.6 626.5 3034.5 626.5 3070.4 626.5 3099.5 655.602 3099.5 691.5 3099.5 727.399 3070.4 756.5 3034.5 756.5 2998.6 756.5 2969.5 727.399 2969.5 691.5Z" stroke="#FF0000" stroke-width="6.875" stroke-linecap="butt" stroke-linejoin="miter" stroke-miterlimit="8" stroke-opacity="1" fill="#FFFFFF" fill-rule="evenodd" fill-opacity="1"/><text fill="#000000" fill-opacity="1" font-family="DengXian,DengXian_MSFontService,sans-serif" font-style="normal" font-variant="normal" font-weight="400" font-stretch="normal" font-size="83" text-anchor="start" direction="ltr" writing-mode="lr-tb" unicode-bidi="normal" text-decoration="none" transform="matrix(1 0 0 1 3011.89 718)">8</text><path d="M3364.5 690.5C3364.5 654.602 3393.6 625.5 3429.5 625.5 3465.4 625.5 3494.5 654.602 3494.5 690.5 3494.5 726.399 3465.4 755.5 3429.5 755.5 3393.6 755.5 3364.5 726.399 3364.5 690.5Z" stroke="#FF0000" stroke-width="6.875" stroke-linecap="butt" stroke-linejoin="miter" stroke-miterlimit="8" stroke-opacity="1" fill="#FFFFFF" fill-rule="evenodd" fill-opacity="1"/><text fill="#000000" fill-opacity="1" font-family="DengXian,DengXian_MSFontService,sans-serif" font-style="normal" font-variant="normal" font-weight="400" font-stretch="normal" font-size="83" text-anchor="start" direction="ltr" writing-mode="lr-tb" unicode-bidi="normal" text-decoration="none" transform="matrix(1 0 0 1 3410.24 718)">c</text><path d="M2969.5 878.5C2969.5 842.602 2998.6 813.5 3034.5 813.5 3070.4 813.5 3099.5 842.602 3099.5 878.5 3099.5 914.399 3070.4 943.5 3034.5 943.5 2998.6 943.5 2969.5 914.399 2969.5 878.5Z" stroke="#FF0000" stroke-width="6.875" stroke-linecap="butt" stroke-linejoin="miter" stroke-miterlimit="8" stroke-opacity="1" fill="#FFFFFF" fill-rule="evenodd" fill-opacity="1"/><text fill="#000000" fill-opacity="1" font-family="DengXian,DengXian_MSFontService,sans-serif" font-style="normal" font-variant="normal" font-weight="400" font-stretch="normal" font-size="83" text-anchor="start" direction="ltr" writing-mode="lr-tb" unicode-bidi="normal" text-decoration="none" transform="matrix(1 0 0 1 3011.89 905)">3</text><path d="M2969.5 1064.5C2969.5 1028.6 2998.6 999.5 3034.5 999.5 3070.4 999.5 3099.5 1028.6 3099.5 1064.5 3099.5 1100.4 3070.4 1129.5 3034.5 1129.5 2998.6 1129.5 2969.5 1100.4 2969.5 1064.5Z" stroke="#FF0000" stroke-width="6.875" stroke-linecap="butt" stroke-linejoin="miter" stroke-miterlimit="8" stroke-opacity="1" fill="#FFFFFF" fill-rule="evenodd" fill-opacity="1"/><text fill="#000000" fill-opacity="1" font-family="DengXian,DengXian_MSFontService,sans-serif" font-style="normal" font-variant="normal" font-weight="400" font-stretch="normal" font-size="83" text-anchor="start" direction="ltr" writing-mode="lr-tb" unicode-bidi="normal" text-decoration="none" transform="matrix(1 0 0 1 3011.89 1092)">9</text><path d="M2969.5 1259.5C2969.5 1223.6 2998.6 1194.5 3034.5 1194.5 3070.4 1194.5 3099.5 1223.6 3099.5 1259.5 3099.5 1295.4 3070.4 1324.5 3034.5 1324.5 2998.6 1324.5 2969.5 1295.4 2969.5 1259.5Z" stroke="#FF0000" stroke-width="6.875" stroke-linecap="butt" stroke-linejoin="miter" stroke-miterlimit="8" stroke-opacity="1" fill="#FFFFFF" fill-rule="evenodd" fill-opacity="1"/><text fill="#000000" fill-opacity="1" font-family="DengXian,DengXian_MSFontService,sans-serif" font-style="normal" font-variant="normal" font-weight="400" font-stretch="normal" font-size="83" text-anchor="start" direction="ltr" writing-mode="lr-tb" unicode-bidi="normal" text-decoration="none" transform="matrix(1 0 0 1 3011.89 1287)">4</text><path d="M3364.5 877.5C3364.5 841.602 3393.6 812.5 3429.5 812.5 3465.4 812.5 3494.5 841.602 3494.5 877.5 3494.5 913.399 3465.4 942.5 3429.5 942.5 3393.6 942.5 3364.5 913.399 3364.5 877.5Z" stroke="#FF0000" stroke-width="6.875" stroke-linecap="butt" stroke-linejoin="miter" stroke-miterlimit="8" stroke-opacity="1" fill="#FFFFFF" fill-rule="evenodd" fill-opacity="1"/><text fill="#000000" fill-opacity="1" font-family="DengXian,DengXian_MSFontService,sans-serif" font-style="normal" font-variant="normal" font-weight="400" font-stretch="normal" font-size="83" text-anchor="start" direction="ltr" writing-mode="lr-tb" unicode-bidi="normal" text-decoration="none" transform="matrix(1 0 0 1 3407.09 905)">5</text><path d="M3504.5 1064.5C3504.5 1028.6 3533.6 999.5 3569.5 999.5 3605.4 999.5 3634.5 1028.6 3634.5 1064.5 3634.5 1100.4 3605.4 1129.5 3569.5 1129.5 3533.6 1129.5 3504.5 1100.4 3504.5 1064.5Z" stroke="#FF0000" stroke-width="6.875" stroke-linecap="butt" stroke-linejoin="miter" stroke-miterlimit="8" stroke-opacity="1" fill="#FFFFFF" fill-rule="evenodd" fill-opacity="1"/><text fill="#000000" fill-opacity="1" font-family="DengXian,DengXian_MSFontService,sans-serif" font-style="normal" font-variant="normal" font-weight="400" font-stretch="normal" font-size="83" text-anchor="start" direction="ltr" writing-mode="lr-tb" unicode-bidi="normal" text-decoration="none" transform="matrix(1 0 0 1 3547.95 1092)">a</text><path d="M3237.5 1064.5C3237.5 1028.6 3266.6 999.5 3302.5 999.5 3338.4 999.5 3367.5 1028.6 3367.5 1064.5 3367.5 1100.4 3338.4 1129.5 3302.5 1129.5 3266.6 1129.5 3237.5 1100.4 3237.5 1064.5Z" stroke="#FF0000" stroke-width="6.875" stroke-linecap="butt" stroke-linejoin="miter" stroke-miterlimit="8" stroke-opacity="1" fill="#FFFFFF" fill-rule="evenodd" fill-opacity="1"/><text fill="#000000" fill-opacity="1" font-family="DengXian,DengXian_MSFontService,sans-serif" font-style="normal" font-variant="normal" font-weight="400" font-stretch="normal" font-size="83" text-anchor="start" direction="ltr" writing-mode="lr-tb" unicode-bidi="normal" text-decoration="none" transform="matrix(1 0 0 1 3278.29 1092)">b</text><path d="M3504.5 1259.5C3504.5 1223.6 3533.6 1194.5 3569.5 1194.5 3605.4 1194.5 3634.5 1223.6 3634.5 1259.5 3634.5 1295.4 3605.4 1324.5 3569.5 1324.5 3533.6 1324.5 3504.5 1295.4 3504.5 1259.5Z" stroke="#FF0000" stroke-width="6.875" stroke-linecap="butt" stroke-linejoin="miter" stroke-miterlimit="8" stroke-opacity="1" fill="#FFFFFF" fill-rule="evenodd" fill-opacity="1"/><text fill="#000000" fill-opacity="1" font-family="DengXian,DengXian_MSFontService,sans-serif" font-style="normal" font-variant="normal" font-weight="400" font-stretch="normal" font-size="83" text-anchor="start" direction="ltr" writing-mode="lr-tb" unicode-bidi="normal" text-decoration="none" transform="matrix(1 0 0 1 3546.81 1287)">1</text><path d="M3237.5 1258.5C3237.5 1222.6 3266.6 1193.5 3302.5 1193.5 3338.4 1193.5 3367.5 1222.6 3367.5 1258.5 3367.5 1294.4 3338.4 1323.5 3302.5 1323.5 3266.6 1323.5 3237.5 1294.4 3237.5 1258.5Z" stroke="#FF0000" stroke-width="6.875" stroke-linecap="butt" stroke-linejoin="miter" stroke-miterlimit="8" stroke-opacity="1" fill="#FFFFFF" fill-rule="evenodd" fill-opacity="1"/><text fill="#000000" fill-opacity="1" font-family="DengXian,DengXian_MSFontService,sans-serif" font-style="normal" font-variant="normal" font-weight="400" font-stretch="normal" font-size="83" text-anchor="start" direction="ltr" writing-mode="lr-tb" unicode-bidi="normal" text-decoration="none" transform="matrix(1 0 0 1 3280.3 1285)">6</text><path d="M3504.5 1451.5C3504.5 1415.6 3533.6 1386.5 3569.5 1386.5 3605.4 1386.5 3634.5 1415.6 3634.5 1451.5 3634.5 1487.4 3605.4 1516.5 3569.5 1516.5 3533.6 1516.5 3504.5 1487.4 3504.5 1451.5Z" stroke="#000000" stroke-width="6.875" stroke-linecap="butt" stroke-linejoin="miter" stroke-miterlimit="8" stroke-opacity="1" fill="#FFFFFF" fill-rule="evenodd" fill-opacity="1"/><text fill="#000000" fill-opacity="1" font-family="DengXian,DengXian_MSFontService,sans-serif" font-style="normal" font-variant="normal" font-weight="400" font-stretch="normal" font-size="83" text-anchor="start" direction="ltr" writing-mode="lr-tb" unicode-bidi="normal" text-decoration="none" transform="matrix(1 0 0 1 3546.81 1479)">7</text><path d="M0 0 147.56 77.4908" stroke="#000000" stroke-width="6.875" stroke-linecap="butt" stroke-linejoin="miter" stroke-miterlimit="8" stroke-opacity="1" fill="none" fill-rule="evenodd" transform="matrix(1 0 0 -1 3034.5 625.991)"/><path d="M0 0 0.000360892 56.9463" stroke="#FF0000" stroke-width="13.75" stroke-linecap="butt" stroke-linejoin="miter" stroke-miterlimit="8" stroke-opacity="1" fill="none" fill-rule="evenodd" transform="matrix(1 0 0 -1 3034 812.946)"/><path d="M0 0 0.000360892 56.938" stroke="#000000" stroke-width="6.875" stroke-linecap="butt" stroke-linejoin="miter" stroke-miterlimit="8" stroke-opacity="1" fill="none" fill-rule="evenodd" transform="matrix(1 0 0 -1 3034.5 1000.44)"/><path d="M0 0 0.000360892 64.8516" stroke="#FF0000" stroke-width="13.75" stroke-linecap="butt" stroke-linejoin="miter" stroke-miterlimit="8" stroke-opacity="1" fill="none" fill-rule="evenodd" transform="matrix(1 0 0 -1 3034 1193.85)"/><path d="M0 0 0.000360892 63.4427" stroke="#FF0000" stroke-width="13.75" stroke-linecap="butt" stroke-linejoin="miter" stroke-miterlimit="8" stroke-opacity="1" fill="none" fill-rule="evenodd" transform="matrix(1 0 0 -1 3302 1192.44)"/><path d="M0 0 0.000360892 64.8516" stroke="#FF0000" stroke-width="13.75" stroke-linecap="butt" stroke-linejoin="miter" stroke-miterlimit="8" stroke-opacity="1" fill="none" fill-rule="evenodd" transform="matrix(1 0 0 -1 3569 1193.85)"/><path d="M0 0 0.000360892 62.2182" stroke="#000000" stroke-width="6.875" stroke-linecap="butt" stroke-linejoin="miter" stroke-miterlimit="8" stroke-opacity="1" fill="none" fill-rule="evenodd" transform="matrix(1 0 0 -1 3569.5 1386.72)"/><path d="M0 0 80.8594 76.157" stroke="#000000" stroke-width="6.875" stroke-linecap="butt" stroke-linejoin="miter" stroke-miterlimit="8" stroke-opacity="1" fill="none" fill-rule="evenodd" transform="matrix(1 0 0 -1 3302.5 999.657)"/><path d="M3569.28 999.657 3475.5 923.5" stroke="#000000" stroke-width="6.875" stroke-linecap="butt" stroke-linejoin="miter" stroke-miterlimit="8" stroke-opacity="1" fill="none" fill-rule="evenodd"/><path d="M0 0 0.000360892 57.13" stroke="#FF0000" stroke-width="13.75" stroke-linecap="butt" stroke-linejoin="miter" stroke-miterlimit="8" stroke-opacity="1" fill="none" fill-rule="evenodd" transform="matrix(1 0 0 -1 3429 812.13)"/><path d="M3273.5 548.5 3429.27 625.615" stroke="#000000" stroke-width="6.875" stroke-linecap="butt" stroke-linejoin="miter" stroke-miterlimit="8" stroke-opacity="1" fill="none" fill-rule="evenodd"/></g></g></svg>