<svg width="1632" height="1128" xmlns="http://www.w3.org/2000/svg" xmlns:xlink="http://www.w3.org/1999/xlink" xml:space="preserve" overflow="hidden"><g transform="translate(-1402 -627)"><g><path d="M1413.5 705.5C1413.5 669.601 1442.6 640.5 1478.5 640.5 1514.4 640.5 1543.5 669.601 1543.5 705.5 1543.5 741.398 1514.4 770.5 1478.5 770.5 1442.6 770.5 1413.5 741.398 1413.5 705.5Z" stroke="#000000" stroke-width="6.875" stroke-linecap="butt" stroke-linejoin="miter" stroke-miterlimit="8" stroke-opacity="1" fill="#FFFFFF" fill-rule="evenodd" fill-opacity="1"/><text fill="#000000" fill-opacity="1" font-family="DengXian,DengXian_MSFontService,sans-serif" font-style="normal" font-variant="normal" font-weight="400" font-stretch="normal" font-size="83" text-anchor="start" direction="ltr" writing-mode="lr-tb" unicode-bidi="normal" text-decoration="none" transform="matrix(1 0 0 1 1456.65 733)">1</text><path d="M1413.5 893.5C1413.5 857.601 1442.6 828.5 1478.5 828.5 1514.4 828.5 1543.5 857.601 1543.5 893.5 1543.5 929.398 1514.4 958.5 1478.5 958.5 1442.6 958.5 1413.5 929.398 1413.5 893.5Z" stroke="#000000" stroke-width="6.875" stroke-linecap="butt" stroke-linejoin="miter" stroke-miterlimit="8" stroke-opacity="1" fill="#FFFFFF" fill-rule="evenodd" fill-opacity="1"/><text fill="#000000" fill-opacity="1" font-family="DengXian,DengXian_MSFontService,sans-serif" font-style="normal" font-variant="normal" font-weight="400" font-stretch="normal" font-size="83" text-anchor="start" direction="ltr" writing-mode="lr-tb" unicode-bidi="normal" text-decoration="none" transform="matrix(1 0 0 1 1456.65 920)">2</text><path d="M1413.5 1080.5C1413.5 1044.6 1442.6 1015.5 1478.5 1015.5 1514.4 1015.5 1543.5 1044.6 1543.5 1080.5 1543.5 1116.4 1514.4 1145.5 1478.5 1145.5 1442.6 1145.5 1413.5 1116.4 1413.5 1080.5Z" stroke="#000000" stroke-width="6.875" stroke-linecap="butt" stroke-linejoin="miter" stroke-miterlimit="8" stroke-opacity="1" fill="#FFFFFF" fill-rule="evenodd" fill-opacity="1"/><text fill="#000000" fill-opacity="1" font-family="DengXian,DengXian_MSFontService,sans-serif" font-style="normal" font-variant="normal" font-weight="400" font-stretch="normal" font-size="83" text-anchor="start" direction="ltr" writing-mode="lr-tb" unicode-bidi="normal" text-decoration="none" transform="matrix(1 0 0 1 1456.65 1108)">3</text><path d="M1413.5 1268.5C1413.5 1232.6 1442.6 1203.5 1478.5 1203.5 1514.4 1203.5 1543.5 1232.6 1543.5 1268.5 1543.5 1304.4 1514.4 1333.5 1478.5 1333.5 1442.6 1333.5 1413.5 1304.4 1413.5 1268.5Z" stroke="#000000" stroke-width="6.875" stroke-linecap="butt" stroke-linejoin="miter" stroke-miterlimit="8" stroke-opacity="1" fill="#FFFFFF" fill-rule="evenodd" fill-opacity="1"/><text fill="#000000" fill-opacity="1" font-family="DengXian,DengXian_MSFontService,sans-serif" font-style="normal" font-variant="normal" font-weight="400" font-stretch="normal" font-size="83" text-anchor="start" direction="ltr" writing-mode="lr-tb" unicode-bidi="normal" text-decoration="none" transform="matrix(1 0 0 1 1456.65 1295)">4</text><path d="M1912.5 705.5C1912.5 669.601 1941.6 640.5 1977.5 640.5 2013.4 640.5 2042.5 669.601 2042.5 705.5 2042.5 741.398 2013.4 770.5 1977.5 770.5 1941.6 770.5 1912.5 741.398 1912.5 705.5Z" stroke="#000000" stroke-width="6.875" stroke-linecap="butt" stroke-linejoin="miter" stroke-miterlimit="8" stroke-opacity="1" fill="#FFFFFF" fill-rule="evenodd" fill-opacity="1"/><text fill="#000000" fill-opacity="1" font-family="DengXian,DengXian_MSFontService,sans-serif" font-style="normal" font-variant="normal" font-weight="400" font-stretch="normal" font-size="83" text-anchor="start" direction="ltr" writing-mode="lr-tb" unicode-bidi="normal" text-decoration="none" transform="matrix(1 0 0 1 1954.97 733)">7</text><path d="M1912.5 893.5C1912.5 857.601 1941.6 828.5 1977.5 828.5 2013.4 828.5 2042.5 857.601 2042.5 893.5 2042.5 929.398 2013.4 958.5 1977.5 958.5 1941.6 958.5 1912.5 929.398 1912.5 893.5Z" stroke="#000000" stroke-width="6.875" stroke-linecap="butt" stroke-linejoin="miter" stroke-miterlimit="8" stroke-opacity="1" fill="#FFFFFF" fill-rule="evenodd" fill-opacity="1"/><text fill="#000000" fill-opacity="1" font-family="DengXian,DengXian_MSFontService,sans-serif" font-style="normal" font-variant="normal" font-weight="400" font-stretch="normal" font-size="83" text-anchor="start" direction="ltr" writing-mode="lr-tb" unicode-bidi="normal" text-decoration="none" transform="matrix(1 0 0 1 1954.97 920)">8</text><path d="M1912.5 1080.5C1912.5 1044.6 1941.6 1015.5 1977.5 1015.5 2013.4 1015.5 2042.5 1044.6 2042.5 1080.5 2042.5 1116.4 2013.4 1145.5 1977.5 1145.5 1941.6 1145.5 1912.5 1116.4 1912.5 1080.5Z" stroke="#000000" stroke-width="6.875" stroke-linecap="butt" stroke-linejoin="miter" stroke-miterlimit="8" stroke-opacity="1" fill="#FFFFFF" fill-rule="evenodd" fill-opacity="1"/><text fill="#000000" fill-opacity="1" font-family="DengXian,DengXian_MSFontService,sans-serif" font-style="normal" font-variant="normal" font-weight="400" font-stretch="normal" font-size="83" text-anchor="start" direction="ltr" writing-mode="lr-tb" unicode-bidi="normal" text-decoration="none" transform="matrix(1 0 0 1 1954.97 1108)">9</text><path d="M1912.5 1268.5C1912.5 1232.6 1941.6 1203.5 1977.5 1203.5 2013.4 1203.5 2042.5 1232.6 2042.5 1268.5 2042.5 1304.4 2013.4 1333.5 1977.5 1333.5 1941.6 1333.5 1912.5 1304.4 1912.5 1268.5Z" stroke="#000000" stroke-width="6.875" stroke-linecap="butt" stroke-linejoin="miter" stroke-miterlimit="8" stroke-opacity="1" fill="#FFFFFF" fill-rule="evenodd" fill-opacity="1"/><text fill="#000000" fill-opacity="1" font-family="DengXian,DengXian_MSFontService,sans-serif" font-style="normal" font-variant="normal" font-weight="400" font-stretch="normal" font-size="83" text-anchor="start" direction="ltr" writing-mode="lr-tb" unicode-bidi="normal" text-decoration="none" transform="matrix(1 0 0 1 1956.11 1295)">a</text><path d="M1543.5 705.5 1911.89 705.5" stroke="#000000" stroke-width="6.875" stroke-linecap="butt" stroke-linejoin="miter" stroke-miterlimit="8" stroke-opacity="1" fill="none" fill-rule="evenodd"/><path d="M1543 705 1911.39 1267.88" stroke="#FF0000" stroke-width="13.75" stroke-linecap="butt" stroke-linejoin="miter" stroke-miterlimit="8" stroke-opacity="1" fill="none" fill-rule="evenodd"/><path d="M0 0 368.392 187.627" stroke="#FF0000" stroke-width="13.75" stroke-linecap="butt" stroke-linejoin="miter" stroke-miterlimit="8" stroke-opacity="1" fill="none" fill-rule="evenodd" transform="matrix(1 0 0 -1 1543 1080.63)"/><path d="M0 0 368.392 187.627" stroke="#FF0000" stroke-width="13.75" stroke-linecap="butt" stroke-linejoin="miter" stroke-miterlimit="8" stroke-opacity="1" fill="none" fill-rule="evenodd" transform="matrix(1 0 0 -1 1543 1267.63)"/><path d="M1413.5 1461.5C1413.5 1425.6 1442.6 1396.5 1478.5 1396.5 1514.4 1396.5 1543.5 1425.6 1543.5 1461.5 1543.5 1497.4 1514.4 1526.5 1478.5 1526.5 1442.6 1526.5 1413.5 1497.4 1413.5 1461.5Z" stroke="#000000" stroke-width="6.875" stroke-linecap="butt" stroke-linejoin="miter" stroke-miterlimit="8" stroke-opacity="1" fill="#FFFFFF" fill-rule="evenodd" fill-opacity="1"/><text fill="#000000" fill-opacity="1" font-family="DengXian,DengXian_MSFontService,sans-serif" font-style="normal" font-variant="normal" font-weight="400" font-stretch="normal" font-size="83" text-anchor="start" direction="ltr" writing-mode="lr-tb" unicode-bidi="normal" text-decoration="none" transform="matrix(1 0 0 1 1456.65 1488)">5</text><path d="M1413.5 1654.5C1413.5 1618.6 1442.6 1589.5 1478.5 1589.5 1514.4 1589.5 1543.5 1618.6 1543.5 1654.5 1543.5 1690.4 1514.4 1719.5 1478.5 1719.5 1442.6 1719.5 1413.5 1690.4 1413.5 1654.5Z" stroke="#000000" stroke-width="6.875" stroke-linecap="butt" stroke-linejoin="miter" stroke-miterlimit="8" stroke-opacity="1" fill="#FFFFFF" fill-rule="evenodd" fill-opacity="1"/><text fill="#000000" fill-opacity="1" font-family="DengXian,DengXian_MSFontService,sans-serif" font-style="normal" font-variant="normal" font-weight="400" font-stretch="normal" font-size="83" text-anchor="start" direction="ltr" writing-mode="lr-tb" unicode-bidi="normal" text-decoration="none" transform="matrix(1 0 0 1 1456.65 1682)">6</text><path d="M1912.5 1461.5C1912.5 1425.6 1941.6 1396.5 1977.5 1396.5 2013.4 1396.5 2042.5 1425.6 2042.5 1461.5 2042.5 1497.4 2013.4 1526.5 1977.5 1526.5 1941.6 1526.5 1912.5 1497.4 1912.5 1461.5Z" stroke="#000000" stroke-width="6.875" stroke-linecap="butt" stroke-linejoin="miter" stroke-miterlimit="8" stroke-opacity="1" fill="#FFFFFF" fill-rule="evenodd" fill-opacity="1"/><text fill="#000000" fill-opacity="1" font-family="DengXian,DengXian_MSFontService,sans-serif" font-style="normal" font-variant="normal" font-weight="400" font-stretch="normal" font-size="83" text-anchor="start" direction="ltr" writing-mode="lr-tb" unicode-bidi="normal" text-decoration="none" transform="matrix(1 0 0 1 1952.96 1488)">b</text><path d="M1912.5 1654.5C1912.5 1618.6 1941.6 1589.5 1977.5 1589.5 2013.4 1589.5 2042.5 1618.6 2042.5 1654.5 2042.5 1690.4 2013.4 1719.5 1977.5 1719.5 1941.6 1719.5 1912.5 1690.4 1912.5 1654.5Z" stroke="#000000" stroke-width="6.875" stroke-linecap="butt" stroke-linejoin="miter" stroke-miterlimit="8" stroke-opacity="1" fill="#FFFFFF" fill-rule="evenodd" fill-opacity="1"/><text fill="#000000" fill-opacity="1" font-family="DengXian,DengXian_MSFontService,sans-serif" font-style="normal" font-variant="normal" font-weight="400" font-stretch="normal" font-size="83" text-anchor="start" direction="ltr" writing-mode="lr-tb" unicode-bidi="normal" text-decoration="none" transform="matrix(1 0 0 1 1958.12 1682)">c</text><path d="M0 0 368.392 193.548" stroke="#FF0000" stroke-width="13.75" stroke-linecap="butt" stroke-linejoin="miter" stroke-miterlimit="8" stroke-opacity="1" fill="none" fill-rule="evenodd" transform="matrix(1 0 0 -1 1543 1654.55)"/><path d="M1543 1461 1911.39 1654.55" stroke="#FF0000" stroke-width="13.75" stroke-linecap="butt" stroke-linejoin="miter" stroke-miterlimit="8" stroke-opacity="1" fill="none" fill-rule="evenodd"/><path d="M1543.5 705.5 1911.89 893.126" stroke="#000000" stroke-width="6.875" stroke-linecap="butt" stroke-linejoin="miter" stroke-miterlimit="8" stroke-opacity="1" fill="none" fill-rule="evenodd"/><path d="M1543.5 893.5 1911.89 893.5" stroke="#000000" stroke-width="6.875" stroke-linecap="butt" stroke-linejoin="miter" stroke-miterlimit="8" stroke-opacity="1" fill="none" fill-rule="evenodd"/><path d="M1543.5 1080.5 1911.89 1080.5" stroke="#000000" stroke-width="6.875" stroke-linecap="butt" stroke-linejoin="miter" stroke-miterlimit="8" stroke-opacity="1" fill="none" fill-rule="evenodd"/><path d="M0 0 368.392 380.223" stroke="#000000" stroke-width="6.875" stroke-linecap="butt" stroke-linejoin="miter" stroke-miterlimit="8" stroke-opacity="1" fill="none" fill-rule="evenodd" transform="matrix(1 0 0 -1 1543.5 1460.72)"/><path d="M0 0 368.392 192.596" stroke="#000000" stroke-width="6.875" stroke-linecap="butt" stroke-linejoin="miter" stroke-miterlimit="8" stroke-opacity="1" fill="none" fill-rule="evenodd" transform="matrix(1 0 0 -1 1543.5 1461.1)"/><path d="M1543.5 1461.5 1911.89 1461.5" stroke="#000000" stroke-width="6.875" stroke-linecap="butt" stroke-linejoin="miter" stroke-miterlimit="8" stroke-opacity="1" fill="none" fill-rule="evenodd"/><path d="M1543.5 893.5 1911.89 1654.9" stroke="#000000" stroke-width="6.875" stroke-linecap="butt" stroke-linejoin="miter" stroke-miterlimit="8" stroke-opacity="1" fill="none" fill-rule="evenodd"/><path d="M2554.5 705.5C2554.5 669.601 2583.6 640.5 2619.5 640.5 2655.4 640.5 2684.5 669.601 2684.5 705.5 2684.5 741.398 2655.4 770.5 2619.5 770.5 2583.6 770.5 2554.5 741.398 2554.5 705.5Z" stroke="#000000" stroke-width="6.875" stroke-linecap="butt" stroke-linejoin="miter" stroke-miterlimit="8" stroke-opacity="1" fill="#FFFFFF" fill-rule="evenodd" fill-opacity="1"/><text fill="#000000" fill-opacity="1" font-family="DengXian,DengXian_MSFontService,sans-serif" font-style="normal" font-variant="normal" font-weight="400" font-stretch="normal" font-size="83" text-anchor="start" direction="ltr" writing-mode="lr-tb" unicode-bidi="normal" text-decoration="none" transform="matrix(1 0 0 1 2597.07 733)">2</text><path d="M2360.5 894C2360.5 858.378 2389.6 829.5 2425.5 829.5 2461.4 829.5 2490.5 858.378 2490.5 894 2490.5 929.622 2461.4 958.5 2425.5 958.5 2389.6 958.5 2360.5 929.622 2360.5 894Z" stroke="#FF0000" stroke-width="6.875" stroke-linecap="butt" stroke-linejoin="miter" stroke-miterlimit="8" stroke-opacity="1" fill="#FFFFFF" fill-rule="evenodd" fill-opacity="1"/><text fill="#000000" fill-opacity="1" font-family="DengXian,DengXian_MSFontService,sans-serif" font-style="normal" font-variant="normal" font-weight="400" font-stretch="normal" font-size="83" text-anchor="start" direction="ltr" writing-mode="lr-tb" unicode-bidi="normal" text-decoration="none" transform="matrix(1 0 0 1 2403.58 921)">8</text><path d="M2756.5 893.5C2756.5 857.601 2785.6 828.5 2821.5 828.5 2857.4 828.5 2886.5 857.601 2886.5 893.5 2886.5 929.398 2857.4 958.5 2821.5 958.5 2785.6 958.5 2756.5 929.398 2756.5 893.5Z" stroke="#FF0000" stroke-width="6.875" stroke-linecap="butt" stroke-linejoin="miter" stroke-miterlimit="8" stroke-opacity="1" fill="#FFFFFF" fill-rule="evenodd" fill-opacity="1"/><text fill="#000000" fill-opacity="1" font-family="DengXian,DengXian_MSFontService,sans-serif" font-style="normal" font-variant="normal" font-weight="400" font-stretch="normal" font-size="83" text-anchor="start" direction="ltr" writing-mode="lr-tb" unicode-bidi="normal" text-decoration="none" transform="matrix(1 0 0 1 2801.93 921)">c</text><path d="M2360.5 1080.5C2360.5 1044.6 2389.6 1015.5 2425.5 1015.5 2461.4 1015.5 2490.5 1044.6 2490.5 1080.5 2490.5 1116.4 2461.4 1145.5 2425.5 1145.5 2389.6 1145.5 2360.5 1116.4 2360.5 1080.5Z" stroke="#FF0000" stroke-width="6.875" stroke-linecap="butt" stroke-linejoin="miter" stroke-miterlimit="8" stroke-opacity="1" fill="#FFFFFF" fill-rule="evenodd" fill-opacity="1"/><text fill="#000000" fill-opacity="1" font-family="DengXian,DengXian_MSFontService,sans-serif" font-style="normal" font-variant="normal" font-weight="400" font-stretch="normal" font-size="83" text-anchor="start" direction="ltr" writing-mode="lr-tb" unicode-bidi="normal" text-decoration="none" transform="matrix(1 0 0 1 2403.58 1108)">3</text><path d="M2360.5 1267.5C2360.5 1231.6 2389.6 1202.5 2425.5 1202.5 2461.4 1202.5 2490.5 1231.6 2490.5 1267.5 2490.5 1303.4 2461.4 1332.5 2425.5 1332.5 2389.6 1332.5 2360.5 1303.4 2360.5 1267.5Z" stroke="#FF0000" stroke-width="6.875" stroke-linecap="butt" stroke-linejoin="miter" stroke-miterlimit="8" stroke-opacity="1" fill="#FFFFFF" fill-rule="evenodd" fill-opacity="1"/><text fill="#000000" fill-opacity="1" font-family="DengXian,DengXian_MSFontService,sans-serif" font-style="normal" font-variant="normal" font-weight="400" font-stretch="normal" font-size="83" text-anchor="start" direction="ltr" writing-mode="lr-tb" unicode-bidi="normal" text-decoration="none" transform="matrix(1 0 0 1 2403.58 1295)">9</text><path d="M2360.5 1462.5C2360.5 1426.6 2389.6 1397.5 2425.5 1397.5 2461.4 1397.5 2490.5 1426.6 2490.5 1462.5 2490.5 1498.4 2461.4 1527.5 2425.5 1527.5 2389.6 1527.5 2360.5 1498.4 2360.5 1462.5Z" stroke="#FF0000" stroke-width="6.875" stroke-linecap="butt" stroke-linejoin="miter" stroke-miterlimit="8" stroke-opacity="1" fill="#FFFFFF" fill-rule="evenodd" fill-opacity="1"/><text fill="#000000" fill-opacity="1" font-family="DengXian,DengXian_MSFontService,sans-serif" font-style="normal" font-variant="normal" font-weight="400" font-stretch="normal" font-size="83" text-anchor="start" direction="ltr" writing-mode="lr-tb" unicode-bidi="normal" text-decoration="none" transform="matrix(1 0 0 1 2403.58 1489)">4</text><path d="M2756.5 1080.5C2756.5 1044.6 2785.6 1015.5 2821.5 1015.5 2857.4 1015.5 2886.5 1044.6 2886.5 1080.5 2886.5 1116.4 2857.4 1145.5 2821.5 1145.5 2785.6 1145.5 2756.5 1116.4 2756.5 1080.5Z" stroke="#FF0000" stroke-width="6.875" stroke-linecap="butt" stroke-linejoin="miter" stroke-miterlimit="8" stroke-opacity="1" fill="#FFFFFF" fill-rule="evenodd" fill-opacity="1"/><text fill="#000000" fill-opacity="1" font-family="DengXian,DengXian_MSFontService,sans-serif" font-style="normal" font-variant="normal" font-weight="400" font-stretch="normal" font-size="83" text-anchor="start" direction="ltr" writing-mode="lr-tb" unicode-bidi="normal" text-decoration="none" transform="matrix(1 0 0 1 2798.78 1108)">5</text><path d="M2895.5 1267.5C2895.5 1231.6 2924.6 1202.5 2960.5 1202.5 2996.4 1202.5 3025.5 1231.6 3025.5 1267.5 3025.5 1303.4 2996.4 1332.5 2960.5 1332.5 2924.6 1332.5 2895.5 1303.4 2895.5 1267.5Z" stroke="#FF0000" stroke-width="6.875" stroke-linecap="butt" stroke-linejoin="miter" stroke-miterlimit="8" stroke-opacity="1" fill="#FFFFFF" fill-rule="evenodd" fill-opacity="1"/><text fill="#000000" fill-opacity="1" font-family="DengXian,DengXian_MSFontService,sans-serif" font-style="normal" font-variant="normal" font-weight="400" font-stretch="normal" font-size="83" text-anchor="start" direction="ltr" writing-mode="lr-tb" unicode-bidi="normal" text-decoration="none" transform="matrix(1 0 0 1 2939.64 1295)">a</text><path d="M2629.5 1267.5C2629.5 1231.6 2658.6 1202.5 2694.5 1202.5 2730.4 1202.5 2759.5 1231.6 2759.5 1267.5 2759.5 1303.4 2730.4 1332.5 2694.5 1332.5 2658.6 1332.5 2629.5 1303.4 2629.5 1267.5Z" stroke="#FF0000" stroke-width="6.875" stroke-linecap="butt" stroke-linejoin="miter" stroke-miterlimit="8" stroke-opacity="1" fill="#FFFFFF" fill-rule="evenodd" fill-opacity="1"/><text fill="#000000" fill-opacity="1" font-family="DengXian,DengXian_MSFontService,sans-serif" font-style="normal" font-variant="normal" font-weight="400" font-stretch="normal" font-size="83" text-anchor="start" direction="ltr" writing-mode="lr-tb" unicode-bidi="normal" text-decoration="none" transform="matrix(1 0 0 1 2669.98 1295)">b</text><path d="M2895.5 1462.5C2895.5 1426.6 2924.6 1397.5 2960.5 1397.5 2996.4 1397.5 3025.5 1426.6 3025.5 1462.5 3025.5 1498.4 2996.4 1527.5 2960.5 1527.5 2924.6 1527.5 2895.5 1498.4 2895.5 1462.5Z" stroke="#FF0000" stroke-width="6.875" stroke-linecap="butt" stroke-linejoin="miter" stroke-miterlimit="8" stroke-opacity="1" fill="#FFFFFF" fill-rule="evenodd" fill-opacity="1"/><text fill="#000000" fill-opacity="1" font-family="DengXian,DengXian_MSFontService,sans-serif" font-style="normal" font-variant="normal" font-weight="400" font-stretch="normal" font-size="83" text-anchor="start" direction="ltr" writing-mode="lr-tb" unicode-bidi="normal" text-decoration="none" transform="matrix(1 0 0 1 2938.5 1489)">1</text><path d="M2629.5 1461.5C2629.5 1425.6 2658.6 1396.5 2694.5 1396.5 2730.4 1396.5 2759.5 1425.6 2759.5 1461.5 2759.5 1497.4 2730.4 1526.5 2694.5 1526.5 2658.6 1526.5 2629.5 1497.4 2629.5 1461.5Z" stroke="#FF0000" stroke-width="6.875" stroke-linecap="butt" stroke-linejoin="miter" stroke-miterlimit="8" stroke-opacity="1" fill="#FFFFFF" fill-rule="evenodd" fill-opacity="1"/><text fill="#000000" fill-opacity="1" font-family="DengXian,DengXian_MSFontService,sans-serif" font-style="normal" font-variant="normal" font-weight="400" font-stretch="normal" font-size="83" text-anchor="start" direction="ltr" writing-mode="lr-tb" unicode-bidi="normal" text-decoration="none" transform="matrix(1 0 0 1 2671.99 1488)">6</text><path d="M2895.5 1654.5C2895.5 1618.6 2924.6 1589.5 2960.5 1589.5 2996.4 1589.5 3025.5 1618.6 3025.5 1654.5 3025.5 1690.4 2996.4 1719.5 2960.5 1719.5 2924.6 1719.5 2895.5 1690.4 2895.5 1654.5Z" stroke="#000000" stroke-width="6.875" stroke-linecap="butt" stroke-linejoin="miter" stroke-miterlimit="8" stroke-opacity="1" fill="#FFFFFF" fill-rule="evenodd" fill-opacity="1"/><text fill="#000000" fill-opacity="1" font-family="DengXian,DengXian_MSFontService,sans-serif" font-style="normal" font-variant="normal" font-weight="400" font-stretch="normal" font-size="83" text-anchor="start" direction="ltr" writing-mode="lr-tb" unicode-bidi="normal" text-decoration="none" transform="matrix(1 0 0 1 2938.5 1682)">7</text><path d="M0 0 147.56 77.4908" stroke="#000000" stroke-width="6.875" stroke-linecap="butt" stroke-linejoin="miter" stroke-miterlimit="8" stroke-opacity="1" fill="none" fill-rule="evenodd" transform="matrix(1 0 0 -1 2425.5 828.991)"/><path d="M0 0 0.000360892 56.9463" stroke="#FF0000" stroke-width="13.75" stroke-linecap="butt" stroke-linejoin="miter" stroke-miterlimit="8" stroke-opacity="1" fill="none" fill-rule="evenodd" transform="matrix(1 0 0 -1 2425 1014.95)"/><path d="M0 0 0.000360892 56.938" stroke="#000000" stroke-width="6.875" stroke-linecap="butt" stroke-linejoin="miter" stroke-miterlimit="8" stroke-opacity="1" fill="none" fill-rule="evenodd" transform="matrix(1 0 0 -1 2425.5 1202.44)"/><path d="M0 0 0.000360892 64.8516" stroke="#FF0000" stroke-width="13.75" stroke-linecap="butt" stroke-linejoin="miter" stroke-miterlimit="8" stroke-opacity="1" fill="none" fill-rule="evenodd" transform="matrix(1 0 0 -1 2425 1396.85)"/><path d="M0 0 0.000360892 63.4427" stroke="#FF0000" stroke-width="13.75" stroke-linecap="butt" stroke-linejoin="miter" stroke-miterlimit="8" stroke-opacity="1" fill="none" fill-rule="evenodd" transform="matrix(1 0 0 -1 2694 1395.44)"/><path d="M0 0 0.000360892 64.8516" stroke="#FF0000" stroke-width="13.75" stroke-linecap="butt" stroke-linejoin="miter" stroke-miterlimit="8" stroke-opacity="1" fill="none" fill-rule="evenodd" transform="matrix(1 0 0 -1 2960 1396.85)"/><path d="M0 0 0.000360892 62.2182" stroke="#000000" stroke-width="6.875" stroke-linecap="butt" stroke-linejoin="miter" stroke-miterlimit="8" stroke-opacity="1" fill="none" fill-rule="evenodd" transform="matrix(1 0 0 -1 2960.5 1589.72)"/><path d="M0 0 80.8594 76.157" stroke="#000000" stroke-width="6.875" stroke-linecap="butt" stroke-linejoin="miter" stroke-miterlimit="8" stroke-opacity="1" fill="none" fill-rule="evenodd" transform="matrix(1 0 0 -1 2694.5 1202.66)"/><path d="M2960.28 1202.66 2866.5 1126.5" stroke="#000000" stroke-width="6.875" stroke-linecap="butt" stroke-linejoin="miter" stroke-miterlimit="8" stroke-opacity="1" fill="none" fill-rule="evenodd"/><path d="M0 0 0.000360892 57.13" stroke="#FF0000" stroke-width="13.75" stroke-linecap="butt" stroke-linejoin="miter" stroke-miterlimit="8" stroke-opacity="1" fill="none" fill-rule="evenodd" transform="matrix(1 0 0 -1 2821 1015.13)"/><path d="M2665.5 751.5 2821.27 828.615" stroke="#000000" stroke-width="6.875" stroke-linecap="butt" stroke-linejoin="miter" stroke-miterlimit="8" stroke-opacity="1" fill="none" fill-rule="evenodd"/></g></g></svg>