<svg xmlns="http://www.w3.org/2000/svg" viewBox="360 0 780 780">
    <defs>
        <clipPath id="clip-square">
            <rect width="780" height="780" x="360" y="0"/>
        </clipPath>
    </defs>
    <g clip-path="url(#clip-square)">
        <path fill="#3d3028" fill-rule="evenodd" d="M1122.59 204.247 931.542 471.9l.95-317.469ZM754.752 10.05l165.385 281.163-308.908-159.579ZM925.84 289.524V154.431l-66.533 18.575Zm193.9 294.673-357.383-12.665 309.858-158.735Zm-181.543-108.92 130.216-67.546-51.326-41.372Zm-193.9 294.673L580.814 488.787 888.77 649.21Zm17.109-194.197L891.622 643.3l15.208-59.948Zm-383.996-1.688 193.9-266.81-3.803 317.47Zm197.701-83.59-.95 134.25 66.533-18.576Zm-189.146-296.36 356.431 16.042-310.808 155.357Zm180.592 110.607L434.439 370.58l51.327 42.217Zm172.988-99.631L609.328 136.7l-15.207 60.792Z"/>
    </g>
</svg>